<?xml version="1.0" encoding="UTF-8"?>
<svg width="11px" height="11px" viewBox="0 0 11 11" version="1.1" xmlns="http://www.w3.org/2000/svg" xmlns:xlink="http://www.w3.org/1999/xlink">
    <!-- Generator: Sketch 52.4 (67378) - http://www.bohemiancoding.com/sketch -->
    <title>画板</title>
    <desc>Created with Sketch.</desc>
    <g id="画板" stroke="none" stroke-width="1" fill="none" fill-rule="evenodd">
        <g id="guanbi-5" fill="#D3E0FF">
            <path d="M0.306998059,10.6930019 C-0.102332686,10.2836712 -0.102332686,9.61774507 0.306998059,9.20841433 L4.01541239,5.5 L0.306998059,1.79158567 C-0.102332686,1.38225493 -0.102332686,0.716328805 0.306998059,0.306998059 C0.716328805,-0.102332686 1.38225493,-0.102332686 1.79158567,0.306998059 L5.5,4.01541239 L9.20841433,0.306998059 C9.61774507,-0.102332686 10.2836712,-0.102332686 10.6930019,0.306998059 C11.1023327,0.716328805 11.1023327,1.38225493 10.6930019,1.79158567 L6.98458761,5.5 L10.6930019,9.20841433 C11.1023327,9.61774507 11.1023327,10.2836712 10.6930019,10.6930019 C10.2836712,11.1023327 9.61774507,11.1023327 9.20841433,10.6930019 L5.5,6.98458761 L1.79158567,10.6930019 C1.38225493,11.1023327 0.716328805,11.1023327 0.306998059,10.6930019 Z" id="路径"></path>
        </g>
    </g>
</svg>