<?xml version="1.0" encoding="UTF-8"?>
<svg width="18px" height="18px" viewBox="0 0 18 18" version="1.1" xmlns="http://www.w3.org/2000/svg" xmlns:xlink="http://www.w3.org/1999/xlink">
    <!-- Generator: Sketch 52.4 (67378) - http://www.bohemiancoding.com/sketch -->
    <title>画板</title>
    <desc>Created with Sketch.</desc>
    <g id="画板" stroke="none" stroke-width="1" fill="none" fill-rule="evenodd">
        <g id="anhangxianfeihang" transform="translate(0.000000, 2.000000)" fill="#98ADFA" fill-rule="nonzero">
            <path d="M4.98082013,16 C4.62225391,15.0710637 4.41735892,14.1910187 4.00756894,13.4087565 C3.08554149,11.8931235 2.06106657,10.426382 1.08781538,8.95964037 C0.473130415,8.03070403 -0.0903307917,7.10176769 0.012116703,5.92837442 C0.165787931,4.16828451 1.5488291,2.45708598 3.34166024,1.91928074 C5.23693885,1.33258409 7.33711248,1.87038936 8.56648239,3.23934817 C10.051971,4.90165531 10.2056423,6.66174521 9.07871986,8.5196179 C8.61770615,9.25298869 8.10546868,9.98635948 7.5932312,10.6708389 C6.51753252,12.3820374 5.54428134,14.0932359 4.98082013,16 Z M6.54545455,5.87080393 C6.54545455,4.91625319 5.81327074,4.1626605 4.88583792,4.21290002 C3.9584051,4.21290002 3.2262213,4.96649271 3.27503354,5.92104346 C3.27503354,6.87559421 4.00721735,7.5789474 4.93465019,7.57894737 C5.81327077,7.57894737 6.54545457,6.82535468 6.54545455,5.87080393 Z M15.5730372,7.57894737 C15.418317,7.11013589 15.3151702,6.64132438 15.0573031,6.22460308 C14.5931424,5.44325061 14.0774082,4.66189813 13.6132475,3.88054566 C13.303807,3.41173418 13.04594,2.89083252 13.0975134,2.26575052 C13.1490868,1.32812754 13.8711146,0.442594729 14.7478626,0.130053762 C15.6761841,-0.182487234 16.7592257,0.0779636104 17.3781067,0.807225905 C18.1001345,1.69275871 18.2032813,2.6303817 17.6359738,3.62009481 C17.4296801,4.03681614 17.1718131,4.40144729 16.913946,4.76607846 C16.3466384,5.59952112 15.8824777,6.53714408 15.5730372,7.57894737 Z M16.3636364,2.52631579 C16.3636364,2.08049536 16.026738,1.68421053 15.5454545,1.68421053 C15.1122995,1.68421053 14.7272727,2.08049536 14.7272727,2.52631579 C14.7272727,2.97213622 15.0641711,3.36842105 15.5454545,3.36842105 C15.9786096,3.36842105 16.3636364,2.97213622 16.3636364,2.52631579 Z M5.72727273,15.9498747 C5.98386758,14.9974937 6.29178141,14.0952381 6.54837629,13.1428571 C6.65101424,12.79198 6.80497114,12.79198 7.11288498,12.79198 C8.70377313,12.79198 10.2946612,12.8421053 11.9368684,12.79198 C12.2447822,12.79198 12.552696,12.6917293 12.8606099,12.5914787 C13.6303944,12.2907268 13.7330324,11.6390978 13.1172047,11.0877193 C12.8092909,10.8370928 12.4500581,10.6365915 12.1421442,10.4360902 C11.6802735,10.085213 11.0644458,9.78446115 11.1670838,9.13283209 C11.2697217,8.43107769 11.8342304,8.03007521 12.5013771,7.92982458 C13.3737996,7.72932332 14.3488601,7.67919802 15.2212826,7.57894737 C15.2212826,7.62907267 15.2212826,7.7293233 15.2726015,7.77944862 C14.8107308,7.82957392 14.2975411,7.87969925 13.8356703,7.97994988 C13.4764375,8.03007518 13.1172047,8.13032581 12.8092909,8.28070176 C12.2447822,8.53132832 12.1934632,9.03258146 12.706653,9.38345864 C13.0145668,9.6340852 13.4251186,9.78446115 13.7330324,9.98496241 C14.3488601,10.3358396 15.0160067,10.6867168 15.5805154,11.1378446 C16.6068948,11.9899749 16.6068948,13.2431078 15.6831533,14.1954887 C14.7080929,15.197995 13.4251185,15.7493734 12.0395063,15.7994987 C10.0380664,15.9498747 8.03662649,15.9498747 6.03518656,16 C5.88122966,15.9498747 5.82991067,15.9498747 5.72727273,15.9498747 Z" id="形状"></path>
        </g>
    </g>
</svg>