<?xml version="1.0" encoding="UTF-8"?>
<svg width="283px" height="55px" viewBox="0 0 283 55" version="1.1" xmlns="http://www.w3.org/2000/svg" xmlns:xlink="http://www.w3.org/1999/xlink">
    <!-- Generator: Sketch 52.4 (67378) - http://www.bohemiancoding.com/sketch -->
    <title>画板</title>
    <desc>Created with Sketch.</desc>
    <g id="画板" stroke="none" stroke-width="1" fill="none" fill-rule="evenodd">
        <g id="Fii_Logo_Secondary_Bilingual_CMYK" transform="translate(1.000000, 7.000000)" fill="#FFFFFF">
            <g id="分组">
                <path d="M66.85,0.434482759 L65.26875,5.64827586 C64.8375,7.24137931 63.25625,8.4 61.675,8.4 L52.1875,8.4 L53.76875,3.1862069 C54.2,1.59310345 55.78125,0.434482759 57.3625,0.434482759 C62.25,0.434482759 66.85,0.434482759 66.85,0.434482759 Z" id="路径"></path>
                <path d="M49.6,10.2827586 L48.01875,15.4965517 C47.5875,17.0896552 46.00625,18.1034483 44.425,18.1034483 L34.9375,18.1034483 L36.51875,12.8896552 C36.95,11.2965517 38.53125,10.137931 40.1125,10.137931 C43.70625,10.2827586 49.6,10.4275862 49.6,10.2827586 Z" id="路径"></path>
                <path d="M33.06875,19.9862069 L31.4875,25.2 C31.05625,26.7931034 29.475,27.8068966 27.89375,27.8068966 L18.40625,27.8068966 L19.9875,22.5931034 C20.41875,21 22,19.8413793 23.58125,19.8413793 C27.175,19.9862069 33.06875,19.9862069 33.06875,19.9862069 Z" id="路径"></path>
                <polygon id="路径" points="63.4 10.4275862 54.34375 41.4206897 42.4125 41.4206897 51.6125 10.4275862"></polygon>
                <polygon id="路径" points="46.29375 19.9862069 40.1125 41.4206897 28.18125 41.4206897 34.65 19.9862069"></polygon>
                <path d="M52.475,0.434482759 L50.175,8.4 L30.625,8.4 C25.88125,8.4 21.7125,11.4413793 20.13125,15.9310345 L11.65,41.4206897 L0.15,41.4206897 L8.775,15.062069 C11.65,6.22758621 19.7,0.434482759 28.9,0.434482759 C40.4,0.434482759 52.475,0.434482759 52.475,0.434482759 Z" id="路径"></path>
            </g>
            <g id="分组" transform="translate(77.000000, 0.000000)">
                <polygon id="路径" points="0.431654676 0.433333333 8.63309353 0.433333333 8.63309353 2.45555556 2.87769784 2.45555556 2.87769784 5.05555556 7.91366906 5.05555556 7.91366906 7.07777778 2.87769784 7.07777778 2.87769784 11.8444444 0.431654676 11.8444444"></polygon>
                <path d="M16.6906475,10.9777778 C15.971223,11.8444444 14.8201439,12.2777778 13.381295,12.2777778 C11.942446,12.2777778 10.7913669,11.8444444 10.0719424,10.9777778 C9.35251799,10.1111111 9.0647482,8.95555556 9.0647482,7.8 C9.0647482,6.64444444 9.35251799,5.48888889 10.0719424,4.62222222 C10.7913669,3.75555556 11.942446,3.32222222 13.381295,3.32222222 C14.8201439,3.32222222 15.971223,3.75555556 16.6906475,4.62222222 C17.4100719,5.48888889 17.6978417,6.64444444 17.6978417,7.8 C17.8417266,8.95555556 17.4100719,9.96666667 16.6906475,10.9777778 Z M14.9640288,9.67777778 C15.2517986,9.24444444 15.5395683,8.52222222 15.5395683,7.65555556 C15.5395683,6.78888889 15.3956835,6.21111111 14.9640288,5.63333333 C14.676259,5.2 14.1007194,4.91111111 13.5251799,4.91111111 C12.8057554,4.91111111 12.3741007,5.2 12.0863309,5.63333333 C11.7985612,6.06666667 11.5107914,6.78888889 11.5107914,7.65555556 C11.5107914,8.52222222 11.6546763,9.1 12.0863309,9.67777778 C12.3741007,10.1111111 12.9496403,10.4 13.5251799,10.4 C14.1007194,10.4 14.676259,10.1111111 14.9640288,9.67777778 Z" id="形状" fill-rule="nonzero"></path>
                <polygon id="路径" points="18.1294964 11.9888889 21.0071942 7.65555556 18.2733813 3.46666667 21.0071942 3.46666667 22.4460432 5.92222222 23.8848921 3.46666667 26.4748201 3.46666667 23.7410072 7.65555556 26.618705 11.9888889 23.8848921 11.9888889 22.4460432 9.38888889 21.0071942 11.9888889"></polygon>
                <path d="M32.3741007,6.5 C32.3741007,6.21111111 32.2302158,5.92222222 32.0863309,5.63333333 C31.7985612,5.34444444 31.5107914,5.05555556 30.9352518,5.05555556 C30.2158273,5.05555556 29.6402878,5.48888889 29.352518,6.21111111 C29.2086331,6.64444444 29.0647482,7.07777778 29.0647482,7.8 C29.0647482,8.37777778 29.0647482,8.95555556 29.352518,9.24444444 C29.6402878,9.96666667 30.0719424,10.2555556 30.7913669,10.2555556 C31.3669065,10.2555556 31.6546763,10.1111111 31.942446,9.82222222 C32.2302158,9.53333333 32.2302158,9.24444444 32.3741007,8.66666667 L34.676259,8.66666667 C34.676259,9.38888889 34.3884892,9.96666667 33.9568345,10.5444444 C33.2374101,11.5555556 32.2302158,11.9888889 30.9352518,11.9888889 C29.6402878,11.9888889 28.6330935,11.5555556 27.9136691,10.8333333 C27.3381295,9.96666667 26.9064748,8.95555556 26.9064748,7.65555556 C26.9064748,6.21111111 27.1942446,5.05555556 27.9136691,4.18888889 C28.6330935,3.32222222 29.6402878,3.03333333 30.7913669,3.03333333 C31.7985612,3.03333333 32.6618705,3.32222222 33.381295,3.75555556 C34.1007194,4.18888889 34.3884892,5.05555556 34.5323741,6.35555556 L32.3741007,6.35555556 L32.3741007,6.5 Z" id="路径"></path>
                <path d="M43.1654676,10.9777778 C42.4460432,11.8444444 41.294964,12.2777778 39.8561151,12.2777778 C38.4172662,12.2777778 37.2661871,11.8444444 36.5467626,10.9777778 C35.8273381,10.1111111 35.5395683,8.95555556 35.5395683,7.8 C35.5395683,6.64444444 35.8273381,5.48888889 36.5467626,4.62222222 C37.2661871,3.75555556 38.4172662,3.32222222 39.8561151,3.32222222 C41.294964,3.32222222 42.4460432,3.75555556 43.1654676,4.62222222 C43.8848921,5.48888889 44.1726619,6.64444444 44.1726619,7.8 C44.1726619,8.95555556 43.8848921,9.96666667 43.1654676,10.9777778 Z M41.294964,9.67777778 C41.5827338,9.24444444 41.8705036,8.52222222 41.8705036,7.65555556 C41.8705036,6.78888889 41.7266187,6.21111111 41.294964,5.63333333 C41.0071942,5.2 40.4316547,4.91111111 39.8561151,4.91111111 C39.1366906,4.91111111 38.705036,5.2 38.4172662,5.63333333 C38.1294964,6.06666667 37.8417266,6.78888889 37.8417266,7.65555556 C37.8417266,8.52222222 37.9856115,9.1 38.4172662,9.67777778 C38.705036,10.1111111 39.2805755,10.4 39.8561151,10.4 C40.4316547,10.4 41.0071942,10.1111111 41.294964,9.67777778 Z" id="形状" fill-rule="nonzero"></path>
                <path d="M52.5179856,3.9 C53.0935252,4.33333333 53.381295,5.05555556 53.381295,6.21111111 L53.381295,11.9888889 L51.0791367,11.9888889 L51.0791367,6.78888889 C51.0791367,6.35555556 51.0791367,6.06666667 50.9352518,5.77777778 C50.7913669,5.34444444 50.3597122,5.05555556 49.6402878,5.05555556 C48.9208633,5.05555556 48.3453237,5.34444444 48.057554,6.06666667 C47.9136691,6.35555556 47.7697842,6.78888889 47.7697842,7.36666667 L47.7697842,11.9888889 L45.6115108,11.9888889 L45.6115108,3.46666667 L47.7697842,3.46666667 L47.7697842,4.76666667 C48.057554,4.33333333 48.3453237,4.04444444 48.6330935,3.75555556 C49.0647482,3.46666667 49.6402878,3.17777778 50.3597122,3.17777778 C51.2230216,3.17777778 51.942446,3.46666667 52.5179856,3.9 Z" id="路径"></path>
                <path d="M62.0143885,3.9 C62.5899281,4.33333333 62.8776978,5.05555556 62.8776978,6.21111111 L62.8776978,11.9888889 L60.5755396,11.9888889 L60.5755396,6.78888889 C60.5755396,6.35555556 60.5755396,6.06666667 60.4316547,5.77777778 C60.2877698,5.34444444 59.8561151,5.05555556 59.1366906,5.05555556 C58.4172662,5.05555556 57.8417266,5.34444444 57.5539568,6.06666667 C57.4100719,6.35555556 57.2661871,6.78888889 57.2661871,7.36666667 L57.2661871,11.9888889 L55.1079137,11.9888889 L55.1079137,3.46666667 L57.2661871,3.46666667 L57.2661871,4.76666667 C57.5539568,4.33333333 57.8417266,4.04444444 58.1294964,3.75555556 C58.5611511,3.46666667 59.1366906,3.17777778 59.8561151,3.17777778 C60.7194245,3.17777778 61.4388489,3.46666667 62.0143885,3.9 Z" id="路径"></path>
                <polygon id="路径" points="71.3669065 11.9888889 68.9208633 11.9888889 68.9208633 0.433333333 71.3669065 0.433333333"></polygon>
                <path d="M80.1438849,3.9 C80.7194245,4.33333333 81.0071942,5.05555556 81.0071942,6.21111111 L81.0071942,11.9888889 L78.705036,11.9888889 L78.705036,6.78888889 C78.705036,6.35555556 78.705036,6.06666667 78.5611511,5.77777778 C78.4172662,5.34444444 77.9856115,5.05555556 77.2661871,5.05555556 C76.5467626,5.05555556 75.971223,5.34444444 75.6834532,6.06666667 C75.5395683,6.35555556 75.3956835,6.78888889 75.3956835,7.36666667 L75.3956835,11.9888889 L73.381295,11.9888889 L73.381295,3.46666667 L75.5395683,3.46666667 L75.5395683,4.76666667 C75.8273381,4.33333333 76.1151079,4.04444444 76.4028777,3.75555556 C76.8345324,3.46666667 77.4100719,3.17777778 78.1294964,3.17777778 C78.8489209,3.17777778 79.5683453,3.46666667 80.1438849,3.9 Z" id="路径"></path>
                <path d="M87.4820144,3.61111111 C87.9136691,3.9 88.2014388,4.18888889 88.4892086,4.62222222 L88.4892086,0.577777778 L90.7913669,0.577777778 L90.7913669,12.1333333 L88.6330935,12.1333333 L88.6330935,10.9777778 C88.3453237,11.4111111 87.9136691,11.8444444 87.4820144,12.1333333 C87.0503597,12.4222222 86.618705,12.4222222 86.0431655,12.4222222 C85.0359712,12.4222222 84.1726619,11.9888889 83.5971223,11.2666667 C82.8776978,10.4 82.5899281,9.38888889 82.5899281,8.23333333 C82.5899281,6.78888889 82.8776978,5.63333333 83.5971223,4.76666667 C84.3165468,3.9 85.1798561,3.46666667 86.3309353,3.46666667 C86.618705,3.17777778 87.0503597,3.32222222 87.4820144,3.61111111 Z M88.057554,9.67777778 C88.3453237,9.24444444 88.4892086,8.66666667 88.4892086,7.8 C88.4892086,6.78888889 88.2014388,6.06666667 87.7697842,5.63333333 C87.4820144,5.34444444 87.0503597,5.2 86.618705,5.2 C85.8992806,5.2 85.4676259,5.48888889 85.1798561,5.92222222 C84.8920863,6.35555556 84.7482014,7.07777778 84.7482014,7.8 C84.7482014,8.52222222 84.8920863,9.24444444 85.1798561,9.67777778 C85.4676259,10.1111111 85.8992806,10.4 86.618705,10.4 C87.3381295,10.4 87.6258993,10.1111111 88.057554,9.67777778 Z" id="形状" fill-rule="nonzero"></path>
                <path d="M94.8201439,3.46666667 L94.8201439,8.52222222 C94.8201439,8.95555556 94.8201439,9.38888889 94.9640288,9.67777778 C95.1079137,10.1111111 95.5395683,10.2555556 96.1151079,10.2555556 C96.8345324,10.2555556 97.4100719,9.96666667 97.6978417,9.38888889 C97.8417266,9.1 97.9856115,8.66666667 97.9856115,8.08888889 L97.9856115,3.46666667 L100.28777,3.46666667 L100.28777,11.9888889 L98.1294964,11.9888889 L98.1294964,10.8333333 C98.1294964,10.8333333 98.1294964,10.9777778 97.9856115,11.1222222 C97.8417266,11.2666667 97.8417266,11.4111111 97.6978417,11.4111111 C97.4100719,11.7 96.9784173,11.9888889 96.6906475,11.9888889 C96.4028777,11.9888889 95.971223,12.1333333 95.5395683,12.1333333 C94.2446043,12.1333333 93.381295,11.7 92.9496403,10.8333333 C92.6618705,10.4 92.5179856,9.53333333 92.5179856,8.66666667 L92.5179856,3.61111111 L94.8201439,3.61111111 L94.8201439,3.46666667 Z" id="路径"></path>
                <path d="M103.741007,9.24444444 C103.741007,9.67777778 103.884892,9.96666667 104.028777,10.1111111 C104.316547,10.4 104.748201,10.5444444 105.611511,10.5444444 C106.043165,10.5444444 106.330935,10.5444444 106.618705,10.4 C106.906475,10.2555556 107.05036,10.1111111 107.05036,9.82222222 C107.05036,9.53333333 106.906475,9.38888889 106.76259,9.24444444 C106.618705,9.1 105.755396,8.95555556 104.460432,8.52222222 C103.453237,8.23333333 102.877698,7.94444444 102.446043,7.65555556 C102.014388,7.36666667 101.870504,6.78888889 101.870504,6.06666667 C101.870504,5.34444444 102.158273,4.62222222 102.733813,4.04444444 C103.309353,3.46666667 104.172662,3.17777778 105.323741,3.17777778 C106.330935,3.17777778 107.194245,3.32222222 107.913669,3.75555556 C108.633094,4.18888889 108.920863,4.91111111 109.064748,5.92222222 L106.906475,5.92222222 C106.906475,5.63333333 106.76259,5.34444444 106.618705,5.2 C106.330935,4.91111111 105.899281,4.76666667 105.323741,4.76666667 C104.892086,4.76666667 104.460432,4.91111111 104.316547,5.05555556 C104.172662,5.2 104.028777,5.34444444 104.028777,5.63333333 C104.028777,5.92222222 104.172662,6.06666667 104.316547,6.21111111 C104.604317,6.35555556 105.323741,6.5 106.618705,6.78888889 C107.482014,6.93333333 108.201439,7.36666667 108.633094,7.8 C109.064748,8.23333333 109.352518,8.81111111 109.352518,9.38888889 C109.352518,10.2555556 109.064748,10.9777778 108.345324,11.4111111 C107.625899,11.8444444 106.76259,12.2777778 105.467626,12.2777778 C104.172662,12.2777778 103.165468,11.9888889 102.446043,11.4111111 C101.870504,10.8333333 101.438849,10.1111111 101.438849,9.24444444 L103.741007,9.24444444 Z" id="路径"></path>
                <path d="M109.928058,5.05555556 L109.928058,3.46666667 L111.079137,3.46666667 L111.079137,1.15555556 L113.23741,1.15555556 L113.23741,3.46666667 L114.676259,3.46666667 L114.676259,5.05555556 L113.23741,5.05555556 L113.23741,9.53333333 C113.23741,9.82222222 113.23741,10.1111111 113.381295,10.2555556 C113.52518,10.4 113.669065,10.4 114.244604,10.4 C114.244604,10.4 114.388489,10.4 114.388489,10.4 C114.532374,10.4 114.532374,10.4 114.676259,10.4 L114.676259,12.1333333 L113.669065,12.1333333 C112.661871,12.1333333 111.942446,11.9888889 111.510791,11.5555556 C111.223022,11.2666667 111.079137,10.9777778 111.079137,10.4 L111.079137,5.2 L109.928058,5.2 L109.928058,5.05555556 Z" id="路径"></path>
                <path d="M120.719424,3.17777778 C120.719424,3.17777778 120.863309,3.17777778 120.863309,3.17777778 L120.863309,5.48888889 C120.719424,5.48888889 120.57554,5.48888889 120.431655,5.48888889 C120.28777,5.48888889 120.28777,5.48888889 120.143885,5.48888889 C119.280576,5.48888889 118.705036,5.77777778 118.417266,6.35555556 C118.273381,6.64444444 118.129496,7.22222222 118.129496,7.8 L118.129496,11.8444444 L115.827338,11.8444444 L115.827338,3.32222222 L117.985612,3.32222222 L117.985612,4.76666667 C118.273381,4.18888889 118.561151,3.75555556 118.848921,3.61111111 C119.42446,3.46666667 120,3.17777778 120.719424,3.17777778 C120.719424,3.17777778 120.719424,3.17777778 120.719424,3.17777778 Z" id="路径"></path>
                <path d="M124.316547,2.45555556 L122.014388,2.45555556 L122.014388,0.433333333 L124.316547,0.433333333 L124.316547,2.45555556 Z M122.014388,3.46666667 L124.316547,3.46666667 L124.316547,11.9888889 L122.014388,11.9888889 L122.014388,3.46666667 Z" id="形状" fill-rule="nonzero"></path>
                <path d="M129.640288,6.78888889 C130.071942,6.78888889 130.359712,6.64444444 130.503597,6.64444444 C130.791367,6.5 130.935252,6.35555556 130.935252,6.06666667 C130.935252,5.77777778 130.791367,5.48888889 130.503597,5.34444444 C130.215827,5.2 129.928058,5.2 129.496403,5.2 C128.920863,5.2 128.633094,5.34444444 128.345324,5.63333333 C128.201439,5.77777778 128.057554,6.06666667 128.057554,6.35555556 L125.899281,6.35555556 C125.899281,5.63333333 126.18705,5.05555556 126.47482,4.47777778 C127.05036,3.75555556 128.057554,3.32222222 129.496403,3.32222222 C130.359712,3.32222222 131.223022,3.46666667 131.942446,3.9 C132.661871,4.33333333 133.093525,4.91111111 133.093525,5.92222222 L133.093525,9.82222222 C133.093525,10.1111111 133.093525,10.4 133.093525,10.8333333 C133.093525,11.1222222 133.093525,11.2666667 133.23741,11.4111111 C133.381295,11.5555556 133.381295,11.5555556 133.52518,11.7 L133.52518,11.9888889 L131.079137,11.9888889 C131.079137,11.8444444 130.935252,11.7 130.935252,11.5555556 C130.935252,11.4111111 130.935252,11.2666667 130.935252,10.9777778 C130.647482,11.2666667 130.215827,11.5555556 129.928058,11.8444444 C129.496403,12.1333333 128.920863,12.2777778 128.345324,12.2777778 C127.625899,12.2777778 126.906475,11.9888889 126.47482,11.5555556 C126.043165,11.1222222 125.755396,10.5444444 125.755396,9.67777778 C125.755396,8.66666667 126.18705,7.94444444 126.906475,7.36666667 C127.338129,7.07777778 128.057554,6.93333333 128.920863,6.78888889 L129.640288,6.78888889 Z M131.079137,7.8 C130.935252,7.94444444 130.791367,7.94444444 130.647482,7.94444444 C130.503597,7.94444444 130.359712,8.08888889 130.071942,8.08888889 L129.496403,8.23333333 C129.064748,8.37777778 128.633094,8.37777778 128.489209,8.52222222 C128.201439,8.66666667 127.913669,9.1 127.913669,9.53333333 C127.913669,9.96666667 128.057554,10.2555556 128.201439,10.4 C128.345324,10.5444444 128.633094,10.6888889 128.920863,10.6888889 C129.352518,10.6888889 129.784173,10.5444444 130.215827,10.2555556 C130.647482,9.96666667 130.791367,9.53333333 130.791367,8.66666667 L130.791367,7.8 L131.079137,7.8 Z" id="形状" fill-rule="nonzero"></path>
                <polygon id="路径" points="137.266187 11.9888889 135.107914 11.9888889 135.107914 0.433333333 137.266187 0.433333333"></polygon>
                <polygon id="路径" points="145.899281 11.9888889 143.453237 11.9888889 143.453237 0.433333333 145.899281 0.433333333"></polygon>
                <path d="M154.820144,3.9 C155.395683,4.33333333 155.683453,5.05555556 155.683453,6.21111111 L155.683453,11.9888889 L153.381295,11.9888889 L153.381295,6.78888889 C153.381295,6.35555556 153.381295,6.06666667 153.23741,5.77777778 C153.093525,5.34444444 152.661871,5.05555556 151.942446,5.05555556 C151.223022,5.05555556 150.647482,5.34444444 150.359712,6.06666667 C150.215827,6.35555556 150.071942,6.78888889 150.071942,7.36666667 L150.071942,11.9888889 L147.913669,11.9888889 L147.913669,3.46666667 L150.071942,3.46666667 L150.071942,4.76666667 C150.359712,4.33333333 150.647482,4.04444444 150.935252,3.75555556 C151.366906,3.46666667 151.942446,3.17777778 152.661871,3.17777778 C153.52518,3.17777778 154.244604,3.46666667 154.820144,3.9 Z" id="路径"></path>
                <path d="M156.546763,5.05555556 L156.546763,3.46666667 L157.697842,3.46666667 L157.697842,1.15555556 L159.856115,1.15555556 L159.856115,3.46666667 L161.294964,3.46666667 L161.294964,5.05555556 L159.856115,5.05555556 L159.856115,9.53333333 C159.856115,9.82222222 159.856115,10.1111111 160,10.2555556 C160.143885,10.4 160.28777,10.4 160.863309,10.4 C160.863309,10.4 161.007194,10.4 161.007194,10.4 C161.151079,10.4 161.151079,10.4 161.294964,10.4 L161.294964,12.1333333 L160.28777,12.1333333 C159.280576,12.1333333 158.561151,11.9888889 158.129496,11.5555556 C157.841727,11.2666667 157.697842,10.9777778 157.697842,10.4 L157.697842,5.2 L156.546763,5.2 L156.546763,5.05555556 Z" id="路径"></path>
                <path d="M168.057554,3.61111111 C168.633094,3.9 169.208633,4.33333333 169.496403,4.91111111 C169.784173,5.34444444 170.071942,6.06666667 170.215827,6.64444444 C170.215827,7.07777778 170.359712,7.65555556 170.359712,8.37777778 L164.172662,8.37777778 C164.172662,9.24444444 164.460432,9.82222222 165.035971,10.1111111 C165.323741,10.2555556 165.755396,10.4 166.18705,10.4 C166.76259,10.4 167.05036,10.2555556 167.482014,9.96666667 C167.625899,9.82222222 167.769784,9.67777778 167.913669,9.38888889 L170.215827,9.38888889 C170.215827,9.82222222 169.928058,10.4 169.352518,10.9777778 C168.633094,11.8444444 167.482014,12.2777778 166.18705,12.2777778 C165.035971,12.2777778 164.028777,11.9888889 163.165468,11.2666667 C162.302158,10.5444444 161.870504,9.38888889 161.870504,7.8 C161.870504,6.35555556 162.302158,5.2 163.021583,4.47777778 C163.741007,3.75555556 164.748201,3.32222222 166.043165,3.32222222 C166.906475,3.17777778 167.482014,3.32222222 168.057554,3.61111111 Z M164.748201,5.48888889 C164.460432,5.77777778 164.172662,6.21111111 164.172662,6.78888889 L168.057554,6.78888889 C168.057554,6.21111111 167.769784,5.77777778 167.482014,5.48888889 C167.194245,5.2 166.76259,5.05555556 166.18705,5.05555556 C165.611511,5.05555556 165.179856,5.2 164.748201,5.48888889 Z" id="形状" fill-rule="nonzero"></path>
                <path d="M176.258993,3.17777778 C176.258993,3.17777778 176.402878,3.17777778 176.402878,3.17777778 L176.402878,5.48888889 C176.258993,5.48888889 176.115108,5.48888889 175.971223,5.48888889 C175.827338,5.48888889 175.827338,5.48888889 175.683453,5.48888889 C174.820144,5.48888889 174.244604,5.77777778 173.956835,6.35555556 C173.81295,6.64444444 173.669065,7.22222222 173.669065,7.8 L173.669065,11.8444444 L171.366906,11.8444444 L171.366906,3.32222222 L173.52518,3.32222222 L173.52518,4.76666667 C173.81295,4.18888889 174.100719,3.75555556 174.388489,3.61111111 C174.964029,3.46666667 175.539568,3.17777778 176.258993,3.17777778 C176.258993,3.17777778 176.258993,3.17777778 176.258993,3.17777778 Z" id="路径"></path>
                <path d="M184.316547,3.9 C184.892086,4.33333333 185.179856,5.05555556 185.179856,6.21111111 L185.179856,11.9888889 L182.877698,11.9888889 L182.877698,6.78888889 C182.877698,6.35555556 182.877698,6.06666667 182.733813,5.77777778 C182.589928,5.34444444 182.158273,5.05555556 181.438849,5.05555556 C180.719424,5.05555556 180.143885,5.34444444 179.856115,6.06666667 C179.71223,6.35555556 179.568345,6.78888889 179.568345,7.36666667 L179.568345,11.9888889 L177.410072,11.9888889 L177.410072,3.46666667 L179.568345,3.46666667 L179.568345,4.76666667 C179.856115,4.33333333 180.143885,4.04444444 180.431655,3.75555556 C180.863309,3.46666667 181.438849,3.17777778 182.158273,3.17777778 C183.021583,3.17777778 183.741007,3.46666667 184.316547,3.9 Z" id="路径"></path>
                <path d="M192.661871,3.61111111 C193.23741,3.9 193.81295,4.33333333 194.100719,4.91111111 C194.388489,5.34444444 194.676259,6.06666667 194.820144,6.64444444 C194.820144,7.07777778 194.964029,7.65555556 194.964029,8.37777778 L188.776978,8.37777778 C188.776978,9.24444444 189.064748,9.82222222 189.640288,10.1111111 C189.928058,10.2555556 190.359712,10.4 190.791367,10.4 C191.366906,10.4 191.654676,10.2555556 192.086331,9.96666667 C192.230216,9.82222222 192.374101,9.67777778 192.517986,9.38888889 L194.820144,9.38888889 C194.820144,9.82222222 194.532374,10.4 193.956835,10.9777778 C193.23741,11.8444444 192.086331,12.2777778 190.791367,12.2777778 C189.640288,12.2777778 188.633094,11.9888889 187.769784,11.2666667 C186.906475,10.5444444 186.47482,9.38888889 186.47482,7.8 C186.47482,6.35555556 186.906475,5.2 187.625899,4.47777778 C188.345324,3.75555556 189.352518,3.32222222 190.647482,3.32222222 C191.510791,3.17777778 192.086331,3.32222222 192.661871,3.61111111 Z M189.352518,5.48888889 C189.064748,5.77777778 188.776978,6.21111111 188.776978,6.78888889 L192.661871,6.78888889 C192.661871,6.21111111 192.374101,5.77777778 192.086331,5.48888889 C191.798561,5.2 191.366906,5.05555556 190.791367,5.05555556 C190.071942,5.05555556 189.640288,5.2 189.352518,5.48888889 Z" id="形状" fill-rule="nonzero"></path>
                <path d="M195.251799,5.05555556 L195.251799,3.46666667 L196.402878,3.46666667 L196.402878,1.15555556 L198.561151,1.15555556 L198.561151,3.46666667 L200,3.46666667 L200,5.05555556 L198.561151,5.05555556 L198.561151,9.53333333 C198.561151,9.82222222 198.561151,10.1111111 198.705036,10.2555556 C198.848921,10.4 198.992806,10.4 199.568345,10.4 C199.568345,10.4 199.71223,10.4 199.71223,10.4 C199.856115,10.4 199.856115,10.4 200,10.4 L200,12.1333333 L198.992806,12.1333333 C197.985612,12.1333333 197.266187,11.9888889 196.834532,11.5555556 C196.546763,11.2666667 196.402878,10.9777778 196.402878,10.4 L196.402878,5.2 L195.251799,5.2 L195.251799,5.05555556 Z" id="路径"></path>
            </g>
            <g id="分组" transform="translate(77.000000, 17.000000)">
                <path d="M21.8705036,2.32222222 L21.8705036,8.24444444 L18.2733813,8.24444444 L18.2733813,5.35555556 L3.88489209,5.35555556 L3.88489209,8.24444444 L0.431654676,8.24444444 L0.431654676,2.32222222 L9.0647482,2.32222222 C8.92086331,1.88888889 8.77697842,1.45555556 8.63309353,1.02222222 L12.5179856,0.3 C12.8057554,0.877777778 13.0935252,1.6 13.2374101,2.32222222 L21.8705036,2.32222222 Z M1.58273381,15.0333333 L20.8633094,15.0333333 L20.8633094,24.4222222 L17.2661871,24.4222222 L17.2661871,23.8444444 L5.03597122,23.8444444 L5.03597122,24.4222222 L1.58273381,24.4222222 L1.58273381,15.0333333 Z M3.45323741,8.96666667 L18.705036,8.96666667 L18.705036,14.3111111 L3.45323741,14.3111111 L3.45323741,8.96666667 Z M17.6978417,6.07777778 L17.6978417,8.38888889 L4.46043165,8.38888889 L4.46043165,6.07777778 L17.6978417,6.07777778 Z M4.89208633,17.4888889 L4.89208633,18.2111111 L9.20863309,18.2111111 L9.20863309,17.4888889 L4.89208633,17.4888889 Z M9.35251799,21.2444444 L9.35251799,20.5222222 L5.03597122,20.5222222 L5.03597122,21.2444444 L9.35251799,21.2444444 Z M6.76258993,12.1444444 L15.2517986,12.1444444 L15.2517986,11.2777778 L6.76258993,11.2777778 L6.76258993,12.1444444 Z M17.2661871,17.4888889 L12.8057554,17.4888889 L12.8057554,18.2111111 L17.2661871,18.2111111 L17.2661871,17.4888889 Z M17.2661871,21.2444444 L17.2661871,20.5222222 L12.8057554,20.5222222 L12.8057554,21.2444444 L17.2661871,21.2444444 Z" id="形状" fill-rule="nonzero"></path>
                <polygon id="路径" points="38.5611511 11.5666667 38.5611511 19.8 46.7625899 19.8 46.7625899 23.4111111 26.7625899 23.4111111 26.7625899 19.8 34.676259 19.8 34.676259 11.5666667 25.323741 11.5666667 25.323741 7.95555556 34.676259 7.95555556 34.676259 0.733333333 38.5611511 0.733333333 38.5611511 7.95555556 48.057554 7.95555556 48.057554 11.5666667"></polygon>
                <path d="M72.8057554,17.0555556 C71.6546763,17.7777778 70.5035971,18.5 69.352518,18.9333333 C70.647482,19.6555556 72.0863309,20.2333333 73.6690647,20.5222222 C72.9496403,21.2444444 72.0863309,22.5444444 71.6546763,23.4111111 C69.2086331,22.6888889 67.3381295,21.5333333 65.7553957,19.8 L65.7553957,21.1 C65.7553957,22.8333333 65.323741,23.4111111 64.3165468,23.9888889 C63.1654676,24.4222222 61.7266187,24.4222222 59.5683453,24.4222222 C59.4244604,23.5555556 58.9928058,22.5444444 58.5611511,21.6777778 C57.6978417,22.1111111 56.8345324,22.4 55.971223,22.8333333 L54.676259,19.9444444 C55.6834532,19.6555556 57.1223022,19.0777778 58.5611511,18.5 C57.6978417,17.9222222 56.5467626,17.2 55.5395683,16.6222222 L56.8345324,15.1777778 L56.4028777,15.1777778 L56.4028777,12.8666667 L61.8705036,12.8666667 L61.8705036,12 L56.1151079,12 L56.1151079,9.54444444 L62.3021583,9.54444444 L62.3021583,8.96666667 L57.1223022,8.96666667 L57.1223022,6.65555556 L62.3021583,6.65555556 L62.3021583,5.78888889 L55.8273381,5.78888889 L55.8273381,9.83333333 C55.8273381,14.0222222 55.3956835,20.3777778 53.0935252,24.2777778 C52.5179856,23.7 50.9352518,22.6888889 50.2158273,22.2555556 C52.2302158,18.6444444 52.3741007,13.4444444 52.3741007,9.68888889 L52.3741007,2.61111111 L61.5827338,2.61111111 C61.4388489,2.17777778 61.1510791,1.74444444 61.0071942,1.45555556 L64.6043165,0.588888889 C65.0359712,1.16666667 65.323741,1.88888889 65.6115108,2.61111111 L73.381295,2.61111111 L73.381295,5.78888889 L65.7553957,5.78888889 L65.7553957,6.65555556 L71.6546763,6.65555556 L71.6546763,9.4 L73.6690647,9.4 L73.6690647,12.4333333 L71.6546763,12.4333333 L71.6546763,15.3222222 L70.5035971,15.3222222 L72.8057554,17.0555556 Z M58.5611511,15.1777778 C59.4244604,15.7555556 60.5755396,16.3333333 61.1510791,16.6222222 L59.8561151,18.0666667 L62.1582734,17.2 L62.1582734,15.0333333 L58.5611511,15.0333333 L58.5611511,15.1777778 Z M62.1582734,20.0888889 C61.1510791,20.6666667 60,21.1 58.9928058,21.5333333 C60,21.5333333 61.294964,21.5333333 61.5827338,21.5333333 C62.0143885,21.5333333 62.1582734,21.3888889 62.1582734,20.9555556 L62.1582734,20.0888889 Z M65.8992806,9.54444444 L68.3453237,9.54444444 L68.3453237,8.96666667 L65.8992806,8.96666667 L65.8992806,9.54444444 Z M65.8992806,12.7222222 L68.3453237,12.7222222 L68.3453237,12 L65.8992806,12 L65.8992806,12.7222222 Z M65.8992806,15.4666667 C66.3309353,16.0444444 66.7625899,16.6222222 67.1942446,17.2 C68.2014388,16.6222222 69.2086331,15.9 69.9280576,15.1777778 L65.8992806,15.1777778 L65.8992806,15.4666667 Z" id="形状" fill-rule="nonzero"></path>
                <polygon id="路径" points="98.9928058 19.0777778 98.9928058 22.6888889 76.2589928 22.6888889 76.2589928 19.0777778 85.4676259 19.0777778 85.4676259 6.94444444 77.6978417 6.94444444 77.6978417 3.18888889 97.5539568 3.18888889 97.5539568 6.94444444 89.4964029 6.94444444 89.4964029 19.0777778"></polygon>
                <path d="M124.172662,19.6555556 L124.172662,23.2666667 L101.726619,23.2666667 L101.726619,19.6555556 L107.913669,19.6555556 L107.913669,15.4666667 L104.748201,16.6222222 C104.316547,14.1666667 103.021583,9.97777778 102.014388,6.8 L105.323741,5.78888889 C106.18705,8.24444444 107.338129,11.4222222 107.913669,13.8777778 L107.913669,1.16666667 L111.654676,1.16666667 L111.654676,19.6555556 L114.388489,19.6555556 L114.388489,1.02222222 L118.129496,1.02222222 L118.129496,13.7333333 C119.136691,11.4222222 120.28777,8.38888889 121.007194,5.64444444 L124.316547,7.23333333 C123.165468,10.5555556 121.726619,14.1666667 120.57554,16.6222222 L118.273381,15.4666667 L118.273381,19.6555556 L124.172662,19.6555556 Z" id="路径"></path>
                <path d="M149.928058,20.3777778 L149.928058,23.8444444 L127.194245,23.8444444 L127.194245,20.3777778 L140.57554,20.3777778 C140.719424,19.5111111 140.863309,18.5 141.007194,17.6333333 L130.071942,17.6333333 C131.079137,14.3111111 132.374101,9.25555556 133.093525,5.06666667 L127.769784,5.06666667 L127.769784,1.6 L149.064748,1.6 L149.064748,5.06666667 L136.834532,5.06666667 C136.690647,5.93333333 136.402878,6.94444444 136.258993,7.81111111 L142.446043,7.81111111 L143.021583,7.66666667 L145.755396,7.95555556 C145.323741,11.7111111 144.604317,16.3333333 144.028777,20.3777778 L149.928058,20.3777778 Z M141.582734,14.3111111 C141.726619,13.1555556 141.870504,12.1444444 142.014388,11.2777778 L135.827338,11.2777778 C135.539568,12.2888889 135.395683,13.4444444 135.107914,14.3111111 L141.582734,14.3111111 Z" id="形状" fill-rule="nonzero"></path>
                <path d="M170.215827,15.3222222 C171.223022,18.0666667 173.093525,20.2333333 175.971223,21.3888889 C175.251799,22.1111111 174.100719,23.4111111 173.669065,24.4222222 C171.510791,23.4111111 169.928058,21.8222222 168.776978,19.8 C167.769784,21.5333333 166.330935,23.2666667 164.028777,24.8555556 C163.453237,24.1333333 162.446043,23.1222222 161.582734,22.4 L161.582734,24.4222222 L158.561151,24.4222222 L158.561151,20.3777778 L152.94964,21.3888889 L152.230216,18.0666667 L153.52518,17.9222222 L153.52518,4.92222222 L152.661871,4.92222222 L152.661871,1.74444444 L162.446043,1.74444444 L162.446043,4.77777778 L161.726619,4.77777778 L161.726619,16.4777778 L163.309353,16.1888889 L163.597122,19.2222222 L161.726619,19.5111111 L161.726619,21.8222222 C165.035971,19.9444444 166.330935,17.3444444 166.76259,15.0333333 L162.589928,15.0333333 L162.589928,12 L166.906475,12 L166.906475,9.11111111 L163.021583,9.11111111 L163.021583,5.93333333 L165.323741,5.93333333 C164.892086,4.92222222 164.028777,3.62222222 163.165468,2.61111111 L166.043165,1.31111111 C167.05036,2.32222222 168.057554,3.91111111 168.489209,4.92222222 L166.330935,6.07777778 L168.920863,6.07777778 C169.640288,4.77777778 170.359712,2.9 170.791367,1.45555556 L174.388489,2.32222222 C173.669065,3.62222222 173.093525,5.06666667 172.374101,6.07777778 L174.964029,6.07777778 L174.964029,9.11111111 L170.503597,9.11111111 L170.503597,12 L175.539568,12 L175.539568,15.1777778 L170.215827,15.3222222 Z M156.402878,4.77777778 L156.402878,6.94444444 L158.417266,6.94444444 L158.417266,4.77777778 L156.402878,4.77777778 Z M156.402878,12 L158.417266,12 L158.417266,9.83333333 L156.402878,9.83333333 L156.402878,12 Z M158.417266,17.0555556 L158.417266,14.8888889 L156.402878,14.8888889 L156.402878,17.3444444 L158.417266,17.0555556 Z" id="形状" fill-rule="nonzero"></path>
                <path d="M200,20.0888889 C200,21.9666667 199.568345,22.9777778 198.417266,23.5555556 C197.266187,24.1333333 195.539568,24.2777778 193.093525,24.2777778 C192.94964,23.2666667 192.230216,21.5333333 191.798561,20.6666667 C193.23741,20.8111111 195.251799,20.8111111 195.827338,20.8111111 C196.402878,20.8111111 196.546763,20.6666667 196.546763,20.0888889 L196.546763,16.7666667 L194.676259,18.6444444 C194.388489,18.0666667 194.100719,17.3444444 193.669065,16.7666667 C192.94964,18.7888889 191.942446,20.5222222 190.647482,21.8222222 C190.071942,21.3888889 188.633094,20.3777778 187.913669,19.9444444 C189.640288,18.3555556 190.791367,16.1888889 191.510791,13.5888889 C190.647482,12.4333333 189.784173,11.4222222 188.776978,10.4111111 C188.633094,11.2777778 188.489209,12.1444444 188.201439,13.0111111 C189.064748,14.0222222 189.784173,14.8888889 190.215827,15.6111111 L188.057554,18.2111111 C187.769784,17.7777778 187.338129,17.2 186.906475,16.6222222 C186.18705,18.6444444 185.179856,20.2333333 184.028777,21.6777778 C183.741007,21.3888889 182.877698,20.8111111 182.302158,20.3777778 L182.302158,24.4222222 L178.705036,24.4222222 L178.705036,2.03333333 L200,2.03333333 L200,20.0888889 Z M195.827338,6.51111111 C195.539568,8.82222222 195.251799,10.8444444 194.820144,12.8666667 C195.395683,13.7333333 195.971223,14.6 196.402878,15.3222222 L196.402878,5.5 L182.302158,5.5 L182.302158,9.25555556 L183.453237,7.95555556 C184.028777,8.67777778 184.748201,9.25555556 185.467626,10.1222222 C185.611511,8.82222222 185.755396,7.66666667 185.899281,6.22222222 L189.064748,6.51111111 C188.920863,7.66666667 188.776978,8.82222222 188.633094,9.83333333 L190.359712,8.1 C190.935252,8.67777778 191.510791,9.25555556 192.086331,9.83333333 C192.230216,8.67777778 192.374101,7.52222222 192.517986,6.22222222 L195.827338,6.51111111 Z M182.302158,18.5 C183.309353,17.2 184.028777,15.4666667 184.604317,13.5888889 C183.884892,12.7222222 183.021583,11.7111111 182.302158,10.8444444 L182.302158,18.5 Z" id="形状" fill-rule="nonzero"></path>
            </g>
        </g>
    </g>
</svg>