<?xml version="1.0" encoding="UTF-8"?>
<svg width="16px" height="16px" viewBox="0 0 16 16" version="1.1" xmlns="http://www.w3.org/2000/svg" xmlns:xlink="http://www.w3.org/1999/xlink">
    <!-- Generator: Sketch 52.4 (67378) - http://www.bohemiancoding.com/sketch -->
    <title>画板</title>
    <desc>Created with Sketch.</desc>
    <g id="画板" stroke="none" stroke-width="1" fill="none" fill-rule="evenodd">
        <g id="录制视频" transform="translate(3.000000, 4.000000)" fill="#FFFFFF" fill-rule="nonzero">
            <path d="M7.89452909,1.63907378 L9.25988789,1.06271679 C9.42266622,0.993894604 9.61104834,1.00800472 9.76046227,1.10021059 C9.9098762,1.19241645 10.0000219,1.35019058 10,1.51945252 L10,6.48054748 C10.0000219,6.64980942 9.9098762,6.80758355 9.76046227,6.89978941 C9.61104834,6.99199528 9.42266622,7.0061054 9.25988789,6.93728321 L7.89452909,6.36092622 L7.89452909,6.99990625 C7.89452913,7.55209637 7.42344394,7.99979295 6.84218836,8 L1.05273545,8 C0.471325717,8 0,7.55224278 0,6.99990625 L0,1.00009375 C0,0.447757222 0.471325717,0 1.05273545,0 L6.84218836,0 C7.42344394,0.000207045413 7.89452913,0.447903631 7.89452909,1.00009375 L7.89452909,1.63907378 Z M2.63164127,2.4670479 L2.63164127,5.5329521 C2.63187831,5.62500468 2.68532138,5.70949365 2.77076954,5.75290209 C2.85621769,5.79631053 2.95985865,5.79162168 3.04057788,5.7406956 L5.4610405,4.2081185 C5.53429302,4.16173156 5.57829346,4.08363286 5.57829346,4 C5.57829346,3.91636714 5.53429302,3.83826844 5.4610405,3.7918815 L3.04057788,2.2593044 C2.95985865,2.20837832 2.85621769,2.20368947 2.77076954,2.24709791 C2.68532138,2.29050635 2.63187831,2.37499532 2.63164127,2.4670479 Z" id="形状"></path>
        </g>
    </g>
</svg>