<?xml version="1.0" encoding="UTF-8"?>
<svg width="24px" height="24px" viewBox="0 0 24 24" version="1.1" xmlns="http://www.w3.org/2000/svg" xmlns:xlink="http://www.w3.org/1999/xlink">
    <!-- Generator: Sketch 52.4 (67378) - http://www.bohemiancoding.com/sketch -->
    <title>画板</title>
    <desc>Created with Sketch.</desc>
    <g id="画板" stroke="none" stroke-width="1" fill="none" fill-rule="evenodd">
        <g id="xue" fill="#98ADFA">
            <path d="M13.4596003,21.4228786 C13.2175283,22.5455001 13.6974254,24.0040886 11.9901807,23.9999914 C10.2786891,23.9958942 10.7968081,22.5250143 10.5632299,21.4105871 C10.142789,21.7670399 9.8285201,22.029258 9.51849804,22.2955734 C8.86023205,22.8732727 8.15100351,22.9920903 7.51397191,22.3406421 C6.91516219,21.7301655 7.03407475,21.0746201 7.64562512,20.5010179 C8.11278162,20.0626219 8.51623499,19.5258941 9.05558841,19.2104129 C11.0643614,18.0345283 10.7161175,16.2358757 10.5759705,14.2856281 C9.56096683,14.851036 8.65213508,15.3181121 7.79001894,15.8630342 C7.56068756,16.0064348 7.43328123,16.3669847 7.35683746,16.6496887 C7.07654354,17.690367 6.85570592,18.7474339 6.57116512,19.7840151 C6.30785873,20.7427502 5.64534584,21.1647576 4.83419226,20.8738593 C3.97207616,20.5665724 3.75548542,19.9397071 4.03153245,19.1038868 C4.15893878,18.7146567 4.20990131,18.3008437 4.31607322,17.8173789 C3.21613197,18.2229976 2.03550006,19.4521453 1.1861246,17.9320994 C0.421686674,16.5554541 1.95056253,16.1785154 2.97830684,15.5229701 C2.38799089,15.3304036 1.933575,15.1911002 1.47915914,15.0354082 C0.600055502,14.7363156 0.171120904,14.0643816 0.476896058,13.3555731 C0.808152505,12.5935016 1.46641849,12.3845465 2.26483145,12.5975987 C3.19914447,12.8475254 4.15044501,13.068772 5.04653615,13.4211276 C5.86618349,13.740706 6.53719012,13.66286 7.25066552,13.1834924 C7.86646274,12.7655822 8.55021002,12.4378095 9.32738856,12.0035107 C8.1934723,11.3725483 7.16572796,10.7661688 6.09551485,10.2335382 C5.82796158,10.1024291 5.40327383,10.1556921 5.08475803,10.2417325 C4.01029804,10.5244364 2.9485787,10.8604034 1.87836562,11.1676904 C1.02474325,11.4135199 0.319761613,11.2004676 0.0691958431,10.3482586 C-0.181369927,9.50014675 0.2645522,8.95932181 1.14790269,8.72988093 C1.58957793,8.6151605 2.01851256,8.44307982 2.54937225,8.26690199 C1.62779985,7.70559124 0.561833618,7.25080665 1.19037146,5.99707607 C1.57259043,5.23500456 2.34127524,5.2309074 3.91686675,5.96839596 C3.78521354,5.38659941 3.65780721,4.90313471 3.56437594,4.41966998 C3.41998212,3.65759846 3.70876977,3.09628771 4.49868896,2.90372125 C5.26737377,2.71934911 5.87467723,2.99385873 6.09551485,3.76822174 C6.39279627,4.8048029 6.56691824,5.87825847 6.92365595,6.89025668 C7.09777793,7.39011004 7.47575002,7.90635202 7.91317839,8.22183325 C8.6818632,8.77494968 9.56946057,9.17237406 10.6184393,9.7541706 C10.491033,7.81621454 11.3956179,5.89054996 9.28916668,4.55897337 C8.66487569,4.16564612 8.1594973,3.58794677 7.62439073,3.07170476 C7.03832166,2.5021997 6.89392781,1.83436284 7.50547817,1.2238862 C8.10004101,0.633895359 8.78378826,0.674866938 9.42931362,1.2238862 C9.77331069,1.51478447 10.1215546,1.79339126 10.558983,2.15394122 C10.7246112,1.11736006 10.5844643,-0.0667187866 12.0793651,0.00293290893 C13.4213784,0.0643902777 13.2684908,1.16242881 13.4511065,2.15803839 C13.8673005,1.79748842 14.1943101,1.49020152 14.542554,1.21159471 C15.1838325,0.691255564 15.8845673,0.621603869 16.4748832,1.21978904 C17.0694461,1.82207137 16.9760148,2.4940054 16.3644644,3.06760762 C15.6127671,3.76822176 14.8653167,4.47703021 14.0711506,5.13257559 C13.5360441,5.57506871 13.2939721,6.05443628 13.3364408,6.75095326 C13.3958971,7.67691112 13.3534283,8.61516047 13.3534283,9.76646207 C14.576529,9.09043087 15.6424953,8.54141161 16.6617458,7.91454635 C16.8868303,7.77934012 16.9845085,7.3942072 17.0609523,7.10330893 C17.3242587,6.09540789 17.5366026,5.07111822 17.7914152,4.06321717 C18.0334872,3.11267636 18.6705188,2.67018321 19.5029068,2.9201099 C20.3905042,3.18232806 20.6240824,3.80099902 20.3692698,4.64091655 C20.2503572,5.03014664 20.2036416,5.43986251 20.1017165,5.96020166 C21.1124733,5.51361137 22.1529583,4.86626029 22.8154712,6.06672777 C23.4482559,7.21802937 22.4162647,7.73017419 21.3970141,8.27919348 C22.0340457,8.47995427 22.5224367,8.62335482 23.0065807,8.78724114 C23.7540311,9.04536213 24.1532376,9.56570128 23.9451406,10.3195785 C23.7243029,11.1185245 23.0745307,11.4299085 22.2633771,11.2332449 C21.2186453,10.9751239 20.1824072,10.6719341 19.1674035,10.3195785 C18.5048906,10.0901376 17.9527966,10.1106234 17.3539868,10.4957563 C16.5215989,11.028387 15.6340015,11.4872687 14.682701,12.0239965 C15.6424952,12.5648215 16.4918707,13.0933549 17.3879619,13.5235566 C17.6937371,13.6710543 18.1523998,13.6505685 18.5006437,13.560431 C19.5751037,13.2859214 20.6283293,12.9253715 21.6985424,12.6221817 C22.5394242,12.3845465 23.2656402,12.5894044 23.5162059,13.4498077 C23.7625248,14.2979196 23.3038621,14.8387445 22.4290053,15.0722826 C22.0170582,15.1829059 21.6136049,15.3345007 21.0954858,15.5024842 C21.9703426,16.2522643 23.7412904,16.6128143 22.683818,18.1205687 C21.8132081,19.3579106 20.7642294,18.2516778 19.6770288,17.846059 C19.8044351,18.4196612 19.9403352,18.903126 20.016779,19.3906879 C20.1399384,20.1404679 19.876632,20.7263616 19.0654784,20.9025394 C18.3010405,21.0705229 17.6979839,20.8042076 17.4771463,20.0216503 C17.2053461,19.0506237 16.8868303,18.0795971 16.7466834,17.0921818 C16.6192771,16.2235842 16.1733549,15.7360223 15.4004232,15.3836666 C14.7633916,15.0927684 14.1645819,14.7158298 13.3534283,14.2692395 C13.3534283,15.4656098 13.3109596,16.4571222 13.3789096,17.4486346 C13.400144,17.7436301 13.6719441,18.0673056 13.9097693,18.2967465 C14.7039353,19.0547208 15.549064,19.7635293 16.3517238,20.5174065 C16.9547804,21.0828144 17.0779398,21.7506513 16.4706364,22.3611279 C15.8803204,22.9593131 15.1923263,22.9183415 14.5468009,22.3693222 C14.2410257,22.0866183 13.9225099,21.8121086 13.4596003,21.4228786 Z" id="路径"></path>
        </g>
    </g>
</svg>