<?xml version="1.0" encoding="UTF-8"?>
<svg width="24px" height="24px" viewBox="0 0 24 24" version="1.1" xmlns="http://www.w3.org/2000/svg" xmlns:xlink="http://www.w3.org/1999/xlink">
    <!-- Generator: Sketch 52.4 (67378) - http://www.bohemiancoding.com/sketch -->
    <title>画板</title>
    <desc>Created with Sketch.</desc>
    <g id="画板" stroke="none" stroke-width="1" fill="none" fill-rule="evenodd">
        <g id="yu" fill="#98ADFA" fill-rule="nonzero">
            <path d="M7.31748089,15.7485717 C6.98015422,15.5745598 6.57152272,15.7200452 6.40697313,16.0709216 L5.50469284,17.9793472 C5.33740076,18.3302236 5.47726791,18.7552691 5.81459458,18.9264283 C6.15192125,19.1004402 6.56055275,18.9549548 6.72510234,18.6040784 L7.62738263,16.6956528 C7.79467472,16.3447764 7.65480756,15.9197309 7.31748089,15.7485717 Z M11.845379,15.7485717 C11.5081246,15.5745598 11.0995807,15.7200452 10.9350664,16.0709216 L10.0329796,17.9793472 C9.86572334,18.3302236 10.0055605,18.7552691 10.3428149,18.9264283 C10.6800692,19.1004402 11.0886131,18.9549548 11.2531274,18.6040784 L12.1552143,16.6956528 C12.3224705,16.3447764 12.1853753,15.9197309 11.845379,15.7485717 Z M15.9222535,15.7485717 C15.5847479,15.5745598 15.1758996,15.7200452 15.0112628,16.0709216 L14.1085039,17.9793472 C13.9411231,18.3302236 14.0810645,18.7552691 14.41857,18.9264283 C14.7560756,19.1004402 15.1649239,18.9549548 15.3295607,18.6040784 L16.2323196,16.6956528 C16.3969564,16.3447764 16.259759,15.9197309 15.9222535,15.7485717 Z M21.1240385,7.17028602 C21.1269231,7.09179025 21.1355769,7.01631356 21.1355769,6.93479873 C21.1355769,4.34745763 19.1307692,2.24920551 16.6586538,2.24920551 C15.525,2.24920551 14.4951923,2.69300847 13.7076923,3.41758475 C13.0557692,1.43103814 11.2586538,0 9.13846154,0 C6.46730769,0 4.30384615,2.26731992 4.30384615,5.05995763 C4.30384615,5.25317797 4.31538462,5.44639831 4.33846154,5.63358051 C4.26634615,5.63056144 4.19711538,5.62150424 4.125,5.62150424 C1.84326923,5.62452331 0,7.55672669 0,9.93575212 C0,12.1245763 1.56057692,13.9299788 3.58269231,14.2077331 L3.58269231,14.25 L21.1355769,14.25 L21.1355769,14.2016949 C22.7596154,13.9299788 24,12.4627119 24,10.6875 C24,8.90625 22.7509615,7.43596398 21.1240385,7.17028602 Z" id="形状"></path>
        </g>
    </g>
</svg>