<?xml version="1.0" encoding="UTF-8"?>
<svg width="24px" height="24px" viewBox="0 0 24 24" version="1.1" xmlns="http://www.w3.org/2000/svg" xmlns:xlink="http://www.w3.org/1999/xlink">
    <!-- Generator: Sketch 52.4 (67378) - http://www.bohemiancoding.com/sketch -->
    <title>画板</title>
    <desc>Created with Sketch.</desc>
    <g id="画板" stroke="none" stroke-width="1" fill="none" fill-rule="evenodd">
        <g id="wuwumaimianxing" fill="#98ADFA" fill-rule="nonzero">
            <path d="M1.92857143,17.5 L20.8714286,17.5 C21.2738075,17.5 21.6,17.7611672 21.6,18.0833333 C21.6,18.4054994 21.2738075,18.6666667 20.8714286,18.6666667 L1.92857143,18.6666667 C1.52619254,18.6666667 1.2,18.4054994 1.2,18.0833333 C1.2,17.7611672 1.52619254,17.5 1.92857143,17.5 Z M1.92857139,19.8333333 L20.8714286,19.8333333 C21.2738075,19.8333334 21.6,20.0945006 21.6,20.4166667 C21.6,20.7388328 21.2738075,21 20.8714286,21 L1.92857139,21 C1.52619251,21 1.2,20.7388328 1.2,20.4166667 C1.2,20.0945006 1.52619251,19.8333334 1.92857139,19.8333333 Z M13.1821649,5.93464544e-15 C16.5638839,5.93464544e-15 19.4171209,2.23111538 20.3163186,5.28466198 C22.9113284,6.28667205 24.4162743,8.97156781 23.8985733,11.6755765 C23.3808723,14.3795851 20.9872468,16.3363602 18.2009755,16.3333298 L5.20116648,16.3333298 C2.31893757,16.3003202 2.65090175e-16,13.9832543 0,11.1363612 C-2.65090175e-16,8.28946819 2.31893757,5.97240225 5.20116648,5.93939267 L5.88812239,5.93939267 C6.54890179,2.55603511 9.56344255,0 13.1821649,0 Z" id="形状"></path>
        </g>
    </g>
</svg>