<?xml version="1.0" encoding="UTF-8"?>
<svg width="24px" height="24px" viewBox="0 0 24 24" version="1.1" xmlns="http://www.w3.org/2000/svg" xmlns:xlink="http://www.w3.org/1999/xlink">
    <!-- Generator: Sketch 52.4 (67378) - http://www.bohemiancoding.com/sketch -->
    <title>画板</title>
    <desc>Created with Sketch.</desc>
    <g id="画板" stroke="none" stroke-width="1" fill="none" fill-rule="evenodd">
        <path d="M2.57133487,16.57806 L2.57133487,13.458787 L0,13 L0,23 L2.57133487,22.1741362 L2.57133487,18.6858417 L6.72455358,18.6858417 L9,15.8443793 L6.03315851,14.3773332 L5.24248751,16.5777972 L2.57164859,16.5777972 L2.57133487,16.57806 Z M24,13.0965492 L5.94220637,1 L3.85097546,1 L1,5.58503661 L1,7.1450323 L16.8707369,17 L18.2022232,17 L18.2022232,16.9019355 L24,13.0965492 Z M2.44091248,8 L1,9.64000067 L17.0247016,20 L18.4653928,20 L19.2328209,19.1799422 L20,16.8199812 C20,16.8199812 17.8887291,18.4599819 17.7919084,18.4599819 C16.9310069,17.8466408 16.2575225,17.5367812 16.2575225,17.5367812 L2.44091248,8 Z" id="形状" fill="#9FA2A1" fill-rule="nonzero"></path>
    </g>
</svg>