<?xml version="1.0" encoding="UTF-8"?>
<svg width="16px" height="16px" viewBox="0 0 16 16" version="1.1" xmlns="http://www.w3.org/2000/svg" xmlns:xlink="http://www.w3.org/1999/xlink">
    <!-- Generator: Sketch 52.4 (67378) - http://www.bohemiancoding.com/sketch -->
    <title>画板</title>
    <desc>Created with Sketch.</desc>
    <g id="画板" stroke="none" stroke-width="1" fill="none" fill-rule="evenodd">
        <g id="监控" transform="translate(5.000000, 3.000000)" fill="#FFFFFF" fill-rule="nonzero">
            <path d="M3.5,7.77777777 C1.56697059,7.77777777 0,6.03666667 0,3.88888889 C0,1.7411111 1.56697059,0 3.5,0 C5.43302941,0 7,1.74111111 7,3.88888889 C7,4.92022222 6.63126471,5.90933333 5.97491176,6.63866667 C5.31855882,7.36800001 4.42832353,7.77777777 3.5,7.77777777 Z M3.5,2.22222223 C2.69108823,2.22222223 1.96185294,2.76355556 1.65220588,3.594 C1.3427647,4.42444444 1.51385294,5.38022223 2.08579412,6.01577777 C2.65773529,6.65133333 3.51811765,6.84133333 4.26526471,6.49755556 C5.01261765,6.15355556 5.49994118,5.34333333 5.49994118,4.44444444 C5.49994118,3.21711111 4.60455883,2.22222222 3.5,2.22222223 Z M3.5,5.55555556 C2.94782353,5.55555556 2.50002941,5.058 2.50002941,4.44444444 C2.50002941,3.83088889 2.94782353,3.33333333 3.5,3.33333333 C4.05217647,3.33333333 4.49997059,3.83088889 4.49997059,4.44444444 C4.50055918,4.73745454 4.39557464,5.01923208 4.20720588,5.23022223 C4.02192125,5.43741631 3.76679248,5.55478226 3.5,5.55555556 Z M3.5,7.77777777 C4.85079412,7.77866666 6.08032353,8.64355555 6.65844118,10 L0.341558818,10 C0.919676466,8.64355556 2.14920588,7.77866667 3.5,7.77777777 Z" id="形状"></path>
        </g>
    </g>
</svg>