<?xml version="1.0" encoding="UTF-8"?>
<svg width="16px" height="16px" viewBox="0 0 16 16" version="1.1" xmlns="http://www.w3.org/2000/svg" xmlns:xlink="http://www.w3.org/1999/xlink">
    <!-- Generator: Sketch 52.4 (67378) - http://www.bohemiancoding.com/sketch -->
    <title>画板</title>
    <desc>Created with Sketch.</desc>
    <g id="画板" stroke="none" stroke-width="1" fill="none" fill-rule="evenodd">
        <g id="描点" transform="translate(2.000000, 2.000000)" fill="#FFFFFF" fill-rule="nonzero">
            <path d="M12,5.70000369 L10.2222733,5.70000369 C10.0749057,3.59958052 8.4002801,1.92509864 6.29999564,1.7775832 L6.29999564,0 L5.69999095,0 L5.69999095,1.7775832 C3.5997199,1.92509864 1.92512115,3.59958052 1.77775346,5.70000369 L0,5.70000369 L0,6.30000972 L1.77774005,6.30000972 C1.92510775,8.40029886 3.5997199,10.0749148 5.70000436,10.2224302 L5.70000436,12 L6.30000905,12 L6.30000905,10.2224302 C8.4002935,10.0749148 10.0748923,8.40029886 10.2222599,6.30000972 L11.9999866,6.30000972 L11.9999866,5.70000369 L12,5.70000369 Z M9.54082509,5.70001709 L8.07626149,5.70000369 C7.94444004,4.78095045 7.21903343,4.05571644 6.29998224,3.9238813 L6.29998224,2.45888556 C8.02414135,2.60331855 9.39668726,3.9757201 9.54082509,5.70001709 Z M5.70000436,2.45888556 L5.70000436,3.9238813 C4.78096657,4.05571644 4.05558676,4.78096385 3.92372511,5.70000369 L2.45917491,5.70000369 C2.60332614,3.97573351 3.97587205,2.60331855 5.70000436,2.45888556 Z M2.45917491,6.29999631 L3.92372511,6.30000972 C4.05555996,7.21904955 4.78096657,7.94429696 5.70000436,8.0761321 L5.70000436,9.54112784 C3.97588545,9.39669485 2.60332614,8.0242933 2.45917491,6.29999631 Z M6.29999564,9.54112784 L6.29999564,8.0761321 C7.21904683,7.94429696 7.94444004,7.21904955 8.07628829,6.30000972 L9.54083849,6.30000972 C9.39668726,8.0242799 8.02414135,9.39669485 6.29999564,9.54112784 Z" id="形状"></path>
        </g>
    </g>
</svg>