<?xml version="1.0" encoding="UTF-8"?>
<svg width="16px" height="16px" viewBox="0 0 16 16" version="1.1" xmlns="http://www.w3.org/2000/svg" xmlns:xlink="http://www.w3.org/1999/xlink">
    <!-- Generator: Sketch 52.4 (67378) - http://www.bohemiancoding.com/sketch -->
    <title>画板</title>
    <desc>Created with Sketch.</desc>
    <g id="画板" stroke="none" stroke-width="1" fill="none" fill-rule="evenodd">
        <g id="GPS信号" transform="translate(3.000000, 3.000000)" fill="#FFFFFF" fill-rule="nonzero">
            <path d="M5.50206394,6.59695658 C6.05181049,5.99723911 6.05181049,5.09765217 5.47707839,4.52292025 C4.90234629,3.94818832 3.97777353,3.94818832 3.40304143,4.4979347 L1.40396112,2.498855 C1.1540734,2.24896735 0.779236448,2.32393472 0.604326853,2.62379345 C-0.420198851,4.52292025 -0.145325578,6.94679714 1.45393223,8.5460652 C3.05319003,10.1453333 5.47707839,10.4201957 7.37620576,9.39567031 C7.67606458,9.24573558 7.72604642,8.84592393 7.50114425,8.59603628 L5.50206394,6.59695658 Z M5.00229923,0 C4.2526468,0 3.52796919,0.174920279 2.87828043,0.474789751 L3.20312481,1.14947459 C3.75287136,0.89958694 4.35259974,0.749662942 5.00229923,0.749662942 C7.3512202,0.749662942 9.25033683,2.648779 9.25033683,4.99769926 C9.25033683,5.64740929 9.10041279,6.24712676 8.85052507,6.79687314 L9.52521011,7.12171742 C9.82507967,6.47201812 10,5.74735146 10,4.99769926 C10,2.24896735 7.75103197,0 5.00229923,0 Z M5.00229923,1.9990797 C4.55251636,1.9990797 4.10271202,2.09904335 3.70290025,2.29894918 L4.02774463,2.97363401 C4.32761419,2.82369928 4.65245857,2.74873191 5.00229923,2.74873191 C6.25172711,2.74873191 7.25126726,3.74827176 7.25126726,4.99769926 C7.25126726,5.34753982 7.17629987,5.6723841 7.02636509,5.97225357 L7.70105013,6.29709785 C7.87597046,5.8972862 8.00091969,5.47247827 8.00091969,5.02269554 C8.00091969,3.34846011 6.65153888,1.99909044 5.00229923,1.99909044 L5.00229923,1.9990797 Z" id="形状"></path>
        </g>
    </g>
</svg>