<?xml version="1.0" encoding="UTF-8"?>
<svg width="16px" height="16px" viewBox="0 0 16 16" version="1.1" xmlns="http://www.w3.org/2000/svg" xmlns:xlink="http://www.w3.org/1999/xlink">
    <!-- Generator: Sketch 52.4 (67378) - http://www.bohemiancoding.com/sketch -->
    <title>画板</title>
    <desc>Created with Sketch.</desc>
    <g id="画板" stroke="none" stroke-width="1" fill="none" fill-rule="evenodd">
        <g id="地图(1)" transform="translate(3.000000, 3.000000)" fill="#FFFFFF" fill-rule="nonzero">
            <path d="M7.04897832,9.94015945 C7.04897832,9.95920053 7.05915759,9.97775074 7.07699213,9.98874388 C7.0953148,9.99972561 7.1167091,10.0002165 7.13504368,9.99215713 L9.96587863,8.70518327 C9.97555786,8.70054857 9.98421321,8.69347095 9.99083271,8.6839504 C9.99695218,8.67442986 10,8.66368785 10,8.65318559 L10,0.0639458067 C10,0.0446650019 9.98982073,0.0258636504 9.97148616,0.0151216401 C9.95315158,0.00413990871 9.93124533,0.00390018767 9.91292266,0.0124389933 L7.08207581,1.36959545 C7.07290852,1.37423015 7.06426507,1.38155892 7.05814561,1.39082832 C7.05202615,1.40034886 7.04897832,1.41085113 7.04897832,1.42110227 L7.04897832,9.94015945 Z M3.44256694,8.73325402 C3.44256694,8.74473803 3.4461267,8.75621063 3.45325814,8.76622203 C3.4606396,8.77623344 3.47058075,8.78331105 3.48178389,8.78721516 L6.47659424,9.84519377 C6.49441688,9.8515408 6.51478731,9.84958875 6.53158607,9.83860702 C6.54839674,9.82737415 6.55756403,9.80954311 6.55756403,9.79124405 L6.55756402,1.26655901 C6.55756402,1.25557728 6.55399235,1.24458415 6.54738475,1.23482388 C6.54077715,1.22506361 6.53109793,1.21773486 6.52039483,1.21359102 L3.52608451,0.00461936194 C3.50799994,-0.00270940408 3.48687947,-0.00148794121 3.46955686,0.00950520224 C3.45224616,0.0207380667 3.44256694,0.0390485529 3.44256694,0.0575987713 L3.44256694,8.73325402 Z M0.0368001155,1.29757496 C0.0262279711,1.3017302 0.0168106581,1.30880783 0.0100602045,1.31856809 C0.00319068923,1.32832836 0,1.33956123 0,1.35054296 L0,9.94260237 C0,9.96139231 0.00967922791,9.97971421 0.0272518508,9.99069594 C0.0449435238,10.0016891 0.0664568877,10.0026594 0.0844104872,9.99509092 L2.91499542,8.78868777 C2.9254366,8.78429279 2.93460389,8.77697545 2.94097337,8.76744349 C2.94759288,8.75768322 2.9506526,8.7467015 2.9506526,8.73594808 L2.9506526,0.21458495 C2.9506526,0.196034732 2.94148531,0.177724246 2.92417462,0.166731102 C2.90686392,0.155498238 2.88546961,0.154276775 2.86764697,0.161354397 L0.0368001155,1.29757496 Z" id="形状"></path>
        </g>
    </g>
</svg>