<?xml version="1.0" encoding="UTF-8"?>
<svg width="16px" height="16px" viewBox="0 0 16 16" version="1.1" xmlns="http://www.w3.org/2000/svg" xmlns:xlink="http://www.w3.org/1999/xlink">
    <!-- Generator: Sketch 52.4 (67378) - http://www.bohemiancoding.com/sketch -->
    <title>画板</title>
    <desc>Created with Sketch.</desc>
    <g id="画板" stroke="none" stroke-width="1" fill="none" fill-rule="evenodd">
        <g id="视频监控-hover" transform="translate(3.000000, 3.000000)" fill="#FFFFFF" fill-rule="nonzero">
            <path d="M1.0986002,7.3102863 L2.52678045,7.3102863 C2.69157048,7.3102863 2.8014305,7.20269775 2.8014305,7.04131493 L2.8014305,4.6205726 L1.20846022,3.27571575 C1.04367019,3.16812721 1.04367019,3.00674438 1.15353021,2.84536156 L3.51552063,0.10185359 C3.62538065,-0.00573495761 3.84510069,-0.0595292316 3.95496071,0.10185359 L8.51415152,3.81365849 C8.67894155,3.92124704 8.67894155,4.13642414 8.56908153,4.24401269 L6.20709111,6.98752066 C6.09723109,7.09510921 5.87751105,7.14890348 5.76765103,6.98752066 L3.9000307,5.48128099 L3.9000307,7.84822904 C3.9000307,8.17099469 3.68031066,8.38617178 3.3507306,8.38617178 L1.0986002,8.38617178 L1.0986002,9.46205726 C1.0986002,9.7848229 0.878880157,10 0.549300098,10 C0.219720039,10 0,9.7848229 0,9.46205726 L0,6.23440082 C0,5.91163518 0.219720039,5.69645808 0.549300098,5.69645808 C0.878880157,5.69645808 1.0986002,5.91163518 1.0986002,6.23440082 L1.0986002,7.3102863 Z M7.03104126,7.20269775 L8.73387156,5.15851534 C8.84373158,5.0509268 9.00852161,5.0509268 9.17331164,5.10472107 L10.7113519,5.8578409 C10.931072,5.96542945 11.040932,6.18060655 10.986002,6.34198937 C10.986002,6.39578364 10.986002,6.39578364 10.931072,6.39578364 L8.73387156,9.03170307 C8.62401154,9.13929162 8.4042915,9.13929162 8.23950147,9.03170307 C8.18457146,9.03170307 8.18457146,8.97790879 8.12964145,8.92411452 L7.08597127,7.57925767 C6.97611125,7.47166912 6.92118124,7.3102863 7.03104126,7.20269775 Z" id="形状"></path>
        </g>
    </g>
</svg>