<?xml version="1.0" encoding="UTF-8"?>
<svg width="16px" height="16px" viewBox="0 0 16 16" version="1.1" xmlns="http://www.w3.org/2000/svg" xmlns:xlink="http://www.w3.org/1999/xlink">
    <!-- Generator: Sketch 52.4 (67378) - http://www.bohemiancoding.com/sketch -->
    <title>画板</title>
    <desc>Created with Sketch.</desc>
    <g id="画板" stroke="none" stroke-width="1" fill="none" fill-rule="evenodd">
        <g id="1-copy-2" transform="translate(8.500000, 8.500000) rotate(90.000000) translate(-8.500000, -8.500000) translate(3.000000, 4.000000)" fill="#FFFFFF">
            <g id="1-copy">
                <path d="M2.8268035,4.67502972 C2.8268035,4.55235224 2.78063094,4.42964929 2.68831095,4.33605214 C2.5036584,4.14885785 2.20428431,4.14885785 2.0196192,4.33605214 L0.145025813,6.2365659 C0.133906707,6.24783882 0.123365543,6.25969769 0.113402321,6.27204059 C0.112598227,6.27305961 0.111806698,6.27411685 0.111015168,6.27513587 C0.102082191,6.28637058 0.0935889529,6.29798743 0.0856987847,6.31002463 C0.084618284,6.31168054 0.0836006031,6.31336192 0.0825326663,6.31503057 C0.0751576206,6.32658373 0.0682223136,6.33839164 0.061814693,6.35059443 C0.0608723958,6.35236498 0.0600180464,6.35416101 0.0591008772,6.35594429 C0.05289428,6.36817255 0.0471274214,6.38064283 0.0419510691,6.39343156 C0.0417249178,6.39401749 0.0413982548,6.39459069 0.0411721034,6.39516389 C0.0407951846,6.39606827 0.0405815972,6.39701087 0.0402172423,6.39791525 C0.0350911458,6.41094599 0.0304550439,6.42424423 0.0264597039,6.43780995 C0.026120477,6.43893088 0.0258315058,6.44006454 0.0255048428,6.44118546 C0.0215471948,6.45490404 0.0181549251,6.4688519 0.0154159814,6.48306726 C0.0152400859,6.48398438 0.0151144463,6.48488876 0.0149134229,6.48580588 C0.0122624269,6.49997028 0.0101642452,6.51432575 0.00876964547,6.52892323 C0.0086942617,6.52971298 0.00866913377,6.53051546 0.00860631396,6.53129246 C0.00728709795,6.54587721 0.00650813231,6.56061481 0.00650813231,6.57555622 C0.00650813231,6.59049762 0.00728709795,6.60523522 0.00860631396,6.61981997 C0.00866913377,6.62060971 0.00870682566,6.62141219 0.00876964547,6.6221892 C0.0101642452,6.63677395 0.012237299,6.65112942 0.0149134229,6.66530656 C0.0150893183,6.66622368 0.0152275219,6.66714079 0.0154159814,6.66804518 C0.0181549251,6.68224779 0.0215597588,6.69620839 0.0255048428,6.70992697 C0.0258315058,6.71104789 0.026107913,6.71218156 0.0264597039,6.71331522 C0.0304676078,6.72689368 0.0350911458,6.74016644 0.0402172423,6.75318444 C0.0407951846,6.7546875 0.0413605629,6.75619056 0.0419510691,6.75768088 C0.0471399854,6.77049507 0.0529068439,6.78296535 0.0591260051,6.79518088 C0.0600180464,6.79695143 0.0608723958,6.79872198 0.0617770011,6.80046705 C0.0681971857,6.81268257 0.0751450567,6.82454144 0.0825452303,6.8360946 C0.0836006031,6.83773777 0.0845931561,6.83938094 0.0856485289,6.84101138 C0.0935763889,6.85307405 0.102069627,6.86470363 0.111002604,6.87597656 C0.111794134,6.87697011 0.112547971,6.87801461 0.113352065,6.87899541 C0.123327851,6.89133832 0.133869015,6.90320992 0.144988121,6.91447011 C0.144988121,6.91448285 0.144988121,6.91448285 0.144988121,6.91448285 C0.145050941,6.91455927 0.145138889,6.91462296 0.145214273,6.91469939 L2.01960663,8.81503482 C2.20425918,9.00225459 2.50363327,9.00225459 2.68829838,8.81503482 C2.78063094,8.72143767 2.82679094,8.59874745 2.82679094,8.47606997 C2.82679094,8.35339249 2.78063094,8.23070228 2.68829838,8.13710513 L1.6208893,7.05492952 L10.4763592,7.05492952 C10.7375011,7.05492952 10.9491913,6.8403108 10.9491913,6.57555622 C10.9491913,6.31080163 10.7374886,6.09618291 10.4763592,6.09618291 L1.6208893,6.09618291 L2.68828582,5.01403278 C2.78063094,4.92038468 2.82679094,4.79771994 2.82679094,4.67502972 L2.8268035,4.67502972 Z" id="路径"></path>
                <path d="M8.26743878,0.152369226 C8.08278623,0.339588995 8.08278623,0.64310462 8.26743878,0.830324389 L9.33484786,1.9125 L0.47937797,1.9125 C0.21823602,1.9125 0.0065458242,2.12713145 0.0065458242,2.3918733 C0.0065458242,2.65661515 0.21823602,2.87125934 0.47937797,2.87125934 L9.33484786,2.87125934 L8.26743878,3.95342221 C8.08278623,4.14064198 8.08278623,4.44415761 8.26743878,4.63139012 C8.45210389,4.81859715 8.75147798,4.81859715 8.93614309,4.63139012 L10.810749,2.73085088 C10.8108119,2.73078719 10.8108872,2.73069803 10.8109501,2.73063434 C10.8219687,2.71945058 10.832447,2.70766814 10.8423223,2.69543988 C10.8432143,2.69435717 10.844031,2.69322351 10.8449105,2.69211532 C10.8537555,2.68095703 10.8621859,2.66941661 10.8700384,2.65745584 C10.8711691,2.65573624 10.8722245,2.65399117 10.8733301,2.65225883 C10.8806549,2.64080757 10.8875651,2.62903787 10.8939225,2.61691151 C10.8948899,2.61507728 10.8957945,2.6132303 10.8967368,2.61137058 C10.9029057,2.59921875 10.9086474,2.58681216 10.9137987,2.57409986 C10.9144394,2.57254586 10.9150048,2.57096637 10.915633,2.5694251 C10.9207214,2.55644531 10.9253324,2.54319803 10.9293403,2.52968325 C10.9296669,2.52853685 10.9299685,2.52739046 10.9302951,2.52621858 C10.9342528,2.5125 10.9376199,2.49860309 10.940384,2.48440048 C10.9405473,2.48348336 10.9406981,2.48254076 10.9408614,2.48162364 C10.9435124,2.46748471 10.9456106,2.45310377 10.9469926,2.43855724 C10.9470806,2.43774202 10.9471057,2.43693954 10.9471811,2.43611158 C10.9485129,2.42155231 10.9492667,2.40681471 10.9492542,2.39188604 C10.9492416,2.37695737 10.9485003,2.36221977 10.9471811,2.3476605 C10.9471057,2.34684528 10.9470806,2.34601732 10.9469926,2.34521484 C10.9456232,2.33065557 10.9435124,2.31628736 10.9408489,2.3021357 C10.9406855,2.30121858 10.9405348,2.30028872 10.940384,2.2993716 C10.9376325,2.2852072 10.9342528,2.27127208 10.9302951,2.2575535 C10.9299685,2.2564071 10.9296669,2.25523522 10.9293403,2.25406335 C10.9253198,2.24054857 10.9207214,2.22731403 10.915633,2.21433424 C10.9150048,2.21278023 10.9144394,2.21120075 10.9137987,2.20965948 C10.9086474,2.19692171 10.9029057,2.18452785 10.8967368,2.17237602 C10.8957819,2.17052904 10.8948899,2.16866933 10.8939225,2.16686056 C10.8875651,2.15472147 10.8806675,2.14295177 10.8733301,2.13151325 C10.8722245,2.12976817 10.8711691,2.1280231 10.8700384,2.1263035 C10.8621985,2.11438094 10.8537555,2.10282779 10.8449105,2.0916695 C10.844031,2.09056131 10.8432143,2.08942765 10.8423223,2.08831946 C10.8324219,2.07607846 10.8219687,2.0643215 10.8109375,2.05313774 C10.8108747,2.05306131 10.8107993,2.05298488 10.8107365,2.0529212 L8.93613053,0.152420177 C8.75146541,-0.0347868546 8.45209133,-0.0347868546 8.26742622,0.152420177 L8.26743878,0.152369226 Z" id="路径"></path>
            </g>
        </g>
    </g>
</svg>