<?xml version="1.0" encoding="UTF-8"?>
<svg width="16px" height="16px" viewBox="0 0 16 16" version="1.1" xmlns="http://www.w3.org/2000/svg" xmlns:xlink="http://www.w3.org/1999/xlink">
    <!-- Generator: Sketch 52.4 (67378) - http://www.bohemiancoding.com/sketch -->
    <title>画板</title>
    <desc>Created with Sketch.</desc>
    <g id="画板" stroke="none" stroke-width="1" fill="none" fill-rule="evenodd">
        <g id="juli-2" transform="translate(3.000000, 3.000000)" fill="#FFFFFF">
            <g id="juli">
                <polygon id="路径" points="2.96952736 4.8125 4.61753731 5.3203125 5.18501244 7.0390625 6.33550995 3.609375 6.32773632 3.6171875"></polygon>
                <path d="M9.02518657,0 L0.940609453,0 C0.427549751,0 0.00777363184,0.421875 0.00777363184,0.9375 L0.00777363184,9.0625 C0.00777363184,9.578125 0.427549751,10 0.940609453,10 L9.02518657,10 C9.53824627,10 9.95802239,9.578125 9.95802239,9.0625 L9.95802239,0.9375 C9.95802239,0.421875 9.53824627,0 9.02518657,0 Z M4.98289801,8.8359375 C2.87624378,8.8359375 1.16604478,7.125 1.16604478,5 C1.16604478,2.8828125 2.87624378,1.1640625 4.98289801,1.1640625 C7.08955224,1.1640625 8.79975124,2.8828125 8.79975124,5 C8.79975124,7.125 7.09732587,8.8359375 4.98289801,8.8359375 Z" id="形状" fill-rule="nonzero"></path>
            </g>
        </g>
    </g>
</svg>