<?xml version="1.0" encoding="UTF-8"?>
<svg width="16px" height="16px" viewBox="0 0 16 16" version="1.1" xmlns="http://www.w3.org/2000/svg" xmlns:xlink="http://www.w3.org/1999/xlink">
    <!-- Generator: Sketch 52.4 (67378) - http://www.bohemiancoding.com/sketch -->
    <title>画板</title>
    <desc>Created with Sketch.</desc>
    <g id="画板" stroke="none" stroke-width="1" fill="none" fill-rule="evenodd">
        <g id="iAngle" transform="translate(3.000000, 4.000000)" fill="#FFFFFF">
            <path d="M0.825085946,8 C1.28089491,8 1.65040108,7.64000835 1.65040108,7.19593614 C1.65040108,6.75186393 1.28089491,6.39187228 0.825085946,6.39187228 C0.369403561,6.39187228 5.58049975e-17,6.75176396 0,7.19571285 C-5.58049975e-17,7.63966174 0.369403561,7.99955342 0.825085946,7.99955342 L0.825085946,8 Z M0.825085946,7.67846377 C1.09849538,7.67846377 1.32013751,7.46252876 1.32013751,7.19615943 C1.32013751,6.9297901 1.09849538,6.71385509 0.825085946,6.71385509 C0.551676515,6.71385509 0.330034378,6.9297901 0.330034378,7.19615943 C0.330034378,7.46252876 0.551676515,7.67846377 0.825085946,7.67846377 Z M7.45144286,1.60812772 C7.74629956,1.60812773 8.01875839,1.45487402 8.16618674,1.20609579 C8.3136151,0.957317569 8.3136151,0.650810153 8.16618674,0.402031927 C8.01875839,0.153253701 7.74629956,-4.2805724e-09 7.45144286,0 C6.99576047,2.33133123e-17 6.62635691,0.359891682 6.62635691,0.803840571 C6.62635691,1.24778946 6.99576047,1.60768114 7.45144286,1.60768114 L7.45144286,1.60812772 Z M7.45144286,1.28659149 C7.72485229,1.28659149 7.94649443,1.07065648 7.94649443,0.80428715 C7.94649443,0.537917817 7.72485229,0.321982807 7.45144286,0.321982807 C7.17803343,0.321982807 6.95639129,0.537917817 6.95639129,0.80428715 C6.95639129,1.07065648 7.17803343,1.28659149 7.45144286,1.28659149 Z M10.1746849,7.99955342 C10.6304938,7.99955342 11,7.63956177 11,7.19548956 C11,6.75141735 10.6304938,6.3914257 10.1746849,6.3914257 C9.71900248,6.3914257 9.34959892,6.75131738 9.34959892,7.19526627 C9.34959892,7.63921516 9.71900248,7.99910684 10.1746849,7.99910684 L10.1746849,7.99955342 Z M10.1746849,7.67801719 C10.4480943,7.67801719 10.6697364,7.46208218 10.6697364,7.19571285 C10.6697364,6.92934352 10.4480943,6.71340851 10.1746849,6.71340851 C9.90127543,6.71340851 9.6796333,6.92934352 9.6796333,7.19571285 C9.6796333,7.46208218 9.90127543,7.67801719 10.1746849,7.67801719 Z" id="形状" fill-rule="nonzero"></path>
            <polygon id="路径" points="1 7 9 7 9 8 1 8"></polygon>
            <polygon id="路径" points="1 6.66029346 6.66029346 1 7 1.33970654 1.33970654 7"></polygon>
            <path d="M5.34806293,3 C6.40827494,4.06510208 7.00196112,5.50265788 7,7 L6.50796899,7 C6.50796899,5.57637083 5.93257176,4.28569813 5,3.3450537 L5.34806293,3 Z" id="路径"></path>
        </g>
    </g>
</svg>