<?xml version="1.0" encoding="UTF-8"?>
<svg width="16px" height="16px" viewBox="0 0 16 16" version="1.1" xmlns="http://www.w3.org/2000/svg" xmlns:xlink="http://www.w3.org/1999/xlink">
    <!-- Generator: Sketch 52.4 (67378) - http://www.bohemiancoding.com/sketch -->
    <title>画板</title>
    <desc>Created with Sketch.</desc>
    <g id="画板" stroke="none" stroke-width="1" fill="none" fill-rule="evenodd">
        <g id="相机(1)" transform="translate(2.000000, 4.000000)" fill="#FFFFFF" fill-rule="nonzero">
            <path d="M11.4018075,1.03304348 L9.0325523,1.03304348 L7.99603347,0.135688696 C7.92199163,0.0664591304 7.77392469,0 7.625841,0 L4.29417573,0 C4.14609205,0 3.92398326,0.0664591304 3.84994142,0.204933913 L2.96148954,1.03304348 L0.592301255,1.03304348 C0.222108787,1.03304348 0,1.31554957 0,1.59253043 L0,8.51667652 C0,8.79361043 0.296133891,9 0.592301255,9 L11.3277657,9 C11.6979247,9 11.916318,8.79361043 12,8.51667652 L12,1.59253043 C12,1.24632 11.6978912,1.03304348 11.4018075,1.03304348 Z M5.99702092,7.96273043 C4.14609205,7.96273043 2.66537238,6.57787304 2.66537238,4.84685217 C2.66537238,3.11584696 4.14610879,1.73102087 5.99702092,1.73102087 C7.84796653,1.73102087 9.32875314,3.11584696 9.32875314,4.84685217 C9.32875314,6.5778887 7.84796653,7.96273043 5.99702092,7.96273043 Z M5.99702092,2.76963652 C4.73839331,2.76963652 3.77593305,3.66976174 3.77593305,4.84685217 C3.77593305,6.02397391 4.73841004,6.92413043 5.99702092,6.92413043 C7.25569874,6.92413043 8.218159,6.02397391 8.218159,4.84685217 C8.218159,3.66976174 7.25568201,2.76963652 5.99702092,2.76963652 Z" id="形状"></path>
        </g>
    </g>
</svg>