<?xml version="1.0" encoding="UTF-8"?>
<svg width="16px" height="16px" viewBox="0 0 16 16" version="1.1" xmlns="http://www.w3.org/2000/svg" xmlns:xlink="http://www.w3.org/1999/xlink">
    <!-- Generator: Sketch 52.4 (67378) - http://www.bohemiancoding.com/sketch -->
    <title>画板</title>
    <desc>Created with Sketch.</desc>
    <g id="画板" stroke="none" stroke-width="1" fill="none" fill-rule="evenodd">
        <g id="d_due" transform="translate(2.000000, 3.000000)" fill="#FFFFFF" fill-rule="nonzero">
            <path d="M3.37278863,5.42841491 C4.04744883,4.99810963 4.8359451,4.77620309 5.63813752,4.79087768 C6.44114606,4.7758645 7.23052811,4.99777885 7.90595143,5.42841491 C8.14322188,5.583925 8.35308109,5.7770279 8.52713523,6 L11.7143998,4.1924232 L12.8532367,3.54022996 C12.94398,3.4889431 13,3.39337466 13,3.28985614 C13,3.18633763 12.94398,3.09076919 12.8532367,3.03948233 L7.72847033,0.11071939 C7.47248587,-0.0369064633 7.15620971,-0.0369064633 6.90022525,0.11071939 L0.138688799,3.99945217 C0.0525765276,4.05128022 0,4.14388119 0,4.2437193 C0,4.34355742 0.0525765276,4.43615839 0.138688799,4.48798644 L1.27013074,5.13773702 L2.74913981,5.98778664 C2.92468839,5.76872702 3.13537988,5.57975068 3.37278863,5.42841491 Z M9.2074794,4.26814601 C9.18934319,4.29828297 9.15661315,4.31681633 9.12120387,4.31699945 C9.1037316,4.3166453 9.08668724,4.31157833 9.07190358,4.30234341 L7.80242079,3.56954201 C7.76004271,3.54059547 7.7472629,3.48421773 7.77307687,3.44009225 C7.79889084,3.39596678 7.85461303,3.37894038 7.90102139,3.40099769 L9.17050417,4.13379909 C9.19354273,4.14660909 9.21043028,4.16804448 9.2173812,4.19330016 C9.22433212,4.21855584 9.22076498,4.24551922 9.2074794,4.26814601 Z M8.52713523,2.98330089 C8.55401206,2.93717849 8.6132141,2.92088253 8.66024604,2.94666082 L9.93219385,3.67946222 C9.95481531,3.69268278 9.97117957,3.71429993 9.97765801,3.73952028 C9.98413646,3.76474063 9.98019372,3.79147998 9.96670406,3.81380915 C9.9497498,3.8439254 9.91769443,3.86261058 9.88289355,3.86266257 C9.86535984,3.86271086 9.84820465,3.85761096 9.83359323,3.84800655 L8.56411047,3.11520513 C8.54088689,3.10323526 8.52341987,3.08260548 8.51555922,3.05786271 C8.50769857,3.03311994 8.51008956,3.00629524 8.52220519,2.98330089 L8.52713523,2.98330089 Z M7.38583323,1.36380978 C7.94046164,1.36380978 8.39155939,1.6349463 8.39155941,1.97203495 C8.38914425,2.06690032 8.35439105,2.15816148 8.2929588,2.23095812 C8.05660846,2.47313428 7.72518698,2.60075298 7.38583323,2.58026012 C7.02186998,2.60965296 6.66701,2.45764044 6.43926743,2.17477667 C6.40183373,2.11355543 6.38142221,2.04360545 6.38010707,1.97203495 C6.37517705,1.6349463 6.8262748,1.36380978 7.38090321,1.36380978 L7.38583323,1.36380978 Z M5.73673812,2.18943271 C5.92086041,2.18897572 6.10417002,2.21363382 6.28150646,2.26271284 C6.71288411,2.38240374 7.02101099,2.64376956 7.02101099,2.94421814 C7.00121422,3.17202833 6.86159933,3.37258851 6.65372375,3.47183516 L5.42121619,2.76590313 L4.82714755,2.42392915 C5.10338262,2.26573276 5.41772562,2.18469376 5.73673812,2.18943271 Z" id="形状"></path>
            <path d="M2.74834703,5.75812847 L1.26856406,4.93021413 L0.136530099,5.56304521 C0.0515837626,5.61437489 0,5.70426063 0,5.80095163 C0,5.89764263 0.0515837626,5.98752836 0.136530099,6.03885804 L2.41292956,7.33068992 C2.36765309,7.17589433 2.34523557,7.01571251 2.34633933,6.85487707 C2.34975757,6.45627131 2.49126409,6.07021631 2.74834703,5.75812847 Z M12.8527984,4.6185567 L11.7133655,4 L8.52443322,5.76050754 C8.77977981,6.07244217 8.92033552,6.45743327 8.92397463,6.85487707 C8.92357401,7.01577813 8.90033944,7.17586882 8.85491809,7.33068992 L12.8527984,5.10388581 C12.9437217,5.05460223 13,4.96182645 13,4.86122126 C13,4.76061607 12.9437217,4.66784028 12.8527984,4.6185567 Z M7.90292437,8.52022204 C7.2266555,8.93859178 6.43719838,9.154635 5.63392382,9.14115781 C4.8314661,9.15430626 4.04289476,8.93827063 3.36738957,8.52022204 C3.13109114,8.36742102 2.9213306,8.17953326 2.74588072,7.96352101 L2.74588072,8.09674861 C2.74588072,9.14353686 4.04315713,9.99999998 5.64132274,10 C7.23948835,10 8.53923105,9.15067407 8.53923105,8.09674861 C8.54176549,8.05237305 8.54176549,8.00789656 8.53923105,7.96352101 C8.36013863,8.18142588 8.14517831,8.36949343 7.90292437,8.52022204 Z" id="形状"></path>
            <path d="M8.63702308,6.05386045 C8.56695231,5.96485976 8.49010812,5.88118436 8.407149,5.80355128 C8.37055634,5.76990186 8.33219151,5.7381526 8.29221196,5.7084338 C8.12169771,5.57408664 7.93567281,5.45983051 7.73796004,5.36801334 L7.60769807,5.30793915 C7.49020687,5.2603804 7.36760737,5.21532476 7.23989955,5.17527529 L7.08154186,5.13272273 C6.72793696,5.04274259 6.36390513,4.99814837 5.99857957,5.00005888 C5.51137635,5.00098071 5.02811954,5.08570256 4.57080615,5.25036803 C4.10348775,5.40768367 3.68736674,5.68415933 3.36524436,6.05135735 C3.13440539,6.31718557 3.00525857,6.65351164 3,7.00253215 C3.00138993,7.22826242 3.05741304,7.45044822 3.16346601,7.65083288 C3.19737444,7.71750578 3.23577158,7.78189398 3.27840305,7.84357093 C3.38913132,7.99788058 3.52155372,8.13608244 3.67174312,8.25407797 L3.70494715,8.28161196 C3.89684255,8.43367924 4.10804317,8.56072679 4.33326962,8.65957879 C4.41637887,8.697725 4.50165826,8.73115477 4.58868525,8.75970247 C4.78869769,8.83183815 4.99462943,8.88710687 5.20423694,8.92490651 C5.74261671,9.02503116 6.29540892,9.02503116 6.83378868,8.92490651 C7.58399085,8.81816158 8.26399191,8.43390332 8.73408102,7.85108022 C8.77894099,7.78810854 8.8190622,7.72201902 8.85412636,7.65333597 C8.95438421,7.45070136 9.00427332,7.22768665 8.99971328,7.00253215 C8.99311903,6.65495766 8.86510227,6.32011021 8.63702308,6.05386045 Z M7.35994489,6.05386045 L5.97048384,6.8423343 L7.24756202,7.59326178 C7.27100153,7.60680936 7.28795755,7.62896121 7.29467028,7.65480539 C7.301383,7.68064957 7.29729769,7.70805032 7.28332021,7.73093181 C7.26407664,7.75977528 7.23163028,7.77754457 7.1964789,7.77849056 C7.17750515,7.77859281 7.15889628,7.77338229 7.14284161,7.76347201 L5.72783899,6.91993014 C5.69766535,6.9005773 5.67943256,6.86766207 5.67931001,6.83232193 C5.67988832,6.79712574 5.6992838,6.76481263 5.73039315,6.74721682 L7.26288695,5.87614094 C7.31238315,5.84948483 7.37453187,5.86609561 7.40336556,5.91368732 C7.41525332,5.9384949 7.4162447,5.96699371 7.40610851,5.99253712 C7.39597231,6.01808052 7.37559471,6.03843531 7.34972828,6.04885425 L7.35994489,6.05386045 Z" id="形状"></path>
        </g>
    </g>
</svg>