<?xml version="1.0" encoding="UTF-8"?>
<svg width="16px" height="16px" viewBox="0 0 16 16" version="1.1" xmlns="http://www.w3.org/2000/svg" xmlns:xlink="http://www.w3.org/1999/xlink">
    <!-- Generator: Sketch 52.4 (67378) - http://www.bohemiancoding.com/sketch -->
    <title>画板</title>
    <desc>Created with Sketch.</desc>
    <g id="画板" stroke="none" stroke-width="1" fill="none" fill-rule="evenodd">
        <g id="特效" transform="translate(2.000000, 2.000000)" fill="#FFFFFF" fill-rule="nonzero">
            <path d="M11.5827465,5.5785777 L10.3943662,3.2976295 L10.8169014,0.763827919 L8.27640845,1.18525022 L5.99471831,0 L5.60915493,2.54433714 L3.77640845,4.34591747 L6.07922535,5.48902546 L7.2306338,7.785777 L9.03697183,5.95785777 L11.5827465,5.5785777 Z M4.05633803,5.48902546 L2.29753521,6.67954346 L0.169014085,6.57418788 L0.76056338,8.61281826 L0,10.5935031 L2.12852113,10.667252 L3.78169014,12 L4.51056338,10.0035119 L6.29049296,8.84460053 L4.61619718,7.5381914 L4.05633803,5.48902546 Z M12,9.01843723 L10.5897887,8.57067603 L9.72887324,7.36962248 L8.86795775,8.57067603 L7.45774648,9.01843723 L8.33450704,10.2036874 L8.32394366,11.6786655 L9.72887324,11.215101 L11.1285211,11.6786655 L11.1179577,10.2036874 L12,9.01843723 Z" id="形状"></path>
        </g>
    </g>
</svg>