<?xml version="1.0" encoding="UTF-8"?>
<svg width="16px" height="16px" viewBox="0 0 16 16" version="1.1" xmlns="http://www.w3.org/2000/svg" xmlns:xlink="http://www.w3.org/1999/xlink">
    <!-- Generator: Sketch 52.4 (67378) - http://www.bohemiancoding.com/sketch -->
    <title>画板</title>
    <desc>Created with Sketch.</desc>
    <g id="画板" stroke="none" stroke-width="1" fill="none" fill-rule="evenodd">
        <g id="街景(1)" transform="translate(4.000000, 3.000000)" fill="#FFFFFF" fill-rule="nonzero">
            <path d="M9,9.22860147 C9,9.48645123 8.86921875,9.71865101 8.60765625,9.92520082 C8.34609375,10.1317506 7.9959375,10.2964505 7.55859375,10.4220004 C7.12125,10.5475502 6.64171875,10.6420501 6.12,10.7041501 C5.59828125,10.7676 5.05828125,10.8 4.5,10.8 C3.94171875,10.8 3.40171875,10.7676 2.88,10.7041501 C2.35828125,10.6407001 1.87875,10.5462002 1.44140625,10.4220004 C1.0040625,10.2978005 0.6553125,10.1317506 0.39234375,9.92520082 C0.13078125,9.71865101 0,9.48645123 0,9.22860147 C0,9.02880166 0.0703125,8.84655183 0.2109375,8.68590198 C0.3515625,8.52390213 0.545625,8.38755226 0.793125,8.27820236 C1.040625,8.16750247 1.29234375,8.07705255 1.546875,8.00415262 C1.8028125,7.93260269 2.08125,7.87185275 2.385,7.82325279 C2.4946875,7.80300281 2.59734375,7.82460279 2.6915625,7.88805273 C2.78578125,7.95150267 2.840625,8.03655259 2.85890625,8.14185249 C2.88,8.24715239 2.8575,8.3470523 2.79140625,8.43615222 C2.7253125,8.52660213 2.63671875,8.57925208 2.52703125,8.59680207 C2.27953125,8.63865203 2.053125,8.68590198 1.84921875,8.74125193 C1.6453125,8.79660188 1.4821875,8.84790183 1.35984375,8.89785178 C1.23890625,8.94645174 1.13484375,8.99505169 1.0490625,9.04230165 C0.9646875,9.0882016 0.905625,9.12870157 0.87328125,9.16245154 C0.8409375,9.1948515 0.8240625,9.21915148 0.81984375,9.23535147 C0.83390625,9.27990143 0.89015625,9.33525137 0.99140625,9.39735131 C1.0940625,9.46080126 1.25015625,9.52830119 1.45828125,9.59985113 C1.66640625,9.67140106 1.9096875,9.737551 2.18671875,9.79965094 C2.46375,9.86175088 2.80546875,9.91170083 3.211875,9.95355079 C3.6196875,9.99540075 4.04859375,10.0156507 4.5,10.0156507 C4.95140625,10.0156507 5.3803125,9.99540075 5.788125,9.95355079 C6.1959375,9.91170083 6.53765625,9.86175088 6.81328125,9.79965094 C7.08890625,9.737551 7.33359375,9.67005106 7.54171875,9.59715113 C7.74984375,9.5242512 7.9059375,9.45540126 8.00859375,9.39195132 C8.11125,9.32850138 8.16890625,9.27180143 8.18015625,9.22320148 C8.1759375,9.20700149 8.15765625,9.18405151 8.12671875,9.15570154 C8.094375,9.12735157 8.03671875,9.0882016 7.9509375,9.03960165 C7.8665625,8.9910017 7.7625,8.94240174 7.64015625,8.89515179 C7.51921875,8.84925183 7.3546875,8.79660188 7.15078125,8.74125193 C6.946875,8.68590198 6.72046875,8.63865203 6.47296875,8.59680207 C6.36328125,8.58060208 6.2746875,8.52660213 6.20859375,8.43615222 C6.1425,8.3457023 6.12,8.24715239 6.14109375,8.14185249 C6.15796875,8.03655259 6.21421875,7.95150267 6.3084375,7.88805273 C6.40265625,7.82460279 6.5053125,7.80300281 6.615,7.82325279 C6.91734375,7.87185275 7.1971875,7.93260269 7.453125,8.00415262 C7.7090625,8.07570255 7.959375,8.16615247 8.206875,8.27820236 C8.454375,8.38890226 8.6484375,8.52525213 8.7890625,8.68590198 C8.9296875,8.84790183 9,9.02745166 9,9.22860147 Z M6.5446875,3.73005663 L6.5446875,6.08715442 C6.5446875,6.19245432 6.50390625,6.28560423 6.42375,6.36390416 C6.34359375,6.44085409 6.2465625,6.48000405 6.13546875,6.48000405 L5.72625,6.48000405 L5.72625,8.83710184 C5.72625,8.94240174 5.68546875,9.03555165 5.6053125,9.11385158 C5.52515625,9.19215151 5.428125,9.22995147 5.31703125,9.22995147 L3.6815625,9.22995147 C3.571875,9.22995147 3.47484375,9.19080151 3.39328125,9.11385158 C3.313125,9.03690165 3.27234375,8.94510174 3.27234375,8.83710184 L3.27234375,6.47865405 L2.863125,6.47865405 C2.7534375,6.47865405 2.65640625,6.43950409 2.57484375,6.36255416 C2.4946875,6.28560423 2.45390625,6.19245432 2.45390625,6.08580442 L2.45390625,3.73005663 C2.45390625,3.51270683 2.53265625,3.329107 2.69296875,3.17520715 C2.85328125,3.02130729 3.04453125,2.94570736 3.2709375,2.94570736 L5.72625,2.94570736 C5.95265625,2.94570736 6.14390625,3.02130729 6.30421875,3.17520715 C6.4659375,3.329107 6.5446875,3.51270683 6.5446875,3.73005663 Z M5.51390625,0.400959749 C5.79375,0.669609497 5.9315625,0.993609193 5.9315625,1.37430884 C5.9315625,1.75500848 5.79234375,2.07900818 5.51390625,2.34765792 C5.2340625,2.61630767 4.8965625,2.74860755 4.5,2.74860755 C4.1034375,2.74860755 3.7659375,2.61495767 3.48609375,2.34765792 C3.20625,2.07900818 3.0684375,1.75500848 3.0684375,1.37430884 C3.0684375,0.993609193 3.20765625,0.669609497 3.48609375,0.400959749 C3.7659375,0.132310001 4.1034375,1.01249905e-05 4.5,1.01249905e-05 C4.8965625,-0.00133987374 5.2340625,0.132310001 5.51390625,0.400959749 Z" id="形状"></path>
        </g>
    </g>
</svg>