<?xml version="1.0" encoding="UTF-8"?>
<svg width="24px" height="24px" viewBox="0 0 24 24" version="1.1" xmlns="http://www.w3.org/2000/svg" xmlns:xlink="http://www.w3.org/1999/xlink">
    <!-- Generator: Sketch 52.4 (67378) - http://www.bohemiancoding.com/sketch -->
    <title>画板</title>
    <desc>Created with Sketch.</desc>
    <g id="画板" stroke="none" stroke-width="1" fill="none" fill-rule="evenodd">
        <g id="ditu-2" fill="#98ADFA" fill-rule="nonzero">
            <path d="M15.4285714,22.55 L8.57142857,20.75 L8.57142857,13.6616 C9.65753193,15.0482352 10.8237278,16.3635118 12.0634286,17.6 C13.2568246,16.3592557 14.3804386,15.0466365 15.4285714,13.6688 L15.4285714,22.55 Z M17.1428571,22.55 L17.1428571,11.156 C18.1481503,9.49687689 19.0900413,7.79632622 19.9662857,6.0584 L24,5 L24,20.75 L17.1428571,22.55 Z M6.85714286,21.2 L0,23 L0,7.25 L4.09714286,6.1754 C4.957452,7.87422126 5.87809818,9.53858943 6.85714286,11.165 L6.85714286,21.2 Z" id="形状"></path>
            <path d="M8.50978431,7.74041158 C7.51098476,5.486013 8.01544547,2.7146679 9.71139496,1.13914859 C11.4073444,-0.43637071 13.8158242,-0.371116725 15.4483232,1.29458168 C17.0808222,2.96028008 17.4763013,5.75600764 16.3903427,7.95392297 L16.3948424,7.95745208 L13.1475244,14.560424 C13.0133578,14.8325206 12.7661965,15 12.4988108,15 C12.231425,15 11.9842638,14.8325206 11.8500971,14.560424 L8.49178532,7.75452804 L8.50978431,7.74217614 L8.50978431,7.74041158 Z M12.4995607,7.0557635 C13.3279414,7.0557635 13.9994767,6.26574446 13.9994767,5.29120659 C13.9994767,4.31666871 13.3279414,3.52664967 12.4995607,3.52664967 C11.67118,3.52664967 10.9996448,4.31666871 10.9996448,5.29120659 C10.9996448,6.26574446 11.67118,7.0557635 12.4995607,7.0557635 Z" id="形状"></path>
        </g>
    </g>
</svg>