<?xml version="1.0" encoding="UTF-8"?>
<svg width="24px" height="24px" viewBox="0 0 24 24" version="1.1" xmlns="http://www.w3.org/2000/svg" xmlns:xlink="http://www.w3.org/1999/xlink">
    <!-- Generator: Sketch 52.4 (67378) - http://www.bohemiancoding.com/sketch -->
    <title>画板</title>
    <desc>Created with Sketch.</desc>
    <g id="画板" stroke="none" stroke-width="1" fill="none" fill-rule="evenodd">
        <g id="ditu" transform="translate(2.000000, 0.000000)" fill="#98ADFA" fill-rule="nonzero">
            <path d="M13.6007486,2.83245851e-16 C11.1631992,2.83245851e-16 9.1966504,2.20972424 9.1966504,4.93105951 C9.1966504,7.65783745 13.6007486,13.8189405 13.6007486,13.8189405 C13.6007486,13.8189405 17.999991,7.66328012 17.999991,4.93105951 C18.0048467,2.20972424 16.0334423,0 13.6007486,2.83245851e-16 Z M13.7318518,8.0170537 C12.1440458,8.0170537 10.8524359,6.57474601 10.8524359,4.78955007 C10.8524359,3.00435414 12.1391901,1.56204644 13.7318518,1.56204644 C15.3245136,1.56204644 16.6112677,3.00435414 16.6112677,4.78955007 C16.6112677,6.57474601 15.3196579,8.0170537 13.7318518,8.0170537 Z M8.25950493,2.24782293 L2.11707475,2.24782293 C0.951712502,2.24782293 0,3.31458636 0,4.62082729 L0,12.3439768 L5.04990307,15 L8.03128816,6.17198839 C7.89532923,5.65493469 7.81763841,5.17597968 7.81763841,4.76233672 C7.81278273,3.86973875 7.97302004,3.02068215 8.25950493,2.24782293 Z" id="形状"></path>
            <path d="M19.4295572,1 C19.7020267,1.75159839 19.8506465,2.56855316 19.8506465,3.42363249 C19.8506465,7.03457258 13.9108099,15.1823348 13.9108099,15.1823348 C13.9108099,15.1823348 11.32978,11.6476439 9.5711128,8.20009472 L7.3071384,14.7847502 L20.9900647,21.8486858 C20.9950187,21.7724367 20.9999727,21.7016339 20.9999727,21.6253848 L20.9999727,3.282027 C21.0049267,2.19820033 20.3361377,1.28321099 19.4295572,1 Z M0,13.8969927 L0,21.6199384 C0,22.7201042 0.693558899,23.656879 1.62490942,23.9237509 L4.30997316,16.1191096 L0,13.8969927 Z M18.8449861,24 C19.0381918,24 19.2264435,23.9727682 19.4097412,23.9183045 L6.46495974,17.2356145 L4.13658343,24 L18.8449861,24 Z" id="形状"></path>
        </g>
    </g>
</svg>