<?xml version="1.0" encoding="UTF-8"?>
<svg width="16px" height="16px" viewBox="0 0 16 16" version="1.1" xmlns="http://www.w3.org/2000/svg" xmlns:xlink="http://www.w3.org/1999/xlink">
    <!-- Generator: Sketch 52.4 (67378) - http://www.bohemiancoding.com/sketch -->
    <title>画板</title>
    <desc>Created with Sketch.</desc>
    <g id="画板" stroke="none" stroke-width="1" fill="none" fill-rule="evenodd">
        <g id="报警-人体感应" transform="translate(5.000000, 3.000000)" fill="#FFFFFF" fill-rule="nonzero">
            <path d="M4.0424668,3.59008022 C3.89318622,4.124399 3.74390562,4.6420455 3.59462505,5.17641464 C3.57593683,5.25992713 3.65063341,5.37678418 3.70658548,5.44357403 C4.1171071,5.91110296 4.54631694,6.39535454 4.97552678,6.84621119 C5.23676781,7.11337058 5.34872826,7.41392489 5.3860484,7.76459678 C5.44205676,8.33231048 5.51669706,8.90007455 5.57264913,9.46778825 C5.59133735,9.68488045 5.60996929,9.90192226 5.3114081,9.98543475 C5.068799,10.0522246 4.88219827,9.88524997 4.80755797,9.56797302 L4.41566828,7.86478155 C4.37834813,7.74787413 4.30370783,7.59762216 4.21037932,7.51410967 C3.46397638,6.91300104 2.69888522,6.32856469 1.93379406,5.76080062 C1.69118496,5.57710335 1.59791274,5.41012873 1.67255303,5.12629707 C1.85915377,4.5084658 2.00843436,3.89063452 2.19503509,3.22273605 C1.70987319,3.45650052 1.29929528,3.65687005 1.20602305,4.17451656 C1.15001468,4.54186072 1.0007341,4.8925326 0.8514535,5.22648184 C0.814133348,5.32666661 0.646164546,5.37678419 0.534204113,5.46024631 C0.496883961,5.34333889 0.384923527,5.22648184 0.403555452,5.12629707 C0.516348257,4.58859437 0.647036242,4.05402119 0.795445143,3.52329036 C0.851453511,3.35631574 0.963413955,3.18934112 1.11269453,3.08915636 C1.61654467,2.70508956 2.15771494,2.32102274 2.680197,1.95367859 C3.20267906,1.58633443 3.83717785,1.71991412 4.15437096,2.22083797 C4.24769947,2.35441766 4.32233977,2.50472001 4.37829185,2.65497198 C4.71417317,3.52329037 5.2926636,4.20791149 6.1697152,4.69211269 C6.28167564,4.75890254 6.39363608,4.97599473 6.35631592,5.05945685 C6.26298742,5.25982639 6.05775474,5.14296934 5.90847417,5.0761795 C5.79651372,5.02606193 5.68455329,4.95927209 5.57259284,4.90920488 C4.91946212,4.60865057 4.2663314,4.32476853 4.13573903,3.55668529 C4.09841888,3.55668529 4.06109874,3.57335756 4.0424668,3.59008022 Z M1.57922451,5.77752326 C1.91510584,5.99461545 2.23235524,6.17826235 2.51228448,6.39535454 C2.58692477,6.44547211 2.62424493,6.5790518 2.605613,6.66251392 C2.49365256,7.29701747 2.2883636,7.88145382 1.80320169,8.38242804 C1.411312,8.79988977 1.0941189,9.26741871 0.739549356,9.71827536 C0.590268771,9.9186449 0.403668033,10.0522246 0.161058928,9.90197263 C-0.0815501773,9.76839294 -0.00690988437,9.56802339 0.10505056,9.36765385 C0.328971439,9.00030969 0.534260392,8.61624288 0.776813207,8.265571 C1.24334319,7.6143448 1.44857585,6.9130514 1.50458422,6.1449178 C1.52327244,6.04468266 1.54190437,5.94449789 1.57922451,5.77752326 Z M3.6318889,1.5906656e-16 C4.1170508,1.5906656e-16 4.49030857,0.350671884 4.49030857,0.801528541 C4.47162035,1.23566255 4.1171071,1.55293951 3.6318889,1.5529395 C3.12803876,1.5529395 2.77346922,1.21899026 2.79215745,0.768133613 C2.77352552,0.317226586 3.14672699,-1.11933071e-10 3.6318889,1.5906656e-16 Z" id="形状"></path>
        </g>
    </g>
</svg>