<?xml version="1.0" encoding="UTF-8"?>
<svg width="16px" height="16px" viewBox="0 0 16 16" version="1.1" xmlns="http://www.w3.org/2000/svg" xmlns:xlink="http://www.w3.org/1999/xlink">
    <!-- Generator: Sketch 52.4 (67378) - http://www.bohemiancoding.com/sketch -->
    <title>画板</title>
    <desc>Created with Sketch.</desc>
    <g id="画板" stroke="none" stroke-width="1" fill="none" fill-rule="evenodd">
        <g id="crm27" transform="translate(3.000000, 3.000000)" fill="#FFFFFF">
            <path d="M4.85374613,3.90525887 C5.06848297,4.03807583 5.33151703,4.2156543 5.57597523,4.38736241 C6.0596904,4.72637587 7.91504644,4.59576029 8.67219814,4.65666531 C9.42860681,4.71683653 10,4.88194048 10,4.88194048 L8.94489164,3.15311863 C8.94489164,3.15311863 10.0884211,1.45878516 9.94724458,1.49400734 C9.80755418,1.52922951 9.09498452,1.54610681 8.62835913,1.41622503 C8.16173375,1.28634325 7.08879257,1.27753771 6.35839009,1.27753771 C5.81671827,1.27753771 5.15764706,0.817448023 4.85448916,0.580432124 L4.85448916,0 L4,0 L4,9 L4.85374613,9 L4.85374613,3.90525887 Z" id="路径"></path>
            <path d="M5.91868565,7 L5.91868565,7.60083449 C7.03687159,7.75382476 7.80890369,8.08066759 7.80890369,8.4596662 C7.80890369,8.98539638 6.32684737,9.41168289 4.5,9.41168289 C2.67315263,9.41168289 1.19177771,8.98539638 1.19177771,8.4596662 C1.19177771,8.08831711 1.93382798,7.76703755 3.01453664,7.60987483 L3.01453664,7.0069541 C1.25923683,7.21696801 0,7.78929068 0,8.4596662 C0,9.3108484 2.0142338,10 4.5,10 C6.9857662,10 9,9.3108484 9,8.4596662 C8.99931859,7.78025035 7.70805572,7.20305981 5.91868565,7 Z" id="路径"></path>
        </g>
    </g>
</svg>