<?xml version="1.0" encoding="UTF-8"?>
<svg width="24px" height="24px" viewBox="0 0 24 24" version="1.1" xmlns="http://www.w3.org/2000/svg" xmlns:xlink="http://www.w3.org/1999/xlink">
    <!-- Generator: Sketch 52.4 (67378) - http://www.bohemiancoding.com/sketch -->
    <title>画板</title>
    <desc>Created with Sketch.</desc>
    <g id="画板" stroke="none" stroke-width="1" fill="none" fill-rule="evenodd">
        <g id="shehuiliandongliliang" transform="translate(1.000000, 0.000000)" fill="#98ADFA">
            <path d="M4.00002513,12.5113044 C4.00002513,14.8626178 5.2639189,16.9426007 7.25001256,18.1182575 C9.23610623,19.2939142 11.6736156,19.2939142 13.7500126,18.1182575 C15.7361314,16.9426007 17,14.8626178 17,12.5113044 C17,8.89392425 14.1111251,6 10.5,6 C6.88887493,6 4,8.98433421 4,12.5113044 L4.00002513,12.5113044 Z" id="路径"></path>
            <path d="M22.9999762,11.6210512 C22.9999762,10.3578883 22.0594528,9.2631472 20.776921,9.09474893 C19.4943891,4.71580789 15.390311,1.51579539 10.602192,1.51579539 L9.91817501,1.51579539 C9.49066439,0.673686842 8.55014102,0 7.43863721,0 C6.07060322,0 4.87359728,1.17895197 4.87359728,2.61051308 C4.87359728,2.77893479 4.87359728,3.03156735 4.9590994,3.19998906 C1.96654885,4.96841702 0,8.25261694 0,11.9578946 C0,15.6631722 1.96654885,18.9473956 4.9590994,20.8000109 C4.9590994,20.9684326 4.87359728,21.1368544 4.87359728,21.3894869 C4.87359728,22.8210715 6.07062702,24 7.52413933,24 C8.63566694,24 9.49068818,23.3263132 9.91819881,22.4842046 L10.6022158,22.4842046 C15.7323194,22.4842046 19.9219235,18.9473721 20.947949,14.2315642 C22.1449788,13.8947208 23,12.8841905 23,11.6210512 L22.9999762,11.6210512 Z M17.2713339,18.5263178 C15.4757893,20.2947458 13.1672557,21.2210418 10.6021682,21.2210418 L10.0891555,21.2210418 C10.0036533,19.8736681 8.89212572,18.7789504 7.52411553,18.7789504 C6.75459642,18.7789504 5.9850773,19.1157938 5.55756668,19.7052698 C2.99252675,18.0210527 1.28248427,15.2421179 1.28248427,11.9578946 C1.28248427,8.75790551 2.99252675,5.89473643 5.55756668,4.21051933 C6.07057942,4.79999531 6.75459642,5.13683873 7.52411553,5.13683873 C8.89214952,5.13683873 10.0036533,4.04209762 10.0891555,2.69474737 L10.6021682,2.69474737 C13.081706,2.69474737 15.4757655,3.62106678 17.2713339,5.3894713 C18.3828615,6.48421242 19.1523806,7.74737525 19.5798912,9.17893635 C18.5538657,9.51577977 17.7843466,10.4420992 17.7843466,11.6210277 C17.7843466,12.7999563 18.6393679,13.81051 19.7508955,14.1473299 C19.3233849,15.7473362 18.4683636,17.2631081 17.2713577,18.526271 L17.2713339,18.5263178 Z" id="形状" fill-rule="nonzero"></path>
        </g>
    </g>
</svg>