<?xml version="1.0" encoding="UTF-8"?>
<svg width="24px" height="24px" viewBox="0 0 24 24" version="1.1" xmlns="http://www.w3.org/2000/svg" xmlns:xlink="http://www.w3.org/1999/xlink">
    <!-- Generator: Sketch 52.4 (67378) - http://www.bohemiancoding.com/sketch -->
    <title>画板</title>
    <desc>Created with Sketch.</desc>
    <g id="画板" stroke="none" stroke-width="1" fill="none" fill-rule="evenodd">
        <g id="ditu-3" fill="#FFFFFF" fill-rule="nonzero">
            <path d="M12.1488502,0.000927225728 C7.82652236,-0.0526918252 3.80938349,2.22251923 1.63259292,5.95708298 C-0.544197641,9.69164673 -0.544197641,14.3083533 1.63259292,18.042917 C3.80938349,21.7774808 7.82652236,24.0526918 12.1488502,23.9990728 C18.7177051,23.9175853 24,18.5693581 24,12 C24,5.43064191 18.7177051,0.082414743 12.1488502,0.000927225728 Z M23.0366342,12.7562464 C22.7739135,12.7640089 22.4883476,13.1249638 22.1761289,13.0162892 C21.6849556,12.8455148 22.0352498,14.6017742 21.9933667,15.7137484 C21.9514837,16.8296038 21.6164198,16.5715016 20.9006012,16.6141952 C20.1866865,16.6568888 20.6074203,15.5449147 20.7330693,14.130204 C20.8587182,12.717434 20.1448035,12.8882084 19.052038,11.8092247 C17.9592725,10.730241 17.8336235,11.4327448 16.657092,12.158536 C15.4805605,12.8882084 15.4805605,11.345417 14.345912,10.8757874 C13.2112635,10.4042172 14.345912,9.4610768 14.471561,8.34716198 C14.5991137,7.23324718 15.3130285,7.87753239 16.322028,7.87753239 C17.3310275,7.87753239 20.3961015,7.61943018 21.5745368,7.534043 C21.9038894,7.51075558 22.0771328,7.45447766 22.1437648,7.38461538 C22.8840142,9.06885799 23.1919213,10.9173303 23.0385379,12.7562464 L23.0366342,12.7562464 Z M22.1538462,7.38461538 C21.9503414,7.24261068 21.7251543,7.14623434 21.4902668,7.10061448 C20.897204,6.98245352 21.0924808,6.82490559 20.5735508,6.00192493 C20.0546209,5.17894424 20.0546209,6.00192493 19.535691,6.87258457 C19.0167611,7.74117124 18.7762813,7.05500849 18.6967241,6.27763382 C18.6171669,5.49818613 18.4580525,5.63500406 17.3478679,5.17894424 C16.2376834,4.72288443 17.3804141,5.77389502 16.7023698,6.77929962 C16.0225173,7.78677723 15.5831446,6.77929962 15.344473,6.09520987 C15.1058014,5.40697415 16.3823328,4.2170726 17.1399344,2.89035314 C17.899344,1.56363366 16.46189,2.11297845 14.641115,2.52550527 C12.82034,2.9359591 14.7062072,1.33560375 14.641115,0.923076923 C17.9135064,1.54634258 20.7163854,3.95703857 22.1538462,7.38461538 Z M11.4301074,1.84615385 C11.400799,1.9601941 11.3881881,2.07782746 11.3926627,2.19543409 C11.4338518,3.87680966 10.8965214,4.32827293 10.4434413,5.03798062 C9.98848904,5.7495462 9.82186043,5.55818521 9.40996948,5.19032626 C8.99620631,4.82060943 9.40996948,5.19032626 8.7060104,5.64178953 C8.00392356,6.09139493 8.21174126,6.29761889 7.96273446,6.05052171 C7.71559988,5.8052824 7.3842149,6.87170181 7.30183671,8.0941826 C7.21945851,9.31480552 7.17826943,8.80017455 7.09589123,9.3946941 C7.0116408,9.98921363 6.84688443,9.57862358 6.35074305,9.66037002 C5.85460168,9.74211647 5.52508893,9.41327284 5.02894755,9.39283623 C4.53280618,9.37425749 4.78181298,8.75744347 4.53280618,8.22423376 C4.2856716,7.69102404 3.95428663,8.92093634 3.7464689,9.3946941 C3.54052342,9.86473611 3.9130975,10.1527065 4.3680498,10.4388191 C4.82300208,10.7267895 4.94656935,10.4796923 5.02894755,10.8475512 C5.11132575,11.2191259 5.6898453,10.8902823 5.52508893,11.8749553 C5.36033255,12.8596283 6.0212303,12.4880536 6.0212303,12.4880536 C6.83003436,11.291583 7.4665931,11.2599992 7.46659308,11.2599992 C7.92154536,10.8884245 8.79026081,11.2599992 9.20215178,11.997575 C9.61591496,12.7351508 11.3102846,14.1304138 12.7575196,14.2939067 C14.2028824,14.4573995 14.038126,15.1949753 13.2517887,16.0161554 C12.4673237,16.8354777 10.6905759,20.7723117 10.1944345,21.6343651 C9.69829313,22.4945605 7.96273446,22.208448 8.12749083,21.3463947 C8.29411943,20.4861992 8.45887583,18.5595843 7.26064761,17.697531 C6.06241938,16.8354777 6.14479758,16.6719848 5.81341258,15.2469958 C5.48389981,13.8220068 4.90538025,12.9395169 3.70715205,12.4899115 C2.90583694,12.1889359 2.21685569,11.3751873 1.84615385,10.8679878 C2.51004629,6.00080352 6.497139,2.2475624 11.4301074,1.84615385 Z" id="形状"></path>
        </g>
    </g>
</svg>