<?xml version="1.0" encoding="UTF-8"?>
<svg width="16px" height="16px" viewBox="0 0 16 16" version="1.1" xmlns="http://www.w3.org/2000/svg" xmlns:xlink="http://www.w3.org/1999/xlink">
    <!-- Generator: Sketch 52.4 (67378) - http://www.bohemiancoding.com/sketch -->
    <title>画板</title>
    <desc>Created with Sketch.</desc>
    <g id="画板" stroke="none" stroke-width="1" fill="none" fill-rule="evenodd">
        <g id="街景" transform="translate(3.000000, 3.000000)" fill="#FFFFFF" fill-rule="nonzero">
            <path d="M6.63884252,2.5 C6.26182527,2.5 5.95715081,2.85814214 5.95715081,3.30022385 L5.95715081,9.2501399 L5.31858654,9.2501399 L5.31858654,0.825405715 C5.31858654,0.37073308 5.00417362,1.08203344e-08 4.61602672,1.08203344e-08 L1.33973289,0 C0.95158598,0 0.63717307,0.369334087 0.63717307,0.825405715 L0.63717307,9.2501399 L0.318586535,9.2501399 C0.141903174,9.2501399 0,9.41801903 0,9.62506995 C0,9.83212088 0.141903174,10 0.318586535,10 L9.68141346,10 C9.85809683,10 10,9.83212087 10,9.62506995 C10,9.41801902 9.85809683,9.2501399 9.68141346,9.2501399 L9.36282693,9.2501399 L9.36282693,3.30022385 C9.36282693,2.85814214 9.05815247,2.5 8.68113523,2.5 L6.63884252,2.5 Z M4.04145799,9.2501399 L1.91291041,9.2501399 L1.91291041,7.5 L4.04145799,7.5 L4.04145799,9.2501399 Z M1.27573734,1.0002798 L4.68141346,1.0002798 L4.68141346,1.7501399 L1.27573734,1.7501399 L1.27573734,1.0002798 Z M1.27573734,2.24958031 L4.68141346,2.24958031 L4.68141346,2.99944041 L1.27573734,2.99944041 L1.27573734,2.24958031 Z M1.27573734,3.50027981 L4.68141346,3.50027981 L4.68141346,4.25013991 L1.27573734,4.25013991 L1.27573734,3.50027981 Z M1.27573734,4.7495803 L4.68141346,4.7495803 L4.68141346,5.4994404 L1.27573734,5.4994404 L1.27573734,4.7495803 Z M1.27573734,6.0002798 L4.68141346,6.0002798 L4.68141346,6.7501399 L1.27573734,6.7501399 L1.27573734,6.0002798 Z M7.87284363,6.99916061 L8.72426266,6.99916061 L8.72426266,8.24986011 L7.87284363,8.24986011 L7.87284363,6.99916061 Z M6.59571508,6.99916061 L7.44713412,6.99916061 L7.44713412,8.24986011 L6.59571508,8.24986011 L6.59571508,6.99916061 Z M7.87284363,5.2504197 L8.72426266,5.2504197 L8.72426266,6.4997202 L7.87284363,6.4997202 L7.87284363,5.2504197 Z M6.59571508,5.2504197 L7.44713412,5.2504197 L7.44713412,6.4997202 L6.59571508,6.4997202 L6.59571508,5.2504197 Z M7.87284363,3.50027981 L8.72426266,3.50027981 L8.72426266,4.74958031 L7.87284363,4.74958031 L7.87284363,3.50027981 Z M6.59571508,3.50027981 L7.44713412,3.50027981 L7.44713412,4.74958031 L6.59571508,4.74958031 L6.59571508,3.50027981 Z" id="形状"></path>
        </g>
    </g>
</svg>