<?xml version="1.0" encoding="UTF-8"?>
<svg width="16px" height="16px" viewBox="0 0 16 16" version="1.1" xmlns="http://www.w3.org/2000/svg" xmlns:xlink="http://www.w3.org/1999/xlink">
    <!-- Generator: Sketch 52.4 (67378) - http://www.bohemiancoding.com/sketch -->
    <title>画板</title>
    <desc>Created with Sketch.</desc>
    <g id="画板" stroke="none" stroke-width="1" fill="none" fill-rule="evenodd">
        <rect fill="#434AE0" x="0" y="0" width="16" height="16"></rect>
        <g id="风车" transform="translate(2.000000, 2.000000)" fill="#FFFFFF" fill-rule="nonzero">
            <path d="M5.52121567,5.55172601 L2.12441187,5.55172601 C1.61997838,5.55172601 1.4301746,5.19687815 1.69692586,4.76660369 L4.56364702,0.569284908 C5.09201972,-0.284407047 5.51950573,-0.163553066 5.51950573,0.834992244 L5.51950573,5.55172601 L5.52121567,5.55172601 Z M5.53831511,6.45941655 L5.53831511,9.86304181 C5.53831511,10.3687429 5.18350173,10.5590236 4.75430578,10.291602 L0.567507835,7.41853432 C-0.283189316,6.88883389 -0.163493235,6.46027367 0.832549159,6.46027367 L5.53831511,6.46027367 L5.53831511,6.45941655 Z M6.43603573,6.44827399 L9.83112959,6.44827399 C10.3355631,6.44827399 10.5262218,6.80312185 10.2594706,7.23339631 L7.39189444,11.4307151 C6.8643767,12.284407 6.43603573,12.1635531 6.43603573,11.1650078 L6.43603573,6.44827399 Z M6.46168489,5.52858376 L6.46168489,2.12581562 C6.46168489,1.62011456 6.81649827,1.42983383 7.24569422,1.6972554 L11.4324922,4.57118023 C12.2831893,5.10088066 12.1634932,5.52944088 11.1674508,5.52944088 L6.46168489,5.52944088 L6.46168489,5.52858376 Z" id="形状"></path>
        </g>
    </g>
</svg>