<?xml version="1.0" encoding="UTF-8"?>
<svg width="16px" height="16px" viewBox="0 0 16 16" version="1.1" xmlns="http://www.w3.org/2000/svg" xmlns:xlink="http://www.w3.org/1999/xlink">
    <!-- Generator: Sketch 52.4 (67378) - http://www.bohemiancoding.com/sketch -->
    <title>画板</title>
    <desc>Created with Sketch.</desc>
    <g id="画板" stroke="none" stroke-width="1" fill="none" fill-rule="evenodd">
        <g id="分组-13" transform="translate(4.000000, 2.000000)" fill="#FFFFFF">
            <g id="分组-12">
                <g id="daorudaochu-2" transform="translate(4.227273, 3.272727) rotate(90.000000) translate(-4.227273, -3.272727) translate(1.727273, 0.772727)" fill-rule="nonzero">
                    <path d="M0.75,2.44318182 C0.611928813,2.44318182 0.5,2.31598999 0.5,2.15909091 C0.5,2.00219183 0.611928813,1.875 0.75,1.875 L2.75,1.875 L2.75,0.454545455 L4.5,2.44318182 L0.75,2.44318182 Z M4.25,3.01136364 C4.38807119,3.01136364 4.5,3.13855547 4.5,3.29545455 C4.5,3.45235362 4.38807119,3.57954545 4.25,3.57954545 L2.25,3.57954545 L2.25,5 L0.5,3.01136364 L4.25,3.01136364 Z" id="形状"></path>
                </g>
                <g id="sanwei" transform="translate(0.000000, 5.545455)">
                    <path d="M4.44444444,0 L0,0.606060606 L2.88888889,1.51515152 L8,0.909090909 L4.44444444,0 Z M0,4.24242424 L2.66666667,5.45454545 L2.66666667,1.81818182 L0,0.909090909 L0,4.24242424 Z M1.33333333,3.06060606 L1.33333333,2.78787879 C1.33333333,2.90909091 1.68888889,2.87878788 1.68888889,2.66666667 C1.68888889,2.51515152 1.55555556,2.39393939 1.42222222,2.33333333 C1.28888889,2.3030303 1.2,2.36363636 1.15555556,2.48484848 L0.711111111,2.3030303 C0.755555556,1.96969697 0.933333333,1.87878788 1.37777778,2.03030303 C1.77777778,2.24242424 2.08888889,2.48484848 2.08888889,2.75757576 C2.08888889,3 1.77777778,3.12121212 1.77777778,3.09090909 C1.77777778,3.27272727 2.08888889,3.48484848 2.08888889,3.75757576 C2.04444444,4.03030303 1.73333333,4.12121212 1.33333333,4 C0.888888889,3.81818182 0.666666667,3.54545455 0.666666667,3.18181818 L1.11111111,3.36363636 C1.11111111,3.54545455 1.2,3.66666667 1.33333333,3.75757576 C1.46666667,3.81818182 1.68888889,3.72727273 1.68888889,3.57575758 C1.68888889,3.33333333 1.33333333,3.18181818 1.33333333,3.06060606 Z M3.11111111,5.45454545 L8,4.54545455 L8,1.21212121 L3.11111111,1.81818182 L3.11111111,5.45454545 Z M4.88888889,2.48484848 L5.77777778,2.3030303 C6.75555556,2.15151515 7.24444444,2.39393939 7.24444444,3.03030303 C7.24444444,3.66666667 6.75555556,4.09090909 5.77777778,4.27272727 L4.88888889,4.45454545 L4.88888889,2.48484848 Z" id="形状" fill-rule="nonzero"></path>
                    <path d="M6.82727051,3.10160428 C6.82727051,2.70944742 6.31998698,2.58467023 5.30541992,2.72727273 L5.30541992,4.00251765 C6.31998698,3.75841497 6.82727051,3.45811052 6.82727051,3.10160428 Z" id="路径"></path>
                </g>
            </g>
        </g>
    </g>
</svg>