<?xml version="1.0" encoding="UTF-8"?>
<svg width="16px" height="16px" viewBox="0 0 16 16" version="1.1" xmlns="http://www.w3.org/2000/svg" xmlns:xlink="http://www.w3.org/1999/xlink">
    <!-- Generator: Sketch 52.4 (67378) - http://www.bohemiancoding.com/sketch -->
    <title>画板</title>
    <desc>Created with Sketch.</desc>
    <g id="画板" stroke="none" stroke-width="1" fill="none" fill-rule="evenodd">
        <g id="sanweijianmo-2" transform="translate(3.000000, 3.000000)" fill="#FFFFFF" fill-rule="nonzero">
            <g id="sanweijianmo">
                <path d="M4.2358684,8.81132597 C3.99256867,8.81064051 3.79551291,8.62172433 3.79479792,8.38847433 L3.79479792,4.86230353 L0.384615385,2.97485 L0.384615385,7.66339476 L4.60617046,10 L4.60617046,8.81132597 L4.2358684,8.81132597 Z M3.79479792,1.85107919 C3.79551291,1.6178292 3.99256867,1.42891301 4.2358684,1.42822755 L5.79472662,1.42822755 C6.03802635,1.42891301 6.23508211,1.6178292 6.23579711,1.85107919 L6.23579711,4.0038514 L9.23485322,2.34400492 L5,0 L0.79211504,2.32867064 L3.79479792,3.99056764 L3.79479792,1.85107919 Z M6.2358901,4.87567645 L6.2358901,8.38838518 C6.23517511,8.62163517 6.03811934,8.81055136 5.79481961,8.81123682 L5.39364355,8.81123682 L5.39364355,10 L9.61538462,7.66339476 L9.61538462,3.0052511 L6.2358901,4.87567645 Z" id="形状"></path>
                <path d="M4.23076923,2.30769231 L5.76923077,2.30769231 L5.76923077,6.40070013 L4.23076923,6.40070013 L4.23076923,2.30769231 Z M4.23076923,7.30925365 L5.76923077,7.30925365 L5.76923077,8.46153846 L4.23076923,8.46153846 L4.23076923,7.30925365 Z" id="形状"></path>
            </g>
        </g>
    </g>
</svg>