<?xml version="1.0" encoding="UTF-8"?>
<svg width="16px" height="16px" viewBox="0 0 16 16" version="1.1" xmlns="http://www.w3.org/2000/svg" xmlns:xlink="http://www.w3.org/1999/xlink">
    <!-- Generator: Sketch 52.4 (67378) - http://www.bohemiancoding.com/sketch -->
    <title>画板</title>
    <desc>Created with Sketch.</desc>
    <g id="画板" stroke="none" stroke-width="1" fill="none" fill-rule="evenodd">
        <g id="huizhixuankuang" transform="translate(3.000000, 3.000000)" fill="#FFFFFF" fill-rule="nonzero">
            <path d="M3.19354839,0 L4.96774194,0 L4.96774194,1.06451613 L3.19354839,1.06451613 L3.19354839,0 Z M5.67802303,0 L7.4516129,0 L7.4516129,1.06451613 L5.67741935,1.06451613 L5.67741935,0 L5.67802303,0 Z M3.19354839,9.58064516 L4.96774194,9.58064516 L4.96774194,10.6451613 L3.19354839,10.6451613 L3.19354839,9.58064516 Z M1.07292377,2.12903226 L0,2.12903226 L0,0.532534275 C0,0.238646065 0.238126156,0 0.531580029,0 L2.12903226,0 L2.12903226,1.03965716 L1.07238134,1.03965716 L1.07238134,2.12903226 L1.07292377,2.12903226 Z M1.07292377,8.51612903 L0,8.51612903 L0,10.1122129 C0,10.4060249 0.238126156,10.6451613 0.531580029,10.6451613 L2.12903226,10.6451613 L2.12903226,9.60466926 L1.07238134,9.60466926 L1.07238134,8.51612903 L1.07292377,8.51612903 Z M9.57277995,2.12903226 L10.6451613,2.12903226 L10.6451613,0.532535331 C10.6450278,0.390761568 10.5889282,0.254996108 10.4894843,0.155784153 C10.3891131,0.0556284837 10.2541011,-0.000323566004 10.1135813,1.4077202e-06 L8.51612903,0 L8.51612903,1.03965788 L9.57277995,1.03965788 L9.57277995,2.12903226 Z M1.05536247,4.61290323 L0,4.61290323 L0,3.19354839 L1.06451613,3.19354839 L1.05536247,4.61290323 Z M10.6354741,4.61290323 L9.58064516,4.61290323 L9.58064516,3.19354839 L10.6451613,3.19354839 L10.6354741,4.61290323 Z M8.67646316,7.46775286 L10.3390037,10.33376 C10.3744628,10.3951029 10.3841255,10.468261 10.36583,10.5368651 C10.3475344,10.6054693 10.3028078,10.6637929 10.2416576,10.698786 L9.77734938,10.9642595 C9.64949097,11.037677 9.48706184,10.9944623 9.41148109,10.8669192 L7.74292478,7.9909568 L6.32101511,9.84097494 C6.27865117,9.89534317 6.20713154,9.91701945 6.14218262,9.89517578 C6.07726489,9.87374419 6.03320116,9.81269458 6.03280495,9.74363468 L6.03280495,4.16979824 L6.03225806,4.16979824 C6.03225806,4.07190491 6.0869469,3.98175454 6.17390214,3.93474362 C6.26119097,3.88838483 6.36645921,3.89346434 6.44898698,3.94801729 L10.9280024,6.92021386 C10.9842221,6.95682064 11.0113372,7.02542778 10.9955556,7.09113802 C10.979774,7.15684825 10.9245609,7.20523316 10.8580007,7.21168159 L8.67646316,7.46830593 L8.67646316,7.46775286 Z M1.05536247,7.4516129 L0,7.4516129 L0,6.03225806 L1.06451613,6.03225806 L1.05536247,7.4516129 Z" id="形状"></path>
        </g>
    </g>
</svg>