<?xml version="1.0" encoding="UTF-8"?>
<svg width="16px" height="16px" viewBox="0 0 16 16" version="1.1" xmlns="http://www.w3.org/2000/svg" xmlns:xlink="http://www.w3.org/1999/xlink">
    <!-- Generator: Sketch 52.4 (67378) - http://www.bohemiancoding.com/sketch -->
    <title>画板</title>
    <desc>Created with Sketch.</desc>
    <g id="画板" stroke="none" stroke-width="1" fill="none" fill-rule="evenodd">
        <g id="huizhi" transform="translate(3.000000, 3.000000)" fill="#FFFFFF">
            <path d="M3.06101182,9.5831855 L1.97488599,9.5831855 C1.87612361,9.32736216 1.65888399,9.13058717 1.42191502,9.03217806 L1.42191502,1.96782194 C1.67865671,1.86941283 1.87612361,1.65293584 1.97488599,1.4168145 L9.02511401,1.4168145 C9.18309331,1.79070572 9.55831225,2.04652906 9.97303325,2.04652906 C10.5457914,2.04652906 11,1.59393073 11,1.0232357 C11,0.452583914 10.5457914,1.26673008e-10 9.97303325,0 C9.53859738,0 9.16337844,0.255823338 9.02511401,0.62970014 L1.97488599,0.62970014 C1.81684883,0.255823339 1.44162989,1.26673188e-10 1.0269089,1.80013285e-16 C0.454208591,1.80013285e-16 1.27127737e-10,0.452583914 0,1.0232357 C0,1.45617527 0.256741688,1.83005207 0.631960626,1.96782194 L0.631960626,9.03217806 C0.256741688,9.18959228 1.27127917e-10,9.54382473 1.80659493e-16,9.97670665 C1.80659493e-16,10.5474161 0.454208591,11 1.0269089,11 C1.46140262,11 1.83663602,10.7441767 1.97488599,10.3702999 L3.06101182,10.3702999 C3.27826591,10.3702999 3.45601795,10.1931836 3.45601795,9.97670665 C3.45601795,9.76030172 3.27826591,9.5831855 3.06101182,9.5831855 Z" id="路径"></path>
            <path d="M4.00592627,9.78808301 C3.97174444,9.90822249 4.09141841,10.0283746 4.21110491,9.99404719 L5.62996393,9.59933907 L4.3991175,8.36369222 L4.00592627,9.78808301 Z M9.25415206,4.10763957 C9.10028374,3.95317271 8.8438574,3.97030497 8.6729232,4.12477183 L8.07456586,4.7254567 L9.27123045,5.92673847 L9.86953771,5.3260913 C10.040522,5.15449219 10.040522,4.89706838 9.88665367,4.74258896 L9.25415206,4.10763957 Z M4.80941216,7.9346693 L5.97189493,9.17030358 L8.92934954,6.26998697 L7.73268494,5.0686675 L4.80941216,7.9346693 Z" id="形状" fill-rule="nonzero"></path>
        </g>
    </g>
</svg>