<?xml version="1.0" encoding="UTF-8"?>
<svg width="16px" height="16px" viewBox="0 0 16 16" version="1.1" xmlns="http://www.w3.org/2000/svg" xmlns:xlink="http://www.w3.org/1999/xlink">
    <!-- Generator: Sketch 52.4 (67378) - http://www.bohemiancoding.com/sketch -->
    <title>画板</title>
    <desc>Created with Sketch.</desc>
    <g id="画板" stroke="none" stroke-width="1" fill="none" fill-rule="evenodd">
        <g id="lashen_" transform="translate(3.000000, 3.000000)" fill="#FFFFFF" fill-rule="nonzero">
            <path d="M9.94399909,5.62631451 L5.70184062,3.85183108 L5.70184062,1.80035946 L6.4035884,1.80035946 L5.00009285,0 L3.59659728,1.80035946 L4.29834506,1.80035946 L4.29834506,3.91454538 L0.0563107946,5.62580464 C0.0131356866,5.64249727 -0.0098160416,5.69089426 0.00402126823,5.73606455 C0.00158112755,5.7443355 0.000285036928,5.7529172 0.000170977727,5.76155817 L0.000170977727,7.74164766 C0.000200692361,7.77842888 0.022037271,7.81148957 0.0553171681,7.82513926 L4.99984443,10 L9.94474431,7.82513926 C9.97799798,7.81147788 9.99979128,7.77840824 9.9997663,7.74164766 L9.9997663,5.76155817 C9.99979661,5.75293365 9.98666067,5.64329305 9.94399909,5.62631451 Z M4.91240542,9.76558616 L0.17591843,7.68224752 L0.17591843,5.84186308 L4.91240542,7.75133522 L4.91240542,9.76558616 Z M9.82463987,7.68224752 L5.08790446,9.76558616 L5.08790446,7.75159017 L9.82463987,5.84186308 L9.82463987,7.68224752 Z" id="形状"></path>
        </g>
    </g>
</svg>