<?xml version="1.0" encoding="UTF-8"?>
<svg width="16px" height="16px" viewBox="0 0 16 16" version="1.1" xmlns="http://www.w3.org/2000/svg" xmlns:xlink="http://www.w3.org/1999/xlink">
    <!-- Generator: Sketch 52.4 (67378) - http://www.bohemiancoding.com/sketch -->
    <title>画板</title>
    <desc>Created with Sketch.</desc>
    <g id="画板" stroke="none" stroke-width="1" fill="none" fill-rule="evenodd">
        <g id="kelong-2" transform="translate(3.000000, 3.000000)" fill="#FFFFFF">
            <g id="kelong">
                <path d="M2,2 L0.666666667,2 C0.297979798,2 0,2.2979798 0,2.66666667 L0,9.33333333 C0,9.7020202 0.297979798,10 0.666666667,10 L7.33333333,10 C7.7020202,10 8,9.7020202 8,9.33333333 L8,8 L7.33333333,8 L7.33333333,9.2020202 C7.33333333,9.27777778 7.27272727,9.33333333 7.2020202,9.33333333 L0.797979798,9.33333333 C0.722222222,9.33333333 0.666666667,9.27272727 0.666666667,9.2020202 L0.666666667,2.7979798 C0.666666667,2.72222222 0.727272727,2.66666667 0.797979798,2.66666667 L2,2.66666667 L2,2 Z" id="路径"></path>
                <path d="M2.66666667,0 L9.33333333,0 C9.7020202,0 10,0.297979798 10,0.666666667 L10,7.33333333 C10,7.7020202 9.7020202,8 9.33333333,8 L2.66666667,8 C2.2979798,8 2,7.7020202 2,7.33333333 L2,0.666666667 C2,0.297979798 2.2979798,0 2.66666667,0 Z M7.76767677,2.92424242 C7.4040404,2.36868687 6.77272727,1.99494949 6.05050505,2 C4.91919192,2 4,2.92424242 4,4.05050505 C4,5.18181818 4.92424242,6.1010101 6.05050505,6.1010101 C7.18181818,6.1010101 8.1010101,5.17676768 8.1010101,4.05050505 C8.1010101,3.71717172 8.02020202,3.40909091 7.88383838,3.13131313 L7.88383838,3.14141414 C7.88888889,3.22727273 7.86363636,3.3030303 7.8030303,3.36868687 L5.77777778,5.5959596 L4.28787879,4.11616162 C4.23232323,4.06060606 4.1969697,3.98484848 4.1969697,3.9040404 C4.1969697,3.82323232 4.23232323,3.74747475 4.28787879,3.69191919 C4.34343434,3.63636364 4.42424242,3.6010101 4.5,3.6010101 C4.58585859,3.6010101 4.65656566,3.63636364 4.71212121,3.69191919 L5.75252525,4.72727273 L7.35858586,2.95959596 C7.40909091,2.8989899 7.49494949,2.85858586 7.57575758,2.85858586 C7.65151515,2.85858586 7.71212121,2.87878788 7.76767677,2.92424242 Z" id="形状" fill-rule="nonzero"></path>
            </g>
        </g>
    </g>
</svg>