<?xml version="1.0" encoding="UTF-8"?>
<svg width="16px" height="16px" viewBox="0 0 16 16" version="1.1" xmlns="http://www.w3.org/2000/svg" xmlns:xlink="http://www.w3.org/1999/xlink">
    <!-- Generator: Sketch 52.4 (67378) - http://www.bohemiancoding.com/sketch -->
    <title>画板</title>
    <desc>Created with Sketch.</desc>
    <g id="画板" stroke="none" stroke-width="1" fill="none" fill-rule="evenodd">
        <g id="anguanjianzichaxun" transform="translate(2.000000, 3.000000)" fill="#FFFFFF" fill-rule="nonzero">
            <path d="M7.50013396,9 C5.57029127,9 4,7.42970873 4,5.50013396 C4,3.57029127 5.57029127,2 7.50013396,2 C9.42970873,2 11,3.57029127 11,5.50013396 C11,7.42970873 9.42997665,9 7.50013396,9 Z M7.50013396,2.97979102 C6.11042217,2.97979102 4.97979102,4.11042217 4.97979102,5.50013396 C4.97979102,6.88984575 6.11042217,8.01994106 7.50013396,8.01994106 C8.88984575,8.01994106 10.0199411,6.88957783 10.0199411,5.50013396 C10.0199411,4.11042217 8.88957783,2.97979102 7.50013396,2.97979102 Z" id="形状"></path>
            <path d="M11.4934887,10 C11.3637897,10 11.2340908,9.95132223 11.1351539,9.85369322 L9.58347825,8.32253124 C9.45206223,8.19682104 9.39943516,8.01101686 9.44575476,7.83628718 C9.49207437,7.6615575 9.63016188,7.52498249 9.80712573,7.47887439 C9.98449175,7.4332048 10.1729432,7.48516422 10.3001479,7.61533623 L11.8518235,9.14649821 C11.9964876,9.28952334 12.0397206,9.50447124 11.9615687,9.69125168 C11.8830768,9.87802734 11.6983962,9.99984376 11.4934887,10 Z M8.31392548,4.21582301 C8.19475768,4.09276123 8.02515142,4.03123034 7.80510669,4.03123034 C7.58367629,4.03123034 7.40797307,4.10998988 7.27799703,4.26723549 C7.18127712,4.38236661 7.10367948,4.53797139 7.04437272,4.73377636 L6.33851136,7.08781141 L6.82515939,7.09027265 L7.14109263,6.15746438 L8.49905127,6.15746438 L8.7947537,7.09027265 L9.29553559,7.09027265 L8.52731899,4.59293899 C8.4790976,4.43952197 8.40815119,4.31399896 8.31392548,4.21582301 Z M7.24584944,5.71827057 L7.54764882,4.74389477 C7.56427689,4.68892717 7.59226746,4.63833511 7.63023488,4.59485328 C7.68122761,4.53250198 7.74302858,4.5015998 7.81536067,4.5015998 C7.87814787,4.50030288 7.93811999,4.52727574 7.9783157,4.57488993 C8.02265721,4.62384117 8.05619048,4.68127 8.07697556,4.7436213 L8.37267798,5.71827057 L7.24584944,5.71827057 Z M8.87179707,0.666721361 L0.324417364,0.666721361 C0.143160657,0.659475058 2.84217094e-13,0.512367845 2.84217094e-13,0.33336068 C2.84217094e-13,0.154353515 0.143160657,0.0072463029 0.324417364,0 L8.87151993,0 C9.05277992,0.00717257806 9.19600213,0.154221954 9.19607654,0.333229372 C9.19615095,0.51223679 9.05305103,0.659402055 8.87179707,0.666721361 Z M4.09538538,3.57699565 L0.324417364,3.57699565 C0.143160657,3.56974935 5.54223334e-13,3.42264214 5.54223334e-13,3.24363497 C5.54223334e-13,3.06462781 0.143160657,2.91752059 0.324417364,2.91027429 L4.09538538,2.91027429 C4.281962,2.91027429 4.43321224,3.05952495 4.43321224,3.24363497 C4.43321224,3.42774499 4.281962,3.57699565 4.09538538,3.57699565 Z M3.49178662,6.48754341 L0.324417364,6.48754341 C0.143160657,6.48029711 0,6.3331899 0,6.15418273 C0,5.97517557 0.143160657,5.82806836 0.324417364,5.82082205 L3.49178662,5.82082205 C3.67304333,5.82806836 3.81620399,5.97517557 3.81620399,6.15418273 C3.81620399,6.3331899 3.67304333,6.48029711 3.49178662,6.48754341 Z M4.09538538,9.39836465 L0.324417364,9.39836465 C0.143160657,9.39111834 0,9.24401113 0,9.06500397 C0,8.8859968 0.143160657,8.73888959 0.324417364,8.73164328 L4.09538538,8.73164328 C4.281962,8.73164328 4.43321224,8.88089395 4.43321224,9.06500397 C4.43321224,9.24911399 4.281962,9.39836465 4.09538538,9.39836465 Z" id="形状"></path>
        </g>
    </g>
</svg>