<?xml version="1.0" encoding="UTF-8"?>
<svg width="16px" height="16px" viewBox="0 0 16 16" version="1.1" xmlns="http://www.w3.org/2000/svg" xmlns:xlink="http://www.w3.org/1999/xlink">
    <!-- Generator: Sketch 52.4 (67378) - http://www.bohemiancoding.com/sketch -->
    <title>画板</title>
    <desc>Created with Sketch.</desc>
    <g id="画板" stroke="none" stroke-width="1" fill="none" fill-rule="evenodd">
        <g id="jihe-2" transform="translate(2.000000, 3.000000)" fill="#FFFFFF">
            <g id="jihe">
                <polygon id="路径" fill-opacity="0.6" points="6.46153846 3.66666667 0.923076923 1.76877935 6.46153846 0.916666667 12 1.76877935"></polygon>
                <path d="M5.99442415,2.75 C5.95002579,2.75 5.90562742,2.7405822 5.87232865,2.73116439 L0.322533,1.35616439 C0.12274035,1.30907534 -0.0104547356,1.1395548 0.000644851352,0.97003425 C0.0117444383,0.791095892 0.178238313,0.649828776 0.38913055,0.62157535 L5.93892618,0 L6.0610217,0 L11.6108173,0.62157535 C11.8217096,0.640410971 11.9771039,0.791095904 11.999303,0.97003425 C12.0104026,1.14897261 11.8883071,1.30907534 11.6774149,1.35616439 L6.12761925,2.73116439 C6.08322089,2.7405822 6.03882252,2.75000001 5.99442415,2.75 Z M2.58684963,1.13013699 L5.99442415,1.97773973 L9.40199867,1.13013699 L5.99442415,0.744006857 L2.58684963,1.13013699 Z" id="形状" fill-rule="nonzero"></path>
                <path d="M5.98408488,11 C5.90610079,11 5.83925729,10.9783803 5.77241379,10.9459508 C5.6275862,10.8702818 5.53846154,10.7297539 5.53846154,10.5676062 L5.53846154,2.92504524 C5.53846154,2.73046801 5.67214855,2.56832033 5.86153846,2.51427109 L11.4318302,0.936033617 C11.5655172,0.892794237 11.7103448,0.925223775 11.8217507,1.00089269 C11.9331565,1.08737145 12,1.20627976 12,1.34680776 L12,7.15169491 C12,7.30303275 11.9220159,7.4327509 11.7883289,7.51922968 L6.21803713,10.9351409 C6.15119362,10.9783803 6.06206896,11 5.98408488,11 Z M6.42970822,3.24934061 L6.42970822,9.77848743 L11.1087533,6.90306846 L11.1087533,1.91972958 L6.42970822,3.24934061 Z" id="形状" fill-rule="nonzero"></path>
                <polygon id="路径" fill-opacity="0.6" points="6.46153846 2.49453552 6.46153846 10.0833333 0.923076923 6.69145198 0.923076923 0.916666667"></polygon>
                <path d="M6.01591512,11 C5.93793104,11 5.84880636,10.9784083 5.78196287,10.9352248 L0.21167109,7.52373305 C0.0779840828,7.44816203 0,7.30781585 0,7.1566738 L0,1.34850107 C0,1.20815489 0.0668435036,1.08940043 0.178249338,1.00303355 C0.289655173,0.916666672 0.434482759,0.895074946 0.568169766,0.938258384 L6.13846154,2.51445396 C6.32785145,2.56843327 6.46153846,2.74116701 6.46153846,2.92469665 L6.46153846,10.5681656 C6.46153846,10.7301035 6.3724138,10.8704497 6.22758621,10.9460207 C6.16074271,10.9784083 6.09389921,11 6.01591512,11 Z M0.891246677,6.90836902 L5.57029178,9.78006781 L5.57029178,3.2593683 L0.891246677,1.93147751 L0.891246677,6.90836902 Z" id="形状" fill-rule="nonzero"></path>
                <path d="M0.445777375,7.33333333 C0.245257955,7.33333333 0.055878512,7.14617628 0.0113186456,6.88703573 C-0.044381198,6.57030839 0.111578356,6.26797777 0.345517665,6.19599428 L2.01651279,5.72090329 C2.26159208,5.6489198 2.49553139,5.85047356 2.55123121,6.15280419 C2.60693106,6.46953152 2.4509715,6.77186214 2.2170322,6.84384563 L0.546037085,7.31893662 C0.512617182,7.31893662 0.479197278,7.33333332 0.445777375,7.33333333 Z M3.45356858,6.46953152 C3.25304916,6.46953152 3.06366971,6.28237446 3.01910985,6.02323393 C2.96341,5.7065066 3.11936956,5.40417598 3.35330887,5.33219248 L3.95486711,5.15943212 C4.1999464,5.08744862 4.43388571,5.28900239 4.48958555,5.59133301 C4.5452854,5.90806035 4.38932584,6.21039097 4.15538653,6.28237446 L3.55382829,6.45513483 C3.50926842,6.46953152 3.47584852,6.46953152 3.45356858,6.46953152 Z M5.16912357,5.98004384 C4.96860415,5.98004384 4.77922471,5.79288678 4.73466484,5.53374623 C4.678965,5.2170189 4.83492455,4.91468828 5.06886386,4.84270478 L5.91550138,4.59796094 C6.16058066,4.52597745 6.39451997,4.72753122 6.45021982,5.02986184 C6.50591966,5.34658917 6.34996011,5.6489198 6.1160208,5.72090329 L5.26938326,5.96564713 C5.2248234,5.98004382 5.20254346,5.98004382 5.16912357,5.98004384 Z" id="形状" fill-rule="nonzero"></path>
                <path d="M6.82899331,5.98040571 C6.79563679,5.98040571 6.76228027,5.98040571 6.72892376,5.96601285 L5.88389197,5.72133445 C5.6392775,5.64937021 5.49473259,5.34712043 5.55032679,5.03047779 C5.60592099,4.71383515 5.83941661,4.52672813 6.08403108,4.59869238 L6.92906286,4.84337077 C7.17367733,4.91533502 7.31822224,5.2175848 7.26262804,5.53422744 C7.21815268,5.79329869 7.04025125,5.98040571 6.82899331,5.98040571 Z M8.99716697,6.59929813 C8.96381045,6.59929813 8.93045393,6.59929813 8.89709743,6.58490529 L8.44122501,6.45536966 C8.19661054,6.38340541 8.05206563,6.08115563 8.10765983,5.76451299 C8.16325404,5.44787035 8.39674966,5.26076334 8.64136412,5.33272758 L9.09723653,5.46226321 C9.341851,5.53422746 9.48639591,5.83647724 9.4308017,6.15311986 C9.38632635,6.41219111 9.20842492,6.59929813 8.99716697,6.59929813 Z M11.5433812,7.33333333 C11.5100247,7.33333333 11.4766681,7.33333333 11.4433116,7.31894047 L10.0979321,6.93033361 C9.8533176,6.85836936 9.70877269,6.55611958 9.76436689,6.23947694 C9.8199611,5.9228343 10.0534567,5.73572729 10.2980712,5.80769154 L11.6545696,6.1962984 C11.899184,6.26826264 12.043729,6.57051243 11.9881347,6.88715507 C11.9325405,7.14622632 11.7435203,7.33333333 11.5433812,7.33333333 Z" id="形状" fill-rule="nonzero"></path>
                <path d="M6,6.41666667 C5.74615384,6.41666667 5.53846154,6.22300469 5.53846154,5.98630673 L5.53846154,2.26369328 C5.53846154,2.02699531 5.74615385,1.83333335 6,1.83333333 C6.25384615,1.83333332 6.46153846,2.02699531 6.46153846,2.26369328 L6.46153846,5.99706573 C6.46153846,6.22300469 6.25384615,6.41666667 6,6.41666667 Z" id="路径"></path>
                <path d="M6,1.83333333 C5.74615384,1.83333333 5.53846154,1.56720429 5.53846154,1.24193549 L5.53846154,0.591397845 C5.53846154,0.266129023 5.74615385,0 6,0 C6.25384615,0 6.46153846,0.266129041 6.46153846,0.591397845 L6.46153846,1.24193549 C6.46153846,1.56720431 6.25384615,1.83333333 6,1.83333333 Z" id="路径"></path>
            </g>
        </g>
    </g>
</svg>