<?xml version="1.0" encoding="UTF-8"?>
<svg width="16px" height="16px" viewBox="0 0 16 16" version="1.1" xmlns="http://www.w3.org/2000/svg" xmlns:xlink="http://www.w3.org/1999/xlink">
    <!-- Generator: Sketch 52.4 (67378) - http://www.bohemiancoding.com/sketch -->
    <title>画板</title>
    <desc>Created with Sketch.</desc>
    <g id="画板" stroke="none" stroke-width="1" fill="none" fill-rule="evenodd">
        <g id="shanchu" transform="translate(4.000000, 3.000000)" fill="#FFFFFF" fill-rule="nonzero">
            <path d="M7.02221875,1.25 L0.97778125,1.25 C0.444447917,1.25 0,1.66666992 0,2.16666992 L0,2.5 L8,2.5 L8,2.16666992 C8,1.66666992 7.55555208,1.25 7.02221875,1.25 Z M5.24444792,0.666669922 L5.42221875,1.66666992 L2.57778125,1.66666992 L2.75555208,0.666669922 L5.24444792,0.666669922 Z M5.33333333,0 L2.66666667,0 C2.4,0 2.13333333,0.25 2.13333333,0.5 L1.86666667,1.75 C1.86666667,2 2.04444792,2.25 2.31111458,2.25 L5.6,2.25 C5.86666667,2.25 6.04444792,2 6.04444792,1.75 L5.86666667,0.5 C5.86666667,0.25 5.6,0 5.33333333,0 Z M7.2,3.16666992 L0.8,3.16666992 C0.444447917,3.16666992 0.17778125,3.41666992 0.17778125,3.75 L0.711114583,9.41666992 C0.711114583,9.75 1.06666667,10 1.42221875,10 L6.4,10 C6.75555208,10 7.11111458,9.75 7.11111458,9.41666992 L7.64444792,3.75 C7.82221875,3.41666992 7.55555208,3.16666992 7.2,3.16666992 Z M2.66666667,8.75 L1.68888542,8.75 L1.33333333,4.41666992 L2.66666667,4.41666992 L2.66666667,8.75 Z M4.71111458,8.75 L3.37778125,8.75 L3.37778125,4.41666992 L4.71111458,4.41666992 L4.71111458,8.75 Z M6.31111458,8.75 L5.33333333,8.75 L5.33333333,4.41666992 L6.66666667,4.41666992 L6.31111458,8.75 Z" id="形状"></path>
        </g>
    </g>
</svg>