<?xml version="1.0" encoding="UTF-8"?>
<svg width="16px" height="16px" viewBox="0 0 16 16" version="1.1" xmlns="http://www.w3.org/2000/svg" xmlns:xlink="http://www.w3.org/1999/xlink">
    <!-- Generator: Sketch 52.4 (67378) - http://www.bohemiancoding.com/sketch -->
    <title>画板</title>
    <desc>Created with Sketch.</desc>
    <g id="画板" stroke="none" stroke-width="1" fill="none" fill-rule="evenodd">
        <g id="分组-2" transform="translate(3.000000, 4.000000)" fill="#FFFFFF">
            <g id="分组" transform="translate(0.000000, 2.000000)">
                <g id="dingdianfaxian-2">
                    <g id="dingdianfaxian">
                        <polygon id="路径" points="2.08125 5.75625 0.36875 3.7625 4.8 0.23125"></polygon>
                        <polygon id="路径" points="4.95 0.225 5.04375 0.225 7.79375 5.80625 2.16875 5.80625"></polygon>
                        <polygon id="路径" points="5.19375 0.23125 9.63125 3.7625 7.9125 5.75625"></polygon>
                    </g>
                </g>
            </g>
            <g id="chushaixuanxiang" transform="translate(4.000000, 0.000000)">
                <path d="M0.999999999,1.28239931 L1.65910933,1.94150863 C1.7095551,1.99195442 1.78308143,2.01165574 1.85199164,1.9931913 C1.92090186,1.97472687 1.97472687,1.92090186 1.9931913,1.85199164 C2.01165574,1.78308143 1.99195442,1.7095551 1.94150863,1.65910933 L1.28266572,0.999999999 L1.94150863,0.340890672 C1.99195441,0.290444895 2.01165574,0.216918571 1.9931913,0.148008355 C1.97472686,0.0790981399 1.92090186,0.0252731348 1.85199164,0.00680869896 C1.78308143,-0.0116557368 1.7095551,0.00804558386 1.65910933,0.058491364 L0.999999999,0.717334277 L0.340890672,0.058491364 C0.290444894,0.00804558512 0.216918571,-0.0116557346 0.148008356,0.00680870132 C0.0790981419,0.0252731373 0.0252731373,0.0790981419 0.00680870132,0.148008356 C-0.0116557346,0.216918571 0.00804558512,0.290444894 0.058491364,0.340890672 L0.717334277,0.999999999 L0.058491364,1.65910933 C0.00804558386,1.7095551 -0.0116557368,1.78308143 0.00680869896,1.85199164 C0.0252731348,1.92090186 0.0790981399,1.97472686 0.148008355,1.9931913 C0.216918571,2.01165574 0.290444895,1.99195441 0.340890672,1.94150863 L0.999999999,1.28266572 L0.999999999,1.28239931 Z" id="路径"></path>
            </g>
        </g>
    </g>
</svg>