<?xml version="1.0" encoding="UTF-8"?>
<svg width="16px" height="16px" viewBox="0 0 16 16" version="1.1" xmlns="http://www.w3.org/2000/svg" xmlns:xlink="http://www.w3.org/1999/xlink">
    <!-- Generator: Sketch 52.4 (67378) - http://www.bohemiancoding.com/sketch -->
    <title>画板</title>
    <desc>Created with Sketch.</desc>
    <g id="画板" stroke="none" stroke-width="1" fill="none" fill-rule="evenodd">
        <g id="fangjiantexiao" transform="translate(3.000000, 3.000000)" fill="#FFFFFF" fill-rule="nonzero">
            <path d="M4.99999999,0 C1.66669339,0 0,1.66663995 0,4.99997709 C0,8.33329134 1.66669339,10 4.99999999,10 C8.3333066,10 9.99999999,8.33329134 10,4.99997709 C10,1.66663993 8.33331807,6.35883883e-16 4.99999999,0 Z M3.66754447,6.853345 C3.63426064,6.95603269 3.53355539,7.04094453 3.42055399,7.05588482 C3.30763558,7.07214757 3.19114809,7.01995187 3.12503099,6.92312592 L2.54209548,6.02280065 L1.48585838,6.03920638 C1.36671482,6.03781242 1.25901369,5.969211 1.20853657,5.86447408 C1.15666027,5.75990396 1.16825685,5.63605682 1.23948449,5.54284084 L1.87547018,4.65502538 L1.543948,3.61449489 C1.50810296,3.50154915 1.53804299,3.38104987 1.62163794,3.30033179 C1.70485346,3.21995923 1.82911943,3.19422475 1.93799446,3.23511397 L2.96062758,3.60627415 L3.86740163,2.99635526 C3.9607197,2.92989837 4.08404893,2.92267841 4.18732724,2.97900832 C4.28919451,3.03338431 4.35343813,3.14399488 4.35034334,3.25999062 L4.29853818,4.32658917 L5.16697713,4.94842219 C5.26222796,5.01866776 5.30984743,5.1374395 5.28946449,5.2524583 C5.27872165,5.31497162 5.24761959,5.3747447 5.20180244,5.41888646 C5.16681112,5.45269871 5.1232706,5.47789704 5.07565112,5.49195568 L4.03856379,5.81935535 L3.66754447,6.853345 Z M6.43502464,7.52974109 L6.36937856,7.59857658 C6.31499192,7.65554197 6.21768187,7.66347386 6.1521759,7.61617095 L4.17340649,6.18856391 C4.10783683,6.141261 4.09880636,6.05667266 4.15318026,5.99969618 L4.21882634,5.93086069 C4.27321297,5.87382875 4.37054851,5.86596341 4.43602901,5.91324413 L6.41482389,7.34080681 C6.48040628,7.38816518 6.48943675,7.47268696 6.43502464,7.52974109 Z M7.05273841,4.88675265 L6.9715172,5.01459911 L7.03852492,5.14984389 C7.04574615,5.16493007 7.0434829,5.18275845 7.03286241,5.19555274 C7.02708543,5.20252487 7.01898357,5.20778412 7.0100363,5.21013228 C7.00313085,5.21192221 6.99584137,5.21208544 6.98884815,5.21060674 L6.83399685,5.18086866 L6.7144415,5.28311044 C6.70307247,5.29352439 6.68423563,5.29716728 6.66887731,5.29135314 C6.65332525,5.28573202 6.64218519,5.27141784 6.64051197,5.25503697 L6.62931907,5.10481055 L6.49374493,5.03545919 C6.47867722,5.02723256 6.46978278,5.01150306 6.4706458,4.99518651 C6.47140314,4.97880563 6.48149525,4.9643628 6.49710015,4.95768017 L6.64016853,4.89131228 L6.67071784,4.74078831 C6.67407307,4.72446372 6.68631393,4.7116453 6.70258811,4.70735105 C6.71884468,4.70308093 6.73645743,4.70829996 6.74741256,4.72069218 L6.8516096,4.83548701 L7.00969284,4.82163925 C7.0262048,4.81977359 7.04244376,4.82722821 7.0516288,4.84112421 C7.06082266,4.85470659 7.06121894,4.87269581 7.05273841,4.88675265 Z M7.02370464,2.53775533 L6.70833147,2.87056743 L6.80901524,3.32346447 C6.8194578,3.3737937 6.80126625,3.42627555 6.76265399,3.45789145 C6.74166272,3.47517851 6.7151251,3.48565111 6.6881496,3.4869057 C6.66728774,3.48774533 6.64654159,3.48343053 6.62776323,3.47434651 L6.20761951,3.28232683 L5.80033326,3.51255236 C5.76109738,3.53645576 5.70540816,3.53510873 5.6654425,3.50744151 C5.6250655,3.48021011 5.60288005,3.42962997 5.60907658,3.37899698 L5.67677407,2.9176083 L5.33771606,2.61860433 C5.3004705,2.58387175 5.28559615,2.53043904 5.29891806,2.48176059 C5.31180208,2.43273879 5.35025509,2.3957083 5.39889857,2.38582999 L5.84905635,2.27961168 L6.03574857,1.84489972 C6.05601005,1.79774001 6.09934599,1.76707496 6.14842733,1.7648299 C6.19733618,1.76262444 6.24380357,1.78998792 6.26678515,1.83467804 L6.48659632,2.2503333 L6.94467558,2.31270668 C6.99280157,2.31789676 7.03388182,2.351071 7.05085264,2.39922119 C7.06784999,2.44624885 7.05714206,2.50085691 7.02370464,2.53775533 Z" id="形状"></path>
        </g>
    </g>
</svg>