<?xml version="1.0" encoding="UTF-8"?>
<svg width="16px" height="16px" viewBox="0 0 16 16" version="1.1" xmlns="http://www.w3.org/2000/svg" xmlns:xlink="http://www.w3.org/1999/xlink">
    <!-- Generator: Sketch 52.4 (67378) - http://www.bohemiancoding.com/sketch -->
    <title>动态视域</title>
    <desc>Created with Sketch.</desc>
    <g id="动态视域" stroke="none" stroke-width="1" fill="none" fill-rule="evenodd">
        <path d="M6.0397314,10.899965 C6.59899871,11.2787486 7.27366134,11.5 8,11.5 C9.93299662,11.5 11.5,9.93299662 11.5,8 C11.5,7.87661676 11.4936156,7.75472468 11.4811591,7.63463609 C11.798949,7.35959003 12,6.953274 12,6.5 C12,5.67157288 11.3284271,5 10.5,5 C10.3097375,5 10.1277485,5.03542347 9.9602686,5.10003498 C9.40100129,4.72125142 8.72633866,4.5 8,4.5 C6.06700338,4.5 4.5,6.06700338 4.5,8 C4.5,8.12338324 4.5063844,8.24527532 4.51884086,8.36536391 C4.20105095,8.64040997 4,9.046726 4,9.5 C4,10.3284271 4.67157288,11 5.5,11 C5.69026254,11 5.87225149,10.9645765 6.0397314,10.899965 Z M5.5,8 C5.5,6.61928813 6.61928813,5.5 8,5.5 C8.42531129,5.5 8.82581681,5.60620613 9.17644218,5.79354402 C9.06384303,6.00406007 9,6.24457436 9,6.5 C9,7.32842712 9.67157288,8 10.5,8 C10.5,9.38071187 9.38071187,10.5 8,10.5 C7.57468871,10.5 7.17418319,10.3937939 6.82355782,10.206456 C6.93615697,9.99593993 7,9.75542564 7,9.5 C7,8.67157288 6.32842712,8 5.5,8 Z M8,14 C4.6862915,14 2,11.3137085 2,8 C2,4.6862915 4.6862915,2 8,2 C11.3137085,2 14,4.6862915 14,8 C14,11.3137085 11.3137085,14 8,14 Z M7,7 L7,8 L8,8 L8,7 L7,7 Z M8,8 L8,9 L9,9 L9,8 L8,8 Z" id="合并形状" fill="#FFFFFF" fill-rule="nonzero"></path>
    </g>
</svg>