<?xml version="1.0" encoding="UTF-8"?>
<svg width="16px" height="16px" viewBox="0 0 16 16" version="1.1" xmlns="http://www.w3.org/2000/svg" xmlns:xlink="http://www.w3.org/1999/xlink">
    <!-- Generator: Sketch 52.4 (67378) - http://www.bohemiancoding.com/sketch -->
    <title>区域监测</title>
    <desc>Created with Sketch.</desc>
    <g id="区域监测" stroke="none" stroke-width="1" fill="none" fill-rule="evenodd">
        <g id="区域" transform="translate(2.000000, 2.000000)" fill="#FFFFFF" fill-rule="nonzero">
            <path d="M2.99625468,9.49812734 C3.00762525,9.57762292 3.00762525,9.65833212 2.99625468,9.73782771 L2.99625468,11.2359551 C2.99625468,11.6496515 2.66088745,11.9850187 2.24719102,11.9850187 L0.749063672,11.9850187 C0.550399634,11.9850187 0.359872358,11.9060997 0.21939567,11.7656231 C0.0789189817,11.6251464 -3.2916378e-16,11.4346191 0,11.2359551 L0,9.73782771 C6.47208672e-09,9.32413127 0.335367234,8.98876405 0.749063672,8.98876405 L2.38951311,8.98876405 L8.98876405,2.38951311 C8.98469635,2.34215961 8.98469635,2.29454452 8.98876405,2.24719102 L8.98876405,0.749063672 C8.98876405,0.335367234 9.32413127,6.47208683e-09 9.73782771,0 L11.2359551,0 C11.4346191,-3.40733558e-16 11.6251464,0.0789189817 11.7656231,0.21939567 C11.9060997,0.359872358 11.9850187,0.550399634 11.9850187,0.749063672 L11.9850187,2.24719102 C11.9850187,2.44585505 11.9060997,2.63638233 11.7656231,2.77685902 C11.6251464,2.91733571 11.4346191,2.99625469 11.2359551,2.99625469 L9.73782771,2.99625469 C9.65833212,3.00762526 9.57762292,3.00762526 9.49812734,2.99625469 L2.99625468,9.49812734 Z M9.82022471,8.98876405 L11.2359551,8.98876405 C11.6496515,8.98876405 11.9850187,9.32413127 11.9850187,9.73782771 L11.9850187,11.2359551 C11.9850187,11.4346191 11.9060997,11.6251464 11.7656231,11.7656231 C11.6251464,11.9060997 11.4346191,11.9850187 11.2359551,11.9850187 L9.73782771,11.9850187 C9.32413127,11.9850187 8.98876405,11.6496515 8.98876405,11.2359551 L8.98876405,9.82022471 L8.32209738,10.4868914 L7.26591761,10.4868914 L10.4868914,7.26591761 L10.4868914,8.32209738 L9.82022471,8.98876405 Z M2.04494382,2.99625469 L0.749063672,2.99625469 C0.335367229,2.99625469 1.42615954e-14,2.66088746 1.42108547e-14,2.24719102 L1.42108547e-14,0.749063672 C1.41601141e-14,0.335367229 0.335367229,7.59948036e-17 0.749063672,0 L2.24719102,0 C2.66088745,6.47208678e-09 2.99625468,0.335367234 2.99625468,0.749063672 L2.99625468,2.04494382 L3.54307116,1.49812734 L4.59925093,1.49812734 L1.49812734,4.59925093 L1.49812734,3.54307116 L2.04494382,2.99625469 Z M7.7752809,1.49812734 L1.49812734,7.7752809 L1.49812734,6.74157304 L6.74157304,1.49812734 L7.7752809,1.49812734 Z M10.4868914,5.14606741 L5.14606741,10.4868914 L4.08988764,10.4868914 L10.4868914,4.08988764 L10.4868914,5.14606741 Z" id="形状"></path>
        </g>
    </g>
</svg>