<?xml version="1.0" encoding="UTF-8"?>
<svg width="16px" height="16px" viewBox="0 0 16 16" version="1.1" xmlns="http://www.w3.org/2000/svg" xmlns:xlink="http://www.w3.org/1999/xlink">
    <!-- Generator: Sketch 52.4 (67378) - http://www.bohemiancoding.com/sketch -->
    <title>单点监测</title>
    <desc>Created with Sketch.</desc>
    <g id="单点监测" stroke="none" stroke-width="1" fill="none" fill-rule="evenodd">
        <path d="M13.0464233,11.2 L9.245036,11.2 C9.76956309,10.5848057 10.1247534,9.82915046 10.2414713,9 L13.9143536,9 C13.7761853,9.79771884 13.4755083,10.5420623 13.0464233,11.2 Z M12.2292859,12.2 C11.1050477,13.3108173 9.53840966,14 7.80558871,14 C6.02257804,14 4.41551635,13.270316 3.28532378,12.1024236 C3.99333706,12.5438811 4.83618198,12.8 5.74078495,12.8 C6.65490574,12.8 7.50596208,12.5384633 8.21854946,12.0884277 L8.21854946,12.2 L12.2292859,12.2 Z M14,8 L10.2648348,8 C10.1886757,7.18139066 9.88104616,6.42743163 9.40582815,5.8 L13.5703549,5.8 C13.8476636,6.48119975 14,7.22336818 14,8 Z M13.0464233,4.8 L8.35324003,4.8 C7.61430977,4.29597656 6.71323183,4 5.74078495,4 C4.18930662,4 2.8194923,4.75338499 2,5.90306725 C2.87797099,3.6234554 5.14604764,2 7.80558871,2 C10.0120872,2 11.9491307,3.11746575 13.0464233,4.8 Z M8.21854946,5.71667219 L8.21854946,5.8 L8.31145272,5.8 C9.01768453,6.45529855 9.45743172,7.37790679 9.45743172,8.4 C9.45743172,10.3882251 7.79343228,12 5.74078495,12 C3.68813761,12 2.02413817,10.3882251 2.02413817,8.4 C2.02413817,6.4117749 3.68813761,4.8 5.74078495,4.8 C6.69268562,4.8 7.56100466,5.14662428 8.21854946,5.71667219 Z" id="合并形状" fill="#FFFFFF" fill-rule="nonzero"></path>
    </g>
</svg>