<?xml version="1.0" encoding="UTF-8"?>
<svg width="16px" height="16px" viewBox="0 0 16 16" version="1.1" xmlns="http://www.w3.org/2000/svg" xmlns:xlink="http://www.w3.org/1999/xlink">
    <!-- Generator: Sketch 52.4 (67378) - http://www.bohemiancoding.com/sketch -->
    <title>历史变迁</title>
    <desc>Created with Sketch.</desc>
    <g id="历史变迁" stroke="none" stroke-width="1" fill="none" fill-rule="evenodd">
        <g id="历史" transform="translate(3.000000, 3.000000)" fill="#FFFFFF" fill-rule="nonzero">
            <path d="M7.33304353,0.00192701993 C7.99221667,0.00192701993 8.5312725,0.592236111 8.53303893,1.31358226 L8.53303893,2.77490238 C8.06020403,2.55684119 7.55198847,2.44477819 7.03863838,2.44538272 C6.72537424,2.44529943 6.41326586,2.48682161 6.10920131,2.56903288 C6.0435769,2.43667181 5.91681973,2.35409787 5.77887873,2.35384948 L1.55092634,2.35384948 C1.34366511,2.35384948 1.17408775,2.53916414 1.17408775,2.76590964 C1.17408775,2.99265513 1.34366512,3.17796979 1.55092634,3.1779698 L4.87005003,3.1779698 C4.33256777,3.57980839 3.89681903,4.12322157 3.60322465,4.75780137 L1.55269277,4.75780137 C1.34543154,4.75780137 1.17585418,4.94311603 1.17585418,5.16986153 C1.17585418,5.39660702 1.34543155,5.58224285 1.55269277,5.58224285 L3.31559082,5.58224285 C3.23012757,5.93436646 3.18697928,6.29711439 3.18723018,6.66137156 C3.18723018,6.81521164 3.1942959,6.9671247 3.20960496,7.11678956 L1.55092634,7.11678956 C1.34366511,7.11678956 1.17408775,7.30242539 1.17408775,7.52917089 C1.17408775,7.75591638 1.34366512,7.94123105 1.55092634,7.94123105 L3.36711172,7.94123105 C3.5545901,8.58606203 3.88155536,9.17220909 4.32039561,9.65017266 L1.19822897,9.65017266 C0.539350241,9.65017266 0,9.06018474 0,8.33851741 L0,1.31358226 C0,0.592236111 0.539350241,0.00192701993 1.19822897,0.00192701993 L7.33304353,0.00192701993 Z M7.00625381,3.38608748 C8.65963314,3.38608748 9.99829337,4.85318864 9.99829337,6.66137156 C9.99829337,8.46955448 8.65816111,9.93729798 7.00625381,9.93729798 C5.3546409,9.93729798 4.01391984,8.46955448 4.01391984,6.66137156 C4.01391984,4.85318864 5.35258006,3.38608748 7.00625381,3.38608748 Z M8.51243057,7.39973968 C8.69584498,7.39973968 8.84628602,7.23497985 8.84628601,7.03424906 C8.84628601,6.83191243 8.697317,6.66907962 8.51243057,6.66907962 L7.06601806,6.66907962 L7.06601806,5.08378817 C7.06601806,4.88273147 6.91661179,4.71974281 6.73230982,4.71974281 C6.54800785,4.71974281 6.39860158,4.88273147 6.39860158,5.08378817 L6.39860158,7.03424906 C6.39860158,7.13188451 6.43275258,7.22373892 6.49428325,7.29118447 L6.49604968,7.29311148 C6.49781611,7.29664435 6.50134898,7.29857136 6.50488184,7.3024254 C6.56641251,7.3640899 6.64678512,7.39973968 6.73069059,7.39973968 L8.51243057,7.39973968 Z" id="形状"></path>
        </g>
    </g>
</svg>