<?xml version="1.0" encoding="UTF-8"?>
<svg width="16px" height="16px" viewBox="0 0 16 16" version="1.1" xmlns="http://www.w3.org/2000/svg" xmlns:xlink="http://www.w3.org/1999/xlink">
    <!-- Generator: Sketch 52.4 (67378) - http://www.bohemiancoding.com/sketch -->
    <title>历史查看</title>
    <desc>Created with Sketch.</desc>
    <g id="历史查看" stroke="none" stroke-width="1" fill="none" fill-rule="evenodd">
        <g id="历史" transform="translate(2.000000, 2.000000)" fill="#FFFFFF" fill-rule="nonzero">
            <path d="M6,0 C2.65714286,0 0,2.65714286 0,6 C0,9.34285714 2.65714286,12 6,12 C9.34285714,12 12,9.34285714 12,6 C12,2.65714286 9.34285714,0 6,0 Z M9.42857143,7.28571429 L6,7.28571429 C5.74285714,7.28571429 5.57142857,7.11428571 5.57142857,6.85714286 L5.57142857,2.57142857 C5.57142857,2.31428571 5.74285714,2.14285714 6,2.14285714 C6.25714286,2.14285714 6.42857143,2.31428571 6.42857143,2.57142857 L6.42857143,6.42857143 L9.42857143,6.42857143 C9.68571429,6.42857143 9.85714286,6.6 9.85714286,6.85714286 C9.85714286,7.11428571 9.68571429,7.28571429 9.42857143,7.28571429 Z" id="形状"></path>
        </g>
    </g>
</svg>