<?xml version="1.0" encoding="UTF-8"?>
<svg width="16px" height="16px" viewBox="0 0 16 16" version="1.1" xmlns="http://www.w3.org/2000/svg" xmlns:xlink="http://www.w3.org/1999/xlink">
    <!-- Generator: Sketch 52.4 (67378) - http://www.bohemiancoding.com/sketch -->
    <title>历史比对</title>
    <desc>Created with Sketch.</desc>
    <g id="历史比对" stroke="none" stroke-width="1" fill="none" fill-rule="evenodd">
        <g id="漏斗(1)" transform="translate(4.000000, 2.000000)" fill="#FFFFFF" fill-rule="nonzero">
            <path d="M2.2976087,10.0109734 L5.68688297,10.0109734 L5.68688297,8.69373723 C5.68688297,8.13025287 5.50360275,7.40577299 3.99647538,6.76179086 C2.489348,7.40577299 2.2976087,8.13025288 2.2976087,8.69373723 L2.2976087,10.0109734 Z M4.54067666,4.07755628 L3.44240516,4.07755628 L3.44240516,4.50492624 C3.44240516,4.68787571 3.50161878,4.92205103 3.98942614,5.13134521 C4.47864334,4.92351462 4.5392668,4.6878757 4.53926681,4.50492624 L4.54067666,4.07755628 Z" id="形状"></path>
            <path d="M1.09359862,8.71715477 L1.09359862,11.243321 L0.366117119,11.243321 C0.167328565,11.243321 0.0051960678,11.4116345 0.0051960565,11.6180015 C0.0051960565,11.8243685 0.167328565,11.992682 0.366117119,11.992682 L7.61837455,11.992682 C7.81716311,11.992682 7.9792956,11.8243685 7.97929562,11.6180015 C7.97929562,11.4101709 7.81716311,11.243321 7.61837455,11.243321 L6.86692564,11.243321 L6.86692564,8.71715477 C6.86692564,7.49358873 6.2353138,6.56713263 4.86635151,5.84265274 C6.28888801,5.09475532 6.87961427,4.1756172 6.87961427,2.80569159 C6.87961427,1.91289819 6.87538472,1.16353717 6.87256504,0.752266768 L7.61837455,0.752266768 C7.75090025,0.75812115 7.87496687,0.687868551 7.94263957,0.569317302 C8.01031227,0.450766053 8.01031227,0.304406475 7.94263957,0.185855214 C7.87496687,0.0673039648 7.75090026,-0.00294863343 7.61837455,0.0029057478 L0.366117119,0.0029057478 C0.236411119,0.0029057478 0.117983898,0.0746219355 0.0531308927,0.190246006 C-0.011722113,0.305870065 -0.011722113,0.449302452 0.0531308927,0.56492651 C0.117983898,0.680550569 0.236411119,0.752266768 0.366117119,0.752266768 L1.09077892,0.752266768 C1.08795922,1.16353717 1.08372967,1.91289818 1.08372968,2.80569159 C1.08372968,4.1756172 1.68291503,5.09475532 3.10545153,5.84265274 C1.73366955,6.56713263 1.09359861,7.49212514 1.09359862,8.71715477 Z M1.80557179,2.80569159 C1.80557179,1.91143459 1.80980133,1.16207358 1.81262103,0.752266768 L6.15072293,0.752266768 C6.15354262,1.16207357 6.15777217,1.91143459 6.15777217,2.80569159 C6.15777217,3.84923535 5.79403142,4.65860379 3.98801629,5.43577313 C2.17918148,4.65714019 1.80557179,3.84777175 1.80557179,2.80569159 Z M3.98660644,6.24806876 C5.91245863,7.06914597 6.14508353,7.99706567 6.14508354,8.71569117 L6.14508354,11.2418574 L1.81685058,11.2418574 L1.81685058,8.71715477 C1.81685058,7.99706567 2.06075426,7.07060956 3.98660644,6.24806876 Z" id="形状"></path>
            <path d="M2.2976087,10.0109734 L5.68688297,10.0109734 L5.68688297,8.69373723 C5.68688297,8.13025287 5.50360275,7.40577299 3.99647538,6.76179086 C2.489348,7.40577299 2.2976087,8.13025288 2.2976087,8.69373723 L2.2976087,10.0109734 Z M4.54067666,4.07755628 L3.44240516,4.07755628 L3.44240516,4.50492624 C3.44240516,4.68787571 3.50161878,4.92205103 3.98942614,5.13134521 C4.47864334,4.92351462 4.5392668,4.6878757 4.53926681,4.50492624 L4.54067666,4.07755628 Z" id="形状"></path>
            <path d="M1.09359862,8.71715477 L1.09359862,11.243321 L0.366117119,11.243321 C0.167328565,11.243321 0.0051960678,11.4116345 0.0051960565,11.6180015 C0.0051960565,11.8243685 0.167328565,11.992682 0.366117119,11.992682 L7.61837455,11.992682 C7.81716311,11.992682 7.9792956,11.8243685 7.97929562,11.6180015 C7.97929562,11.4101709 7.81716311,11.243321 7.61837455,11.243321 L6.86692564,11.243321 L6.86692564,8.71715477 C6.86692564,7.49358873 6.2353138,6.56713263 4.86635151,5.84265274 C6.28888801,5.09475532 6.87961427,4.1756172 6.87961427,2.80569159 C6.87961427,1.91289819 6.87538472,1.16353717 6.87256504,0.752266768 L7.61837455,0.752266768 C7.75090025,0.75812115 7.87496687,0.687868551 7.94263957,0.569317302 C8.01031227,0.450766053 8.01031227,0.304406475 7.94263957,0.185855214 C7.87496687,0.0673039648 7.75090026,-0.00294863343 7.61837455,0.0029057478 L0.366117119,0.0029057478 C0.236411119,0.0029057478 0.117983898,0.0746219355 0.0531308927,0.190246006 C-0.011722113,0.305870065 -0.011722113,0.449302452 0.0531308927,0.56492651 C0.117983898,0.680550569 0.236411119,0.752266768 0.366117119,0.752266768 L1.09077892,0.752266768 C1.08795922,1.16353717 1.08372967,1.91289818 1.08372968,2.80569159 C1.08372968,4.1756172 1.68291503,5.09475532 3.10545153,5.84265274 C1.73366955,6.56713263 1.09359861,7.49212514 1.09359862,8.71715477 Z M1.80557179,2.80569159 C1.80557179,1.91143459 1.80980133,1.16207358 1.81262103,0.752266768 L6.15072293,0.752266768 C6.15354262,1.16207357 6.15777217,1.91143459 6.15777217,2.80569159 C6.15777217,3.84923535 5.79403142,4.65860379 3.98801629,5.43577313 C2.17918148,4.65714019 1.80557179,3.84777175 1.80557179,2.80569159 Z M3.98660644,6.24806876 C5.91245863,7.06914597 6.14508353,7.99706567 6.14508354,8.71569117 L6.14508354,11.2418574 L1.81685058,11.2418574 L1.81685058,8.71715477 C1.81685058,7.99706567 2.06075426,7.07060956 3.98660644,6.24806876 Z" id="形状"></path>
            <path d="M2.2976087,10.0109734 L5.68688297,10.0109734 L5.68688297,8.69373723 C5.68688297,8.13025287 5.50360275,7.40577299 3.99647538,6.76179086 C2.489348,7.40577299 2.2976087,8.13025288 2.2976087,8.69373723 L2.2976087,10.0109734 Z M4.54067666,4.07755628 L3.44240516,4.07755628 L3.44240516,4.50492624 C3.44240516,4.68787571 3.50161878,4.92205103 3.98942614,5.13134521 C4.47864334,4.92351462 4.5392668,4.6878757 4.53926681,4.50492624 L4.54067666,4.07755628 Z" id="形状"></path>
            <path d="M1.09359862,8.71715477 L1.09359862,11.243321 L0.366117119,11.243321 C0.167328565,11.243321 0.0051960678,11.4116345 0.0051960565,11.6180015 C0.0051960565,11.8243685 0.167328565,11.992682 0.366117119,11.992682 L7.61837455,11.992682 C7.81716311,11.992682 7.9792956,11.8243685 7.97929562,11.6180015 C7.97929562,11.4101709 7.81716311,11.243321 7.61837455,11.243321 L6.86692564,11.243321 L6.86692564,8.71715477 C6.86692564,7.49358873 6.2353138,6.56713263 4.86635151,5.84265274 C6.28888801,5.09475532 6.87961427,4.1756172 6.87961427,2.80569159 C6.87961427,1.91289819 6.87538472,1.16353717 6.87256504,0.752266768 L7.61837455,0.752266768 C7.75090025,0.75812115 7.87496687,0.687868551 7.94263957,0.569317302 C8.01031227,0.450766053 8.01031227,0.304406475 7.94263957,0.185855214 C7.87496687,0.0673039648 7.75090026,-0.00294863343 7.61837455,0.0029057478 L0.366117119,0.0029057478 C0.236411119,0.0029057478 0.117983898,0.0746219355 0.0531308927,0.190246006 C-0.011722113,0.305870065 -0.011722113,0.449302452 0.0531308927,0.56492651 C0.117983898,0.680550569 0.236411119,0.752266768 0.366117119,0.752266768 L1.09077892,0.752266768 C1.08795922,1.16353717 1.08372967,1.91289818 1.08372968,2.80569159 C1.08372968,4.1756172 1.68291503,5.09475532 3.10545153,5.84265274 C1.73366955,6.56713263 1.09359861,7.49212514 1.09359862,8.71715477 Z M1.80557179,2.80569159 C1.80557179,1.91143459 1.80980133,1.16207358 1.81262103,0.752266768 L6.15072293,0.752266768 C6.15354262,1.16207357 6.15777217,1.91143459 6.15777217,2.80569159 C6.15777217,3.84923535 5.79403142,4.65860379 3.98801629,5.43577313 C2.17918148,4.65714019 1.80557179,3.84777175 1.80557179,2.80569159 Z M3.98660644,6.24806876 C5.91245863,7.06914597 6.14508353,7.99706567 6.14508354,8.71569117 L6.14508354,11.2418574 L1.81685058,11.2418574 L1.81685058,8.71715477 C1.81685058,7.99706567 2.06075426,7.07060956 3.98660644,6.24806876 Z" id="形状"></path>
        </g>
    </g>
</svg>