<?xml version="1.0" encoding="UTF-8"?>
<svg width="16px" height="16px" viewBox="0 0 16 16" version="1.1" xmlns="http://www.w3.org/2000/svg" xmlns:xlink="http://www.w3.org/1999/xlink">
    <!-- Generator: Sketch 52.4 (67378) - http://www.bohemiancoding.com/sketch -->
    <title>画板</title>
    <desc>Created with Sketch.</desc>
    <g id="画板" stroke="none" stroke-width="1" fill="none" fill-rule="evenodd">
        <g id="chaxunD-2" transform="translate(3.000000, 3.000000)" fill="#FFFFFF">
            <g id="chaxunD">
                <path d="M5.48768154,0 C2.45987861,0 0.00497561987,2.45490299 0.00497561987,5.48270592 C0.00497561987,8.51050884 2.45987861,10.9654118 5.48768154,10.9654118 C8.51548446,10.9654118 10.9703875,8.51050884 10.9703875,5.48270592 C10.9703875,2.45490299 8.51548446,0 5.48768154,0 Z M8.15005997,8.1437458 C8.04297587,8.2508299 7.87030276,8.2508299 7.76321866,8.1437458 L6.55182978,6.93101837 C5.63090652,7.6632059 4.28700107,7.6029711 3.43434392,6.75031395 C2.51743632,5.83340635 2.51743632,4.34493736 3.43434392,3.42802975 C4.35125153,2.51112214 5.83704341,2.51112214 6.75395102,3.42802975 C7.60393106,4.27934834 7.66550442,5.6205767 6.93867109,6.54283851 L8.15005997,7.75556594 C8.25714407,7.86398859 8.25714407,8.0366617 8.15005997,8.1437458 Z" id="形状" fill-rule="nonzero"></path>
                <path d="M3.8907899,3.88982993 C3.22552993,4.55642845 3.22552993,5.63663931 3.8907899,6.30323783 C4.55738842,6.96983636 5.63626073,6.96983636 6.30285925,6.30323783 C6.96811922,5.63663931 6.96811922,4.55642845 6.30285925,3.88982993 C5.63626073,3.22323141 4.55738842,3.22323141 3.8907899,3.88982993 Z" id="路径"></path>
            </g>
        </g>
    </g>
</svg>