<?xml version="1.0" encoding="UTF-8"?>
<svg width="16px" height="16px" viewBox="0 0 16 16" version="1.1" xmlns="http://www.w3.org/2000/svg" xmlns:xlink="http://www.w3.org/1999/xlink">
    <!-- Generator: Sketch 52.4 (67378) - http://www.bohemiancoding.com/sketch -->
    <title>地形剖面</title>
    <desc>Created with Sketch.</desc>
    <g id="地形剖面" stroke="none" stroke-width="1" fill="none" fill-rule="evenodd">
        <path d="M12.5454696,3.00000002 L3.45453032,3.00000002 C3.33397055,2.99996464 3.21833843,3.04784116 3.1330898,3.1330898 C3.04784116,3.21833843 2.99996464,3.33397055 3.00000002,3.45453032 L3.00000002,12.5454696 C2.99996464,12.6660294 3.04784116,12.7816615 3.1330898,12.8669101 C3.21833843,12.9521588 3.33397055,13.0000353 3.45453032,12.9999999 L12.5454696,12.9999999 C12.6660402,13.0000707 12.7816929,12.9522056 12.8669492,12.8669492 C12.9522056,12.7816929 13.0000707,12.6660402 12.9999999,12.5454696 L12.9999999,3.45453032 C12.9999999,3.20323552 12.7966978,3.00000002 12.5454696,3.00000002 Z M10.2726848,11.6363424 L5.72724848,11.6363424 L3.90906062,7.99996664 L5.72724848,4.36359092 L10.2726848,4.36359092 L12.0908727,7.99996664 L10.2726848,11.6363424 Z" id="形状" fill="#FFFFFF" fill-rule="nonzero"></path>
    </g>
</svg>