<?xml version="1.0" encoding="UTF-8"?>
<svg width="16px" height="16px" viewBox="0 0 16 16" version="1.1" xmlns="http://www.w3.org/2000/svg" xmlns:xlink="http://www.w3.org/1999/xlink">
    <!-- Generator: Sketch 52.4 (67378) - http://www.bohemiancoding.com/sketch -->
    <title>地形夸张</title>
    <desc>Created with Sketch.</desc>
    <g id="地形夸张" stroke="none" stroke-width="1" fill="none" fill-rule="evenodd">
        <g id="地球" transform="translate(2.000000, 2.000000)" fill="#FFFFFF" fill-rule="nonzero">
            <path d="M5.92902241,5.04882813 C5.93902141,5.04512443 5.93902141,5.04142074 5.94902041,5.04142074 C5.92902241,5.0117911 5.91902331,4.97845776 5.89902531,4.94882813 C5.91902331,4.98216146 5.92902241,5.01549479 5.92902241,5.04882813 Z M8.28318799,7.5261413 C8.26011679,7.5166463 8.20628401,7.5356363 8.18705802,7.49765625 C8.17359982,7.6021015 8.19282583,7.64482909 8.28318799,7.5261413 Z M6,0 C2.6859375,0 0,2.6859375 0,6 C0,9.3140625 2.6859375,12 6,12 C9.3140625,12 12,9.3140625 12,6 C12,2.6859375 9.31289062,0 6,0 Z M9.83203124,2.34375 C9.62578125,2.34960938 9.48164062,2.35078125 9.31523437,2.46445313 C9.2484375,2.51132812 9.20273436,2.57226563 9.11835937,2.59570312 C9.0421875,2.61679687 8.96015624,2.59804687 8.88398437,2.62382813 C8.6109375,2.71640626 8.65429687,3.3 8.29570312,3.21210937 C8.12695312,3.17109375 8.00859375,2.97070313 7.92304687,2.84062499 C7.84804687,2.72578124 7.71210938,2.63085937 7.80351562,2.48789063 C7.76132813,2.4984375 7.71679688,2.48671876 7.67578124,2.49375 C7.73320312,2.36718751 7.92656249,2.37890625 7.95820312,2.31328125 C8.03789062,2.15156251 7.73789062,2.13515625 7.65351562,2.11171875 C7.75546874,2.00273437 7.80820312,2.14804687 7.90898437,2.12343749 C8.00625,2.09999999 7.85742187,1.97109374 7.79999999,1.95703125 C7.77890625,1.95234375 7.43671874,2.05195312 7.63476562,1.87382812 L6.90117188,1.40625 C6.86015625,1.5796875 7.22695312,1.678125 7.34648437,1.7390625 C7.32773437,1.81054687 7.21640625,1.91484374 7.13085937,1.88437499 C7.05117187,1.85507812 7.08281249,1.72265625 6.96210937,1.73554688 C6.87539063,1.93710937 7.14492188,1.87851563 7.17070312,2.0015625 C7.19882813,2.1421875 7.06875,2.08242187 7.01835937,2.08007813 C7.00664062,2.07890626 6.91289062,1.9828125 6.90820312,2.05546875 C6.90234375,2.1421875 7.05703125,2.10820313 7.06874999,2.19609375 C6.88828125,2.20312499 6.79570312,2.13867187 6.64921875,2.04023438 C6.47695312,1.9265625 6.3890625,1.9359375 6.17929687,1.9359375 C6.24257813,1.91015625 6.32929687,1.89140625 6.38320313,1.84921875 C6.4125,1.82695313 6.52734375,1.71445312 6.53554687,1.68984375 C6.56835937,1.58203124 6.534375,1.59023437 6.43007812,1.51875 C6.33867187,1.45546875 6.22734374,1.34296875 6.11601562,1.32070312 C5.71289062,1.23984375 5.99179687,1.68515624 5.6859375,1.74609375 L5.70117188,1.74609375 L5.68359374,1.74609375 L5.6859375,1.74609375 C5.615625,1.74375001 5.48203125,1.72617188 5.43632812,1.76367187 C5.40468749,1.78945312 5.40117187,1.89609375 5.36601562,1.93359375 C5.30156249,2.0015625 5.20664062,2.01562499 5.13046875,2.06484375 C5.05546875,2.11289063 4.89140625,2.2359375 4.84804687,2.3203125 C4.68632812,2.62851563 5.21249999,2.72460937 5.41054687,2.81484375 C5.50078124,2.85585937 5.76328124,2.91093749 5.8125,2.98007812 C5.87812499,3.07148436 5.75625,3.15703125 5.89335937,3.22148438 C5.93671875,3.24140625 6.02695312,3.24609375 6.065625,3.20390624 C6.1265625,3.13476562 6.04101562,3.11953124 6.02578125,3.03984374 C5.99765624,2.88632812 6.04453125,2.94726561 6.12187499,2.88984375 C6.27890625,2.77382812 6.24374999,2.76679687 6.18749999,2.58164062 C6.16171874,2.49492187 6.06210937,2.25468749 6.14882813,2.19140625 C6.2625,2.10820312 6.50507813,2.2359375 6.59296875,2.24765625 C6.69492187,2.26054688 6.75234375,2.40117187 6.80742187,2.45859375 C6.84374999,2.49726563 6.91054688,2.578125 6.97382812,2.56875 C7.07578124,2.5546875 7.03359374,2.465625 7.0921875,2.42460938 C7.25039062,2.31445313 7.29257812,2.46445313 7.35585937,2.61328125 C7.415625,2.75390625 7.47187499,2.80546876 7.57734374,2.89570312 C7.62656249,2.93789061 7.84218749,3.08671874 7.82226563,3.17929687 C7.80820312,3.24140624 7.56210938,3.33515624 7.49648437,3.35625 C7.25625,3.43242187 6.80390624,3.23203125 6.75585937,3.61289063 C6.84960937,3.57773438 7.11445312,3.3609375 7.19414062,3.4640625 C7.23046874,3.5109375 7.16484374,3.57890625 7.18007813,3.62460938 C7.22578125,3.7640625 7.33242188,3.71484375 7.44492187,3.69257813 C7.43671874,3.69726563 7.4296875,3.70195313 7.42148437,3.70546875 C7.575,3.62695312 7.55859375,3.64335938 7.63007812,3.515625 C7.65351562,3.4734375 7.6875,3.37265625 7.71914062,3.3421875 C7.83046874,3.23906249 7.84804687,3.31054688 7.9171875,3.3890625 C7.93476563,3.41015625 8.10585938,3.65625001 8.04492187,3.64335938 C7.84570312,3.60351563 7.6546875,3.60820313 7.490625,3.71718749 C7.39570312,3.78046875 7.30546875,3.86484375 7.19179687,3.90585937 C7.16484375,3.91640624 6.96328124,3.93515625 6.98671875,3.9 C7.021875,3.84960937 7.14140625,3.81679687 7.18828124,3.76289063 C7.05703125,3.70898438 6.94804687,3.82851563 6.84609375,3.89765625 C6.73710937,3.94921875 6.71132813,4.04531251 6.61875,4.1296875 C6.57773437,4.16601562 6.50156249,4.17304687 6.46171874,4.22109375 C6.42304686,4.26796875 6.41835936,4.34179688 6.38203124,4.38632813 C6.35624999,4.41796875 6.290625,4.39804687 6.26367188,4.44609375 C6.22851563,4.50703125 6.2953125,4.56445313 6.28124999,4.60898438 C6.25429687,4.68984375 6.10195312,4.75781251 6.04218749,4.81523437 C6.05039062,4.80820313 6.05742187,4.8 6.065625,4.79179687 C6.00703125,4.85390624 5.93203125,4.89960937 5.88632812,4.97109375 C5.90742187,5.07187499 5.97421875,5.31328125 5.95546875,5.36835937 C5.89453125,5.55117188 5.775,5.26875 5.72695312,5.19609374 C5.56054688,4.94648437 5.22890625,5.11289062 5.00273437,5.13398437 C4.71328124,5.16093749 4.42968749,5.53710937 4.6078125,5.84179687 C4.69335937,5.98828124 4.83749999,6.04453125 5.00390625,6.01054687 C5.1515625,5.98007813 5.19492187,5.77382812 5.334375,5.7703125 C5.58984374,5.76328126 5.34023437,6.01992187 5.31796875,6.11484375 C5.29804687,6.20156249 5.34960937,6.20976562 5.43984374,6.23203124 C5.50664061,6.24843749 5.60039062,6.20390624 5.6578125,6.24140624 C5.69414062,6.26484375 5.69179687,6.39609374 5.7421875,6.35507812 C5.64374999,6.43593749 5.6671875,6.62929687 5.76796875,6.6984375 C5.87929687,6.77578125 6.01054687,6.70429687 6.12773437,6.73359375 C6.34804686,6.78984374 6.24257812,6.7171875 6.43710937,6.59999999 C6.56718749,6.52148437 6.58945312,6.61523437 6.67851562,6.61523437 C6.73945312,6.61523437 6.778125,6.52734374 6.87890624,6.553125 C6.96210937,6.57421875 6.99492187,6.6375 7.09335937,6.65273437 C7.13437499,6.65859375 7.17539061,6.6375 7.21406249,6.6421875 C7.39687499,6.66210938 7.53749999,6.77929688 7.68046874,6.88476563 C7.79882812,6.97148437 7.87734375,6.95390625 8.01679687,6.99374999 C8.11757812,7.02304687 8.30507813,7.16953124 8.29570312,7.2984375 C8.29453125,7.32187501 8.20546875,7.43789063 8.19023436,7.48945312 C8.21601561,7.50703125 8.39648436,7.4671875 8.44921874,7.46367188 C8.43164061,7.48359375 8.30859374,7.5703125 8.30859374,7.52460937 C8.30859374,7.54804688 8.39531249,7.59609374 8.41640625,7.61132812 C8.48085937,7.40390624 8.58515625,7.53749999 8.71289062,7.5890625 C8.82070312,7.63242188 8.95312499,7.63476562 9.06796875,7.66289063 C9.16523438,7.68632813 9.38085938,7.75195313 9.45234375,7.83164063 C9.53906249,7.92773437 9.47929687,8.08359376 9.41484374,8.17851562 C9.33046874,8.30390624 9.20390624,8.35195312 9.15117186,8.4984375 C9.11015624,8.61562501 9.14062499,8.7328125 9.1171875,8.86171875 C9.08554688,9.03632813 9.05976562,8.97539063 8.94726561,9.08203125 C8.85234374,9.17226562 8.94609374,9.15585938 8.81718749,9.21328125 C8.68710937,9.27070313 8.57343749,9.253125 8.48320312,9.39609375 C8.48671875,9.38671875 8.49023436,9.37851562 8.49257812,9.36914062 C8.45507811,9.421875 8.43515624,9.53085936 8.41757812,9.56601562 C8.371875,9.65742187 8.30976561,9.71367188 8.23828124,9.78984375 C8.21132812,9.81914062 7.95820312,10.1636719 7.94414062,10.1355469 C7.92539062,10.0992187 7.72617187,10.171875 7.71679687,10.1203125 C7.72499999,10.1636719 7.71445312,10.1484375 7.76484374,10.1742187 C7.71914062,10.4578125 7.59960937,10.5 7.32070312,10.5023437 C7.34414063,10.6382812 7.21992187,10.6113281 7.16249999,10.6839844 C7.12851562,10.7273437 7.11210937,10.846875 7.08867187,10.9019531 C7.07343749,10.9371094 6.96562499,11.0753906 6.965625,11.1035156 C6.965625,11.1292969 7.00195312,11.165625 7.0359375,11.2019531 C6.83789062,11.240625 6.6375,11.26875 6.43710937,11.2839844 C6.47460937,11.2359375 6.48398436,11.19375 6.36328125,11.1878906 C6.39609376,11.1 6.47226563,11.0496094 6.50390625,10.9640625 C6.51914062,10.9242188 6.50624999,10.9078125 6.51914062,10.8679687 C6.56367187,10.7308594 6.54375,10.7824219 6.51914062,10.6757812 C6.46054687,10.425 6.54023437,10.3570312 6.60820312,10.1273438 C6.67851562,9.89179688 6.67148438,9.5859375 6.7171875,9.3328125 C6.73828125,9.2109375 6.7734375,8.95898437 6.73124999,8.84414062 C6.68320311,8.71523437 6.47460936,8.61328125 6.37851562,8.5265625 C6.24257813,8.40351562 6.17109375,8.26992186 6.0703125,8.11640625 C6.01875,8.03906249 5.96132812,7.96289062 5.92148437,7.87851562 C5.8359375,7.69804687 5.92148437,7.80585937 5.93554687,7.69921875 C5.94960938,7.59609374 5.92382813,7.5046875 5.96367187,7.39687499 C6.00820312,7.27734374 6.12187499,7.20351562 6.15820312,7.08281249 C6.19101562,6.97617187 6.16640625,6.84140625 6.05625,6.80507813 C5.9953125,6.78515625 5.92734375,6.83085938 5.86523438,6.82148438 C5.7796875,6.80742187 5.68242187,6.74296875 5.61445312,6.69257812 C5.52070312,6.62109375 5.48554687,6.50390625 5.38476562,6.43593749 C5.30039062,6.3796875 5.24062499,6.41367187 5.15156249,6.38671875 C5.05781249,6.35859375 5.00039062,6.24375 4.92421875,6.20742188 C4.81054687,6.15351563 4.74726562,6.23085938 4.62773437,6.215625 C4.52578125,6.20273437 4.37109374,6.0890625 4.27617187,6.046875 C4.08281249,5.96015625 3.96562499,5.86523438 3.88828125,5.66835937 C3.82265625,5.49960937 3.72539062,5.42226563 3.61171875,5.28164063 C3.496875,5.13984376 3.46054688,5.01914062 3.28359374,4.98046875 C3.2625,4.97578125 3.32695312,5.12929687 3.33398437,5.1421875 C3.39726562,5.25937501 3.4921875,5.3671875 3.56953125,5.47617188 C3.68203126,5.63671875 3.63398438,5.6671875 3.51914062,5.51132813 C3.38789062,5.33320312 3.23554687,5.15625001 3.121875,4.96757813 C3.07851562,4.89609376 3.08671875,4.85039062 3.01640625,4.78242187 C2.9484375,4.71679687 2.85820312,4.68515624 2.7890625,4.62304687 C2.540625,4.40039062 2.49609375,4.10156249 2.52421875,3.78398438 C2.53359375,3.6796875 2.57109375,3.59765626 2.5546875,3.49804687 C2.540625,3.41484374 2.49257813,3.346875 2.43164062,3.2859375 C2.41171875,3.25429688 2.36249999,3.17695312 2.36015625,3.17226562 C2.30390625,3.07851562 2.26054688,2.98710938 2.1703125,2.90976562 C2.11875001,2.86523437 1.98632813,2.76210937 1.86093749,2.67539062 C2.42343749,1.97460937 3.15820312,1.41914062 4.00195312,1.0734375 C4.00898436,1.115625 4.02656249,1.15781251 4.0546875,1.19882813 C4.12382812,1.30195313 4.19062499,1.29375 4.32539062,1.32187499 C4.31132811,1.47890625 4.12734374,1.48007812 4.003125,1.46367188 C3.85429687,1.44375 3.6984375,1.39453125 3.56953125,1.52460937 C3.64101562,1.56679687 3.83554687,1.73320312 3.80976562,1.55976562 C3.95156249,1.55273438 4.08984375,1.54804688 4.228125,1.56562499 C4.28437499,1.57265624 4.47070313,1.63476562 4.52109375,1.60664063 C4.5421875,1.59492188 4.56445313,1.48945312 4.58789062,1.4578125 C4.54804687,1.4578125 4.50585938,1.43789063 4.46601563,1.44140624 C4.55859376,1.32304687 4.65,1.415625 4.7671875,1.47070312 C4.63828124,1.54921875 4.71445312,1.73671874 4.84101562,1.584375 C4.94414063,1.45898437 4.81523437,1.36757812 4.68398437,1.29492187 C4.81640625,1.12851563 4.89843749,1.11445313 5.02382813,1.30078125 C5.04492187,1.18476563 5.1375,1.23164062 5.23476562,1.23984375 L5.23476562,1.21054687 C5.19140624,1.21171875 5.14570312,1.18710937 5.10351563,1.19179687 C5.203125,1.03359374 5.13984375,0.997265622 5.28164062,0.945703126 C5.39414062,0.904687504 5.71757812,0.943359381 5.75742187,0.83671875 C5.53125,0.880078128 5.259375,0.890625002 5.05546875,0.993750005 C4.96757812,1.03828126 4.86328124,1.17773438 4.77539062,1.08632812 C4.68515625,0.993749993 4.83984375,0.843749995 4.91835937,0.798046872 L4.89960937,0.798046872 C5.26289063,0.720703116 5.63437501,0.680859366 6.00585937,0.680859378 C6.25078125,0.680859378 6.4921875,0.698437509 6.72890625,0.731250002 C6.646875,0.77460938 6.7078125,0.802734372 6.64804687,0.847265623 C6.534375,0.930468752 6.33164062,1.00078125 6.19687499,1.05351563 C6.36914062,1.05351563 6.78632811,1.21523437 6.86601563,0.97382813 L6.69257812,0.955078127 C6.79804687,0.885937501 6.91289062,0.829687504 7.03359374,0.789843754 C8.13046874,1.00664063 9.10546874,1.56328125 9.84726562,2.34375 L9.83203124,2.34375 Z M10.8035156,4.44960938 C10.8128906,4.42851563 10.8363281,4.42148438 10.8457031,4.40390624 C10.865625,4.36757812 10.8609375,4.34296875 10.8855469,4.31132813 C10.9125,4.27734375 10.9476562,4.26914063 10.9769531,4.2421875 C10.9886719,4.23164063 10.9957031,4.22109375 11.0003906,4.21171875 C11.0894531,4.46132813 11.1597656,4.71679687 11.2101562,4.97578125 C11.2089844,4.97812499 11.2078125,4.98046875 11.2054687,4.98164062 C11.1925781,4.99218749 11.1082031,5.00390624 11.090625,5.00507812 C11.0296875,5.00742187 10.9839844,4.96757812 10.940625,4.92890625 C10.8960937,4.89023437 10.8433594,4.83867188 10.8117187,4.78828125 C10.7777344,4.734375 10.7988281,4.68046875 10.8011719,4.61835937 C10.8058594,4.56914062 10.78125,4.49648437 10.8035156,4.44960938 Z M10.8714844,7.20117187 C10.7683594,7.11210937 10.6464844,6.99140625 10.5738281,6.87539063 C10.4953125,6.75234375 10.5433594,6.62460938 10.5492187,6.4828125 C10.5539062,6.36328125 10.4953125,6.19453125 10.546875,6.08671875 C10.5703125,6.03749999 10.6230469,6.02109375 10.6453125,5.98125 C10.6921875,5.896875 10.6816406,5.83945313 10.7390625,5.765625 C10.8,5.68710937 10.8832031,5.66835937 10.9511719,5.60625 C11.0226562,5.54179688 11.0203125,5.49140625 11.0660156,5.40820312 C11.0988281,5.34726563 11.1773437,5.24765625 11.2511719,5.19492187 C11.2910156,5.45742187 11.3121094,5.72578125 11.3121094,5.99882813 C11.3121094,6.47226563 11.2488281,6.93046875 11.1328125,7.36640625 C11.0332031,7.34179687 10.9511719,7.2703125 10.8714844,7.20117187 Z" id="形状"></path>
        </g>
    </g>
</svg>