<?xml version="1.0" encoding="UTF-8"?>
<svg width="16px" height="16px" viewBox="0 0 16 16" version="1.1" xmlns="http://www.w3.org/2000/svg" xmlns:xlink="http://www.w3.org/1999/xlink">
    <!-- Generator: Sketch 52.4 (67378) - http://www.bohemiancoding.com/sketch -->
    <title>地形路径</title>
    <desc>Created with Sketch.</desc>
    <g id="地形路径" stroke="none" stroke-width="1" fill="none" fill-rule="evenodd">
        <g id="路径" transform="translate(8.000000, 8.000000) scale(-1, 1) translate(-8.000000, -8.000000) translate(2.000000, 2.000000)" fill="#FFFFFF" fill-rule="nonzero">
            <path d="M1.75550111,2.498098 C1.34194209,2.498098 1.0063029,2.16346102 1.0063029,1.74889978 C1.0063029,1.33433853 1.34194209,0.999701559 1.75550111,0.999701559 C2.16906013,0.999701559 2.50469933,1.33433853 2.50469933,1.74889978 C2.50469933,2.16346102 2.16906013,2.498098 1.75550111,2.498098 Z M1.75550111,0.00076169265 C0.791532294,0.00076169265 0.00737639198,0.784917595 0.00737639198,1.74888641 C0.00737639198,2.62794655 1.3918931,4.6607706 1.54972383,4.88553675 C1.59666815,4.95546548 1.67358575,4.99542094 1.75550111,4.99542094 C1.83741648,4.99542094 1.91433408,4.95546548 1.9612784,4.88553675 C2.11910913,4.6607706 3.50362584,2.62794655 3.50362584,1.74888641 C3.5036392,0.784930958 2.71946993,0.00076169265 1.75550111,0.00076169265 Z M3.47016481,5.04037416 L3.4342049,5.04037416 C3.22693096,5.01040089 2.99167483,5.00041871 2.75493541,4.99542094 L2.75444098,4.99542094 C2.61658797,4.99542094 2.50471269,4.88553675 2.50471269,4.74569265 C2.50471269,4.60584855 2.62258797,4.48596882 2.75993318,4.49596437 C3.02564365,4.49596437 3.27587973,4.51094432 3.50513586,4.54591537 C3.6414922,4.5658931 3.73638307,4.69075724 3.71691314,4.8306147 C3.6989265,4.95046771 3.59203563,5.04037416 3.47016481,5.04037416 Z M5.13489087,5.9943608 C5.0529755,5.9943608 4.97257016,5.95440535 4.92511804,5.87947884 C4.76478842,5.62975056 4.55901114,5.44493987 4.29529176,5.30509577 C4.17342094,5.24016481 4.12746548,5.08532739 4.19239644,4.96546102 C4.25732739,4.84559465 4.4086637,4.79564365 4.53004009,4.86057461 C4.86618708,5.04038753 5.13988864,5.29011581 5.3446637,5.60977283 C5.41908241,5.72465479 5.38611581,5.87947884 5.27024499,5.95440535 C5.22828508,5.97936748 5.18134076,5.9943608 5.13489087,5.9943608 Z M5.63835635,7.90232071 C5.50999109,7.90232071 5.4006147,7.80741648 5.38961693,7.67755457 C5.35564811,7.27298886 5.31469042,6.97830735 5.25575947,6.71858352 C5.22479733,6.58372383 5.30919822,6.45386192 5.44356347,6.41890423 C5.57641871,6.38893096 5.71177283,6.47383964 5.74274833,6.60869933 C5.80718486,6.89339866 5.85163029,7.20805791 5.88709577,7.63260134 C5.89908241,7.77244543 5.79669488,7.89232517 5.6593363,7.90230735 L5.63835635,7.90230735 L5.63835635,7.90232071 Z M5.83663697,9.89518931 C5.72076615,9.89518931 5.61637416,9.8152784 5.59240089,9.69539866 C5.51947884,9.33578619 5.48401336,8.9611804 5.46104232,8.67149666 C5.45005791,8.53663697 5.55244543,8.4167706 5.69029844,8.40179065 C5.82714922,8.3917951 5.94801782,8.49669488 5.95901559,8.6315412 C5.98048998,8.90624499 6.0144588,9.26585746 6.08188864,9.59551002 C6.10936303,9.73036971 6.02195546,9.86023163 5.88709577,9.89019154 C5.870098,9.89518931 5.85362138,9.89518931 5.83663697,9.89518931 Z M6.83957238,11.5434254 C6.79361693,11.5434254 6.74716704,11.5334298 6.70571492,11.5084677 C6.38755457,11.3036793 6.1408196,11.0389577 5.95002227,10.7043207 C5.8815902,10.5844543 5.92404454,10.4346147 6.04341648,10.364686 C6.16379065,10.2947572 6.31612918,10.3397105 6.38405345,10.4595902 C6.5338931,10.7243118 6.72668151,10.9290869 6.97441871,11.0839243 C7.09079733,11.1588374 7.12425835,11.3136748 7.05033408,11.4285568 C7.00289532,11.5034699 6.92198218,11.5434254 6.83957238,11.5434254 Z M8.74802673,11.9879465 C8.3674343,11.9879465 8.0183118,11.9579733 7.71013363,11.8930423 C7.57477951,11.8680668 7.48786637,11.7332071 7.51484633,11.5983608 C7.54232071,11.4635011 7.67167483,11.3785924 7.80952784,11.4035679 C8.08523385,11.4585033 8.40089532,11.4884766 8.74802673,11.4884766 C8.88587973,11.4884766 8.99775501,11.5983608 8.99775501,11.7382049 C8.99775501,11.8780624 8.88587973,11.9879465 8.74802673,11.9879465 Z M9.74695323,8.49168374 C9.05819599,8.49168374 8.49828508,7.93228062 8.49828508,7.24301559 C8.49828508,6.55375056 9.05818263,5.99434744 9.74695323,5.99434744 C10.4357238,5.99434744 10.9956214,6.55375056 10.9956214,7.24301559 C10.9956214,7.93228062 10.4357238,8.49168374 9.74695323,8.49168374 Z M9.74695323,4.99542094 C8.50777283,4.99542094 7.49935857,6.00434298 7.49935857,7.24301559 C7.49935857,8.38179955 9.32390646,11.5134521 9.5316882,11.863069 C9.57664143,11.94298 9.65855679,11.9879332 9.74695323,11.9879332 C9.83536303,11.9879332 9.91726503,11.94298 9.96221826,11.863069 C10.17,11.5134388 11.9945479,8.38178619 11.9945479,7.24301559 C11.9945479,6.00434298 10.9861336,4.99542094 9.74695323,4.99542094 Z" id="形状"></path>
        </g>
    </g>
</svg>