<?xml version="1.0" encoding="UTF-8"?>
<svg width="16px" height="16px" viewBox="0 0 16 16" version="1.1" xmlns="http://www.w3.org/2000/svg" xmlns:xlink="http://www.w3.org/1999/xlink">
    <!-- Generator: Sketch 52.4 (67378) - http://www.bohemiancoding.com/sketch -->
    <title>画板</title>
    <desc>Created with Sketch.</desc>
    <g id="画板" stroke="none" stroke-width="1" fill="none" fill-rule="evenodd">
        <g id="A-dixinganxian" transform="translate(3.000000, 4.000000)" fill="#FFFFFF" fill-rule="nonzero">
            <path d="M10,8 L0,8 L0,0 L10,0 L10,8 Z M0.526315789,7.46666667 L9.47368421,7.46666667 L9.47368421,0.533333333 L0.526315789,0.533333333 L0.526315789,7.46666667 Z" id="形状"></path>
            <path d="M9.99901633,8 L0,8 L0,3.21581743 L0.300019673,3.26657486 C1.11646665,3.40468227 1.93192996,3.40468227 2.72476884,3.26657486 C3.61105646,3.11194177 4.24158961,2.82156207 4.79834743,2.56541413 C5.42888058,2.27503443 6.02498524,2 6.82569349,2 L6.84339957,2 C7.8516624,2.00472162 8.87664765,2.44973441 9.88982884,3.32205391 L10,3.41648633 L10,8 L9.99901633,8 Z M0.526264017,7.36848318 L9.47275231,7.36848318 L9.47275231,3.74345859 C8.58646469,3.01042691 7.70116073,2.63623844 6.84044855,2.63269723 L6.82569349,2.63269723 C6.12335235,2.63269723 5.59708833,2.87586071 4.98721228,3.15561676 C4.40487901,3.42356876 3.7458194,3.72693291 2.80051151,3.89218965 C2.05587252,4.02203423 1.2915601,4.0373795 0.526264017,3.93704505 L0.526264017,7.36848318 Z M1.69533521,3.68443832 L1.69533521,7.68365139 L1.69533521,3.68443832 Z" id="形状"></path>
            <path d="M1,4.04205607 L1.53333333,4.04205607 L1.53333333,8 L1,8 L1,4.04205607 Z M2.38599021,4.04205607 L2.38599021,8 L2.38599021,4.04205607 Z M2.06666667,4.04205607 L2.6,4.04205607 L2.6,8 L2.06666667,8 L2.06666667,4.04205607 Z M3.45265688,4.04205607 L3.45265688,8 L3.45265688,4.04205607 Z M3.13333333,4.04205607 L3.66666667,4.04205607 L3.66666667,8 L3.13333333,8 L3.13333333,4.04205607 Z M4.51932354,3 L4.51932354,8 L4.51932354,3 Z M4.2,3 L4.73333333,3 L4.73333333,8 L4.2,8 L4.2,3 Z M5.58599021,3 L5.58599021,8 L5.58599021,3 Z M5.26666667,3 L5.8,3 L5.8,8 L5.26666667,8 L5.26666667,3 Z M6.65265688,3 L6.65265688,8 L6.65265688,3 Z M6.33333333,3 L6.86666667,3 L6.86666667,8 L6.33333333,8 L6.33333333,3 Z M7.71932354,3 L7.71932354,8 L7.71932354,3 Z M7.4,3 L7.93333333,3 L7.93333333,8 L7.4,8 L7.4,3 Z M8.78599021,3.625 L8.78599021,8 L8.78599021,3.625 Z M8.46666667,3.625 L9,3.625 L9,8 L8.46666667,8 L8.46666667,3.625 Z" id="形状"></path>
        </g>
    </g>
</svg>