<?xml version="1.0" encoding="UTF-8"?>
<svg width="16px" height="16px" viewBox="0 0 16 16" version="1.1" xmlns="http://www.w3.org/2000/svg" xmlns:xlink="http://www.w3.org/1999/xlink">
    <!-- Generator: Sketch 52.4 (67378) - http://www.bohemiancoding.com/sketch -->
    <title>画板</title>
    <desc>Created with Sketch.</desc>
    <g id="画板" stroke="none" stroke-width="1" fill="none" fill-rule="evenodd">
        <g id="lujinjuli-2" transform="translate(3.000000, 3.000000)" fill="#FFFFFF" fill-rule="nonzero">
            <g id="lujinjuli">
                <path d="M2.50596538,3.66666667 C1.16130103,3.66666667 0,4.70555555 0,6.05 C0,7.21111112 1.83363321,9.04444445 2.13923873,9.41111112 C2.50596538,9.77777778 2.50596538,9.77777778 2.87269202,9.41111112 C3.23941866,9.04444445 5.01193075,7.21111112 5.01193077,6.05 C5.07305186,4.70555555 3.91175084,3.66666667 2.50596538,3.66666667 Z M2.50596538,7.21111112 C1.83363321,7.21111112 1.28354324,6.66111112 1.28354324,6.05 C1.22242213,5.43888888 1.83363321,4.88888888 2.50596538,4.88888888 C3.17829755,4.88888888 3.72838751,5.43888888 3.72838752,6.05 C3.72838752,6.72222222 3.17829756,7.21111112 2.50596538,7.21111112 Z M7.57901725,4.21666667 C7.82350169,3.97222222 9.16816603,2.62777778 9.16816603,1.77222222 C9.16816603,0.794444449 8.37359163,0 7.33453282,0 C6.29547401,0 5.50089962,0.794444449 5.50089962,1.71111112 C5.50089962,2.56666667 6.78444286,3.91111112 7.09004839,4.15555555 C7.33453282,4.4611111 7.33453282,4.4611111 7.57901725,4.21666667 Z M6.41771622,1.77222222 C6.41771622,1.28333333 6.84556397,0.916666667 7.33453282,0.916666667 C7.82350167,0.916666667 8.25134942,1.28333333 8.25134942,1.77222222 C8.25134942,2.2611111 7.82350167,2.62777777 7.33453282,2.62777778 C6.84556397,2.6277778 6.41771622,2.2 6.41771622,1.77222222 Z M10.879557,7.27222222 C10.6961937,6.72222222 10.268346,6.29444443 9.65713488,5.86666667 C9.16816603,5.56111112 8.67919716,5.37777778 8.12910722,5.25555555 C7.88462278,5.19444443 7.82350169,5.13333333 7.76238057,5.07222222 C7.70125946,4.95 7.64013837,4.88888888 7.51789614,4.88888888 C7.39565392,4.88888888 7.33453282,4.95 7.27341171,5.07222222 C7.2122906,5.19444443 7.2122906,5.37777777 7.27341171,5.43888888 C7.33453282,5.5611111 7.39565392,5.62222222 7.51789614,5.74444445 C7.70125946,5.86666667 7.88462278,5.92777778 8.00686499,5.98888888 L8.0679861,5.98888888 C8.31247054,6.05 8.8625605,6.23333333 9.35152935,6.53888888 C9.8404982,6.84444443 10.1461037,7.2111111 10.268346,7.57777778 C10.3905882,7.88333333 10.3905882,8.25 10.2072248,8.61666667 C10.2072248,8.67777778 10.1461037,8.73888888 10.1461037,8.73888888 L10.0238615,8.98333333 C9.90161931,9.22777778 9.22928712,9.83888888 8.25134942,10.0833333 C7.64013835,10.2055556 7.02892729,10.2055556 6.35659511,10.0222222 C5.62314183,9.83888888 4.82856743,9.47222222 4.09511416,8.86111112 C3.97287195,8.7388889 3.78950863,8.8 3.72838752,8.98333333 C3.66726641,9.16666667 3.66726641,9.28888888 3.66726641,9.35 C3.66726641,9.47222222 3.72838752,9.53333333 3.78950862,9.59444445 C4.64520411,10.2055556 5.4397785,10.6333333 6.2343529,10.8166667 C6.66220065,10.9388889 7.02892729,11 7.45677503,11 C7.76238056,11 8.0679861,10.9388889 8.31247054,10.8777778 C8.80143939,10.7555556 9.29040825,10.5722222 9.71825599,10.2055556 C10.0238615,9.9611111 10.3294671,9.71666667 10.4517093,9.47222222 L10.5739515,9.22777778 C10.6350726,9.16666667 10.6961937,9.04444445 10.6961937,8.98333333 C11.0629203,8.37222222 11.0629203,7.76111112 10.879557,7.27222222 Z" id="形状"></path>
            </g>
        </g>
    </g>
</svg>