<?xml version="1.0" encoding="UTF-8"?>
<svg width="16px" height="16px" viewBox="0 0 16 16" version="1.1" xmlns="http://www.w3.org/2000/svg" xmlns:xlink="http://www.w3.org/1999/xlink">
    <!-- Generator: Sketch 52.4 (67378) - http://www.bohemiancoding.com/sketch -->
    <title>画板</title>
    <desc>Created with Sketch.</desc>
    <g id="画板" stroke="none" stroke-width="1" fill="none" fill-rule="evenodd">
        <g id="celiangdibiaomianji-2" transform="translate(3.000000, 3.000000)" fill="#FFFFFF">
            <g id="celiangdibiaomianji">
                <path d="M8.18624614,9.13271361 L8.11390818,9.13271361 L8.44184028,7.83227848 C8.5310571,7.89532239 8.64559221,7.91757318 8.75651042,7.88419699 L8.82764275,7.8619462 C9.02054398,7.80261076 9.13146219,7.59122824 9.07238619,7.39220728 L7.49059606,2.02605815 C7.43272569,1.82827334 7.2265625,1.71454707 7.03245563,1.77511867 L6.9613233,1.79736946 C6.82749807,1.83939873 6.73225309,1.95436116 6.7069348,2.08662975 C6.69728974,2.06190665 6.68523341,2.0384197 6.66956019,2.01740506 L6.64665316,1.94818038 L6.63821373,1.98155657 C6.60807292,1.95188884 6.57190394,1.92963805 6.52970679,1.9172765 L6.28375772,1.84063489 C6.13908179,1.79613331 5.98355517,1.88019185 5.94015239,2.02976661 L5.04195602,5.07441653 C4.99855324,5.22275514 5.08053627,5.38221915 5.22641782,5.42672073 L5.47357253,5.50089003 C5.54952739,5.52437698 5.62789352,5.51201543 5.69179205,5.47493078 L5.11308835,7.00899921 L4.4885706,6.48239715 L4.20283565,5.69867484 L4.11482446,5.61585245 C4.16907793,5.6146163 4.2233314,5.59236551 4.26432292,5.55033623 L4.52353395,5.2845629 C4.60913387,5.19679589 4.60913387,5.05216574 4.52353395,4.96439873 L3.64945023,4.06818631 C3.56385031,3.9804193 3.42279128,3.9804193 3.33719136,4.06818631 L3.07798032,4.33395965 C3.01167052,4.40194818 2.99720293,4.50454905 3.03337191,4.58737144 L2.79224537,4.3574466 L2.71629051,4.58119066 L2.47154707,4.50578521 C2.32687114,4.46128362 2.17134452,4.54534217 2.12794174,4.69491693 L1.22974537,7.73956685 C1.18634259,7.88790546 1.26832562,8.04736946 1.41420718,8.09187104 L1.66015625,8.16851266 C1.66739005,8.17098497 1.67341821,8.17222112 1.68065201,8.17345728 L1.78795332,9.13271361 L1.64568866,9.13271361 C1.72646605,9.3144284 0.939187886,9.31690071 0.939187886,9.54188093 L0.939187886,9.55177017 C0.939187886,9.7767504 1.11882716,9.9609375 1.33825231,9.9609375 L8.88913002,9.9609375 C9.10855517,9.9609375 9.28819444,9.7767504 9.28819444,9.55177017 L9.28819444,9.54188093 C9.28819444,9.31690071 8.4056713,9.13271361 8.18624614,9.13271361 Z" id="路径"></path>
                <path d="M1.21889468,7.46143196 C0.549768519,7.46143196 0.0072337963,8.01770174 0.0072337963,8.7037678 C0.0072337963,9.38983386 0.549768519,9.94610364 1.21889468,9.94610364 C1.88802083,9.94610364 2.43055556,9.38983386 2.43055556,8.7037678 C2.43176119,8.01770174 1.88922647,7.46143196 1.21889468,7.46143196 Z M1.21889468,9.21059138 C0.946421682,9.21059138 0.724585262,8.98313884 0.724585262,8.7037678 C0.724585262,8.42439676 0.946421682,8.19694422 1.21889468,8.19694422 C1.49136767,8.19694422 1.71320409,8.42439676 1.71320409,8.7037678 C1.71320409,8.98313884 1.4925733,9.21059138 1.21889468,9.21059138 Z M8.73963156,7.46143196 C8.0705054,7.46143196 7.52797068,8.01770174 7.52797068,8.7037678 C7.52797068,9.38983386 8.0705054,9.94610364 8.73963156,9.94610364 C9.40875772,9.94610364 9.95129244,9.38983386 9.95129244,8.7037678 C9.95129244,8.01770174 9.40875772,7.46143196 8.73963156,7.46143196 Z M8.73963156,9.21059138 C8.46715856,9.21059138 8.24532215,8.98313884 8.24532215,8.7037678 C8.24532215,8.42439676 8.46715856,8.19694422 8.73963156,8.19694422 C9.01210455,8.19694422 9.23394097,8.42439676 9.23394097,8.7037678 C9.23394097,8.98313884 9.01210455,9.21059138 8.73963156,9.21059138 Z M2.793451,2.6849288 C2.15326003,2.6849288 1.63483796,3.21647547 1.63483796,3.87287381 C1.63483796,4.52927215 2.15326003,5.06081883 2.793451,5.06081883 C3.43364198,5.06081883 3.95206404,4.52927215 3.95206404,3.87287381 C3.95206404,3.21647547 3.43364198,2.6849288 2.793451,2.6849288 Z M2.793451,4.3574466 C2.53303434,4.3574466 2.32084298,4.14111946 2.32084298,3.87287381 C2.32084298,3.60586432 2.5318287,3.38830103 2.793451,3.38830103 C3.0550733,3.38830103 3.26605903,3.60462816 3.26605903,3.87287381 C3.26605903,4.14111946 3.05386767,4.3574466 2.793451,4.3574466 Z M6.64906443,0.00247231013 C6.00887346,0.00247231013 5.49045139,0.534018987 5.49045139,1.19041733 C5.49045139,1.84681566 6.00887346,2.37836234 6.64906443,2.37836234 C7.2892554,2.37836234 7.80767747,1.84681566 7.80767747,1.19041733 C7.80767747,0.534018987 7.2892554,0.00247231013 6.64906443,0.00247231013 Z M6.64906443,1.67499011 C6.38864776,1.67499011 6.1764564,1.45866297 6.1764564,1.19041733 C6.1764564,0.922171677 6.38744213,0.705844541 6.64906443,0.705844541 C6.9094811,0.705844541 7.12167245,0.922171677 7.12167245,1.19041733 C7.12167245,1.45866297 6.9094811,1.67499011 6.64906443,1.67499011 Z M4.96238426,4.80987935 C4.32219329,4.80987935 3.80377122,5.34142603 3.80377122,5.99782437 C3.80377122,6.65422271 4.32219329,7.18576938 4.96238426,7.18576938 C5.60257523,7.18576938 6.1209973,6.65422271 6.1209973,5.99782437 C6.1209973,5.34142603 5.6013696,4.80987935 4.96238426,4.80987935 Z M4.96238426,6.48239715 C4.70196759,6.48239715 4.48977623,6.26607002 4.48977623,5.99782437 C4.48977623,5.73081487 4.70076196,5.51325158 4.96238426,5.51325158 C5.22280093,5.51325158 5.43499228,5.72957872 5.43499228,5.99782437 C5.43499228,6.26607002 5.22280093,6.48239715 4.96238426,6.48239715 Z" id="形状" fill-rule="nonzero"></path>
            </g>
        </g>
    </g>
</svg>