<?xml version="1.0" encoding="UTF-8"?>
<svg width="16px" height="16px" viewBox="0 0 16 16" version="1.1" xmlns="http://www.w3.org/2000/svg" xmlns:xlink="http://www.w3.org/1999/xlink">
    <!-- Generator: Sketch 52.4 (67378) - http://www.bohemiancoding.com/sketch -->
    <title>画板</title>
    <desc>Created with Sketch.</desc>
    <g id="画板" stroke="none" stroke-width="1" fill="none" fill-rule="evenodd">
        <g id="chaxun-4-2" transform="translate(3.000000, 3.000000)" fill="#FFFFFF">
            <g id="chaxun-4">
                <path d="M9.77115028,8.66570657 L8.21311225,7.11090293 C9.5608889,5.19605697 9.22001404,2.569457 7.42802325,1.06142565 C5.63603246,-0.446605709 2.98762882,-0.335602223 1.32832863,1.31708432 C-0.330971552,2.96977087 -0.450500878,5.61566792 1.05303359,7.41100586 C2.55656807,9.2063438 5.18419248,9.55530875 7.10487033,8.21472762 L8.66411195,9.77073386 C8.96947979,10.0761871 9.46484829,10.0764563 9.77054848,9.77133515 C10.0762487,9.46621401 10.0765181,8.9712457 9.77115028,8.66579247 L9.77115028,8.66570657 Z M6.6418348,6.64703887 C5.4655192,7.8223947 3.55834326,7.82238959 2.38203397,6.64702745 C1.20572468,5.47166531 1.20572468,3.56603011 2.38203397,2.39066796 C3.55834326,1.21530582 5.4655192,1.21530071 6.6418348,2.39065654 C7.20690627,2.95501467 7.52439601,3.72059347 7.52442826,4.51889802 C7.52446051,5.31720256 7.20703261,6.08280697 6.64200674,6.64721067 L6.6418348,6.64703887 Z" id="形状" fill-rule="nonzero"></path>
                <path d="M4.93654742,6.13263926 C4.88585003,6.23460635 4.79919623,6.31087898 4.69569872,6.34463418 C4.59220121,6.37838938 4.48036261,6.36685405 4.38485049,6.31257247 L2.94381261,5.49555123 C2.7448468,5.3827315 2.66932026,5.11927622 2.77511935,4.9071074 C2.88091845,4.69493858 3.12797922,4.61440022 3.32694503,4.72721996 L4.40759468,5.33987148 L5.59527081,2.95818181 C5.70106991,2.74601299 5.94813067,2.66547464 6.14709648,2.77829437 C6.34606229,2.8911141 6.42158883,3.15456938 6.31578974,3.3667382 L4.93654742,6.13263926 Z" id="路径"></path>
            </g>
        </g>
    </g>
</svg>