<?xml version="1.0" encoding="UTF-8"?>
<svg width="16px" height="16px" viewBox="0 0 16 16" version="1.1" xmlns="http://www.w3.org/2000/svg" xmlns:xlink="http://www.w3.org/1999/xlink">
    <!-- Generator: Sketch 52.4 (67378) - http://www.bohemiancoding.com/sketch -->
    <title>画板</title>
    <desc>Created with Sketch.</desc>
    <g id="画板" stroke="none" stroke-width="1" fill="none" fill-rule="evenodd">
        <g id="zuobiao-2" transform="translate(3.000000, 3.000000)" fill="#FFFFFF" fill-rule="nonzero">
            <g id="zuobiao">
                <path d="M10.9721349,7.50445013 L8.25790352,6.5163395 L8.25790352,7.31046622 L6.68760864,7.31046622 C6.59077256,5.84006544 5.40146792,4.66435286 3.91406829,4.56862348 L3.91406828,2.68740294 L4.71737566,2.68740294 L3.71784179,0.0038144096 L2.71830791,2.68740294 L3.52161529,2.68740294 L3.52161529,4.56861091 C2.03455878,4.66436542 0.845292265,5.84006543 0.748456189,7.31045365 L0.00599541975,7.31045366 L0.00599541975,7.69842148 L0.748456189,7.69842148 C0.845292265,9.16880969 2.03455878,10.3445223 3.52161529,10.4402768 L3.52161529,10.996173 L3.91408099,10.996173 L3.91408099,10.4402768 C5.40149333,10.3445474 6.59078525,9.16882227 6.68762133,7.69842148 L8.25790349,7.69842148 L8.25790349,8.4925482 L10.9721349,7.50445013 Z M5.16025459,7.31045366 L3.91406829,7.31045366 L3.91406829,6.0785095 C4.56110358,6.16467849 5.07308941,6.67081304 5.16025459,7.31045366 Z M3.52161529,6.07853461 L3.52161529,7.31046622 L2.27582294,7.31046622 C2.36296271,6.67085073 2.874885,6.16472875 3.52161529,6.07853461 Z M2.27582294,7.69842148 L3.52161529,7.69842148 L3.52161529,8.93035308 C2.8749104,8.8441087 2.36300084,8.3377857 2.27582294,7.69842148 Z M3.91406828,8.93035308 L3.91406828,7.69842148 L5.16024187,7.69842148 C5.07306399,8.33781083 4.56107817,8.84414639 3.91406828,8.93035308 Z" id="形状"></path>
            </g>
        </g>
    </g>
</svg>