<?xml version="1.0" encoding="UTF-8"?>
<svg width="16px" height="16px" viewBox="0 0 16 16" version="1.1" xmlns="http://www.w3.org/2000/svg" xmlns:xlink="http://www.w3.org/1999/xlink">
    <!-- Generator: Sketch 52.4 (67378) - http://www.bohemiancoding.com/sketch -->
    <title>坡度分析</title>
    <desc>Created with Sketch.</desc>
    <g id="坡度分析" stroke="none" stroke-width="1" fill="none" fill-rule="evenodd">
        <g id="斜坡" transform="translate(2.000000, 3.000000)" fill="#FFFFFF" fill-rule="nonzero">
            <path d="M7.9615406,0 L7.9615406,0.237587007 L6.68569838,0.237587007 L6.68569838,0.902830626 L7.50537355,0.902830626 L7.50537355,1.14041763 L6.68569838,1.14041763 L6.68569838,1.80566125 L7.50537355,1.80566125 L7.50537355,2.04324826 L6.68569838,2.04324826 L6.68569838,2.70849188 L7.50537355,2.70849188 L7.50537355,2.94607889 L6.68569838,2.94607889 L6.68569838,3.62716164 L7.50537355,3.62716164 L7.50537355,3.86474865 L6.68569838,3.86474865 L6.68569838,4.52999227 L7.9615406,4.52999227 L7.9615406,4.76757927 L6.68569838,4.76757927 L6.68569838,5.43282289 L7.50537355,5.43282289 L7.50537355,5.6704099 L6.68569838,5.6704099 L6.68569838,6.33565352 L7.50537355,6.33565352 L7.50537355,6.57324053 L6.68569838,6.57324053 L6.68569838,7.25432328 L7.50537355,7.25432328 L7.50537355,7.49191029 L6.68569838,7.49191029 L6.68569838,8.15715391 L7.50537355,8.15715391 L7.50537355,8.39474091 L6.68569838,8.39474091 L6.68569838,9.05998453 L7.9615406,9.05998453 L7.9615406,9.29757154 L6.47187007,9.29757154 L6.47187007,0 L7.9615406,0 Z M6.2152761,3.99146172 L5.38847332,4.97348801 L4.40486311,4.64878577 L0,9.29757154 L6.2152761,9.29757154 L6.2152761,3.99146172 Z M9.60801856,0 L8.17536891,1.47303944 L8.17536891,9.29757154 L11.9886404,9.29757154 L11.9886404,0 L9.60801856,0 Z" id="形状"></path>
        </g>
    </g>
</svg>