<?xml version="1.0" encoding="UTF-8"?>
<svg width="16px" height="16px" viewBox="0 0 16 16" version="1.1" xmlns="http://www.w3.org/2000/svg" xmlns:xlink="http://www.w3.org/1999/xlink">
    <!-- Generator: Sketch 52.4 (67378) - http://www.bohemiancoding.com/sketch -->
    <title>天际线分析</title>
    <desc>Created with Sketch.</desc>
    <g id="天际线分析" stroke="none" stroke-width="1" fill="none" fill-rule="evenodd">
        <path d="M6.84615385,6.57142857 L13,6.57142857 L13,13 L6.84615385,13 L3,13 L3,4.92307692 C3,3.86099087 3.86099087,3 4.92307692,3 C5.98516298,3 6.84615385,3.86099087 6.84615385,4.92307692 L6.84615385,6.57142857 Z M3.76923077,4.42857143 L3.76923077,5.85714286 L6.07692308,5.85714286 L6.07692308,4.42857143 L3.76923077,4.42857143 Z M3.76923077,6.57142857 L3.76923077,7.28571429 L6.07692308,7.28571429 L6.07692308,6.57142857 L3.76923077,6.57142857 Z M3.76923077,8 L3.76923077,8.71428571 L6.07692308,8.71428571 L6.07692308,8 L3.76923077,8 Z M3.76923077,9.42857143 L3.76923077,10.1428571 L6.07692308,10.1428571 L6.07692308,9.42857143 L3.76923077,9.42857143 Z M3.76923077,10.8571429 L3.76923077,11.5714286 L6.07692308,11.5714286 L6.07692308,10.8571429 L3.76923077,10.8571429 Z M7.61538462,8 L7.61538462,8.71428571 L12.2307692,8.71428571 L12.2307692,8 L7.61538462,8 Z M7.61538462,9.42857143 L7.61538462,10.1428571 L12.2307692,10.1428571 L12.2307692,9.42857143 L7.61538462,9.42857143 Z M7.61538462,10.8571429 L7.61538462,11.5714286 L12.2307692,11.5714286 L12.2307692,10.8571429 L7.61538462,10.8571429 Z" id="合并形状" fill="#FFFFFF" fill-rule="nonzero"></path>
    </g>
</svg>