<?xml version="1.0" encoding="UTF-8"?>
<svg width="24px" height="24px" viewBox="0 0 24 24" version="1.1" xmlns="http://www.w3.org/2000/svg" xmlns:xlink="http://www.w3.org/1999/xlink">
    <!-- Generator: Sketch 52.4 (67378) - http://www.bohemiancoding.com/sketch -->
    <title>画板</title>
    <desc>Created with Sketch.</desc>
    <g id="画板" stroke="none" stroke-width="1" fill="none" fill-rule="evenodd">
        <g id="OBJ-2" transform="translate(3.000000, 3.000000)" fill="#FFFFFF" fill-rule="nonzero">
            <g id="OBJ">
                <path d="M9,3.08283025 L12.8571429,3.08283025 L12.8571429,4.64533026 L9,4.64533026 L9,3.08283025 Z M9,5.63964843 L15.4285714,5.63964843 L15.4285714,7.20214845 L9,7.20214845 L9,5.63964843 Z M9,8.19646661 L15.4285714,8.19646661 L15.4285714,9.75896663 L9,9.75896663 L9,8.19646661 Z M9,10.7532848 L15.4285714,10.7532848 L15.4285714,12.3157848 L9,12.3157848 L9,10.7532848 Z M9,13.310103 L15.4285714,13.310103 L15.4285714,14.872603 L9,14.872603 L9,13.310103 Z M4.71428572,8.36692117 C4.72857143,8.1254439 4.57142858,8.02601207 4.24285714,8.04021662 L3.68571429,8.04021662 L3.68571429,8.73623936 L4.25714285,8.73623936 C4.55714285,8.72203481 4.69999999,8.5941939 4.71428572,8.36692117 Z M4.79999999,9.3754439 C4.78571428,9.14817117 4.61428572,9.02033026 4.28571428,9.02033026 L4.28571428,9.00612572 L3.68571429,9.00612572 L3.68571429,9.77317117 L4.31428572,9.77317117 C4.64285716,9.77317117 4.80000001,9.64533026 4.79999999,9.3754439 Z M1.82857142,8.04021662 C1.35714285,8.08283025 1.1142857,8.36692117 1.08571428,8.92089844 C1.1142857,9.46067116 1.35714285,9.75896663 1.81428571,9.78737571 C2.28571429,9.75896663 2.52857144,9.47487572 2.55714286,8.92089844 C2.52857144,8.36692117 2.28571429,8.08283025 1.82857142,8.04021662 Z" id="形状"></path>
                <path d="M17.6428571,4.85839843 L13.3142857,0.398171158 C13.0857143,0.156693883 12.7571429,0.0288529741 12.4285714,0.0146484308 L3.81428572,0.0146484308 C3.12857144,0.0146484308 2.57142857,0.568625697 2.57142857,1.25044389 L2.57142857,5.12828479 L0.942857136,5.12828479 C0.41428571,5.12828479 0,5.55442115 0,6.06578481 L0,11.8612393 C0,12.3868075 0.428571422,12.7987393 0.942857136,12.7987393 L2.57142857,12.7987393 L2.57142857,16.6765803 C2.57142857,17.3583984 3.12857142,17.9123757 3.81428572,17.9123757 L16.7571429,17.9123757 C17.4428571,17.9123757 18,17.3583984 18,16.6765803 L18,5.72487571 C18,5.39817116 17.8714286,5.08567116 17.6428571,4.85839843 Z M1.82857142,10.0714666 C1.1142857,10.028853 0.742857147,9.65953481 0.714285723,8.92089844 C0.742857147,8.16805753 1.11428572,7.7845348 1.82857142,7.74192117 C2.5142857,7.7845348 2.88571428,8.18226207 2.94285715,8.92089844 C2.91428572,9.64533026 2.54285715,10.028853 1.82857142,10.0714666 Z M3.32857143,10.0430575 L3.32857143,7.77033026 L4.29999999,7.77033026 C4.78571428,7.7845348 5.04285714,7.9691939 5.07142856,8.31010298 C5.08571427,8.57998934 4.87142855,8.80726207 4.6,8.83567116 L4.6,8.8498757 C4.94285715,8.90669387 5.14285714,9.09135298 5.17142857,9.38964844 C5.17142857,9.80158026 4.9,10.0146484 4.35714286,10.0146484 L3.32857143,10.0146484 L3.32857143,10.0430575 Z M16.5714286,16.5061257 L4,16.5061257 L4,12.8129439 L6.77142858,12.8129439 C7.3,12.8129439 7.71428571,12.3868075 7.71428571,11.8754439 L7.71428571,6.07998935 C7.71428571,5.55442117 7.28571429,5.14248936 6.77142858,5.14248934 L4,5.14248934 L4,1.44930754 L12.3428571,1.44930754 L14.1428571,3.29589844 L16.5714286,5.79589845 L16.5714286,16.5061257 Z M5.44285714,9.3754439 L5.77142857,9.27601208 C5.78571429,9.63112572 5.92857143,9.80158026 6.18571428,9.80158026 C6.45714285,9.78737571 6.58571428,9.61692118 6.57142857,9.26180754 L6.57142857,7.79873934 L6.91428572,7.79873934 L6.91428572,9.29021662 C6.92857143,9.82998934 6.68571429,10.0998757 6.2,10.0998757 C5.74285713,10.0856712 5.5,9.84419389 5.44285714,9.3754439 Z" id="形状"></path>
            </g>
        </g>
    </g>
</svg>