<?xml version="1.0" encoding="UTF-8"?>
<svg width="16px" height="16px" viewBox="0 0 16 16" version="1.1" xmlns="http://www.w3.org/2000/svg" xmlns:xlink="http://www.w3.org/1999/xlink">
    <!-- Generator: Sketch 52.4 (67378) - http://www.bohemiancoding.com/sketch -->
    <title>画板</title>
    <desc>Created with Sketch.</desc>
    <g id="画板" stroke="none" stroke-width="1" fill="none" fill-rule="evenodd">
        <g id="shuxing" transform="translate(2.000000, 2.000000)" fill="#FFFFFF" fill-rule="nonzero">
            <path d="M6,0 C2.69311065,0 0,2.69311065 0,6 C0,9.30688935 2.69311065,12 6,12 C9.30688935,12 12,9.30688935 12,6 C12,2.69311065 9.30688935,2.17293129e-16 6,0 Z M4.61538462,2.55621302 C4.61538462,2.16426036 5.02892308,1.84615385 5.53846154,1.84615385 C6.048,1.84615385 6.46153846,2.16426036 6.46153846,2.55621302 L6.46153846,2.98224852 C6.46153846,3.37420118 6.048,3.69230769 5.53846154,3.69230769 C5.02892308,3.69230769 4.61538462,3.37420118 4.61538462,2.98224852 L4.61538462,2.55621302 Z M6.46153846,9.41299477 C6.46153846,9.81926811 6.048,10.1538462 5.53846154,10.1538462 C5.02892308,10.1538462 4.61538462,9.81926811 4.61538462,9.40702016 L4.61538462,5.3622106 C4.61538462,4.94996266 5.02892308,4.61538462 5.53846154,4.61538462 C6.048,4.61538462 6.46153846,4.94996266 6.46153846,5.3622106 L6.46153846,9.41299477 Z" id="形状"></path>
        </g>
    </g>
</svg>