<?xml version="1.0" encoding="UTF-8"?>
<svg width="16px" height="16px" viewBox="0 0 16 16" version="1.1" xmlns="http://www.w3.org/2000/svg" xmlns:xlink="http://www.w3.org/1999/xlink">
    <!-- Generator: Sketch 52.4 (67378) - http://www.bohemiancoding.com/sketch -->
    <title>画板</title>
    <desc>Created with Sketch.</desc>
    <g id="画板" stroke="none" stroke-width="1" fill="none" fill-rule="evenodd">
        <g id="taishibiaohui" transform="translate(3.000000, 4.000000)" fill="#FFFFFF">
            <path d="M10.9358773,0.584533357 L10.2946499,0.0553768444 C10.2058646,-0.0184589481 10.0628215,-0.0184589481 9.97403622,0.0553768444 L9.51037951,0.445065749 L10.4722206,1.23674952 L10.9358773,0.847060619 C10.9802699,0.810142723 11,0.76502085 11,0.715796988 C11,0.666573127 10.9802699,0.617349265 10.9358773,0.584533357 Z M5.46078207,3.82510425 L5.01685543,4.74394967 C4.94286766,4.89572324 5.12537083,5.04749681 5.31280652,4.98596699 L6.42755564,4.62089001 L9.99376629,1.63874439 L9.02699272,0.847060619 L5.46078207,3.82510425 Z" id="形状" fill-rule="nonzero"></path>
            <path d="M7.55301649,5.79334031 L7.55301649,4.01178433 L7.13732182,4.43337392 L7.13732182,5.79334031 C6.94511891,5.86133863 6.79314452,6.01546816 6.72609699,6.21039667 L2.17580485,7.12610738 C2.10875732,6.93117886 1.95678293,6.77704934 1.76458002,6.70905102 L0.861673329,1.29185154 C1.05387624,1.22385322 1.20585063,1.06972369 1.27289816,0.874795177 L6.0645614,2.47955553 L6.37298002,2.16223003 L1.27289816,0.453205594 C1.17456179,0.158546208 0.888492339,-0.0318490881 0.584543552,0.00441668254 C0.280594764,0.0361492318 0.0392236684,0.280943183 0.00346498748,0.593735455 C-0.0278238583,0.901994505 0.155439381,1.19665389 0.445978663,1.29185154 L1.34888536,6.70905102 C1.05834607,6.80878189 0.870612999,7.09890805 0.90637168,7.4071671 C0.937660526,7.71542615 1.17903162,7.96022011 1.48745024,7.99648588 C1.79139903,8.02821843 2.08193831,7.84235635 2.17580485,7.54769696 L6.72609699,6.63198626 C6.8289032,6.93571209 7.13285199,7.12157416 7.45021028,7.07170873 C7.76309874,7.02184329 7.99553016,6.74531679 8,6.42345808 C7.99553016,6.12879869 7.80779709,5.87947152 7.55301649,5.79334031 Z M0.405750147,0.666266996 C0.405750147,0.507604249 0.530905531,0.380674052 0.687349759,0.380674052 C0.843793988,0.380674052 0.968949371,0.507604249 0.968949371,0.666266996 C0.968949371,0.824929742 0.843793988,0.951859939 0.687349759,0.951859939 C0.530905531,0.951859939 0.405750147,0.824929742 0.405750147,0.666266996 Z M1.69753249,7.57942951 C1.60813579,7.62929495 1.50085975,7.62929495 1.41593288,7.57942951 C1.33100602,7.52956408 1.27289816,7.43436643 1.27289816,7.33010234 C1.27289816,7.1714396 1.39805354,7.0445094 1.55449777,7.0445094 C1.710942,7.0445094 1.83609738,7.1714396 1.83609738,7.33010234 C1.84056722,7.43436643 1.7869292,7.52956408 1.69753249,7.57942951 Z M7.51725781,6.62745304 C7.43233094,6.67731847 7.32058506,6.67731847 7.2356582,6.62745304 C7.14626149,6.5775876 7.09262347,6.48238995 7.09262347,6.37812586 C7.09262347,6.27386177 7.14626149,6.18319735 7.2356582,6.12879869 C7.32058506,6.07893326 7.43233094,6.07893326 7.51725781,6.12879869 C7.60665451,6.17866413 7.66029253,6.27386177 7.66029253,6.37812586 C7.66029253,6.48238995 7.60665451,6.5775876 7.51725781,6.62745304 Z" id="形状" fill-rule="nonzero"></path>
            <path d="M5.12641384,3.95334686 L6.82168995,2.46855984 L1.3586161,1 C1.34464405,1.12981744 1.21889554,1.23123732 1.06520293,1.23123732 C1.04191617,1.23123732 1.01862941,1.22718053 1,1.22312373 L2.0758483,6.70385396 C2.18762475,6.74036511 2.26679973,6.8336714 2.26679973,6.94320487 C2.26679973,6.96348884 2.26214238,6.98377282 2.25748503,7 L7.75316035,6.16024341 C7.74384564,6.13590264 7.73918829,6.11156187 7.73918829,6.0872211 C7.73918829,5.99391481 7.79507651,5.9127789 7.88822355,5.86409736 C7.92548237,5.84787018 7.96274118,5.8356998 8,5.831643 L7.96274118,4.18864097 L6.69594145,5.30020284 L4.87957418,5.92494929 C4.57684631,6.03042596 4.27877578,5.77079108 4.39986693,5.51115619 L5.12641384,3.95334686 Z" id="路径"></path>
        </g>
    </g>
</svg>