<?xml version="1.0" encoding="UTF-8"?>
<svg width="16px" height="16px" viewBox="0 0 16 16" version="1.1" xmlns="http://www.w3.org/2000/svg" xmlns:xlink="http://www.w3.org/1999/xlink">
    <!-- Generator: Sketch 52.4 (67378) - http://www.bohemiancoding.com/sketch -->
    <title>画板</title>
    <desc>Created with Sketch.</desc>
    <g id="画板" stroke="none" stroke-width="1" fill="none" fill-rule="evenodd">
        <g id="chaifen-2" transform="translate(3.000000, 3.000000)" fill="#FFFFFF">
            <g id="chaifen">
                <path d="M0.611111113,1.25 L3.05555555,1.25 C3.46296296,1.25 3.66666667,1.47435897 3.66666667,1.92307692 L3.66666667,9.32692308 C3.66666667,9.77564103 3.46296296,10 3.05555555,10 L0.611111113,10 C0.203703704,10 0,9.77564103 0,9.32692308 L0,1.92307692 C0,1.47435897 0.203703704,1.25 0.611111113,1.25 Z" id="路径"></path>
                <path d="M7.94444445,1.25 L10.3888889,1.25 C10.7962963,1.25 11,1.47435897 11,1.92307692 L11,9.32692308 C11,9.77564103 10.7962963,10 10.3888889,10 L7.94444445,10 C7.53703704,10 7.33333333,9.77564103 7.33333333,9.32692308 L7.33333333,1.92307692 C7.33333333,1.47435897 7.53703704,1.25 7.94444445,1.25 Z" id="路径"></path>
                <path d="M4.88888889,0 L6.11111111,0 L6.11111111,1.42857143 L4.88888889,1.42857143 L4.88888889,0 Z M4.88888889,2.85714286 L6.11111111,2.85714286 L6.11111111,4.28571429 L4.88888889,4.28571429 L4.88888889,2.85714286 Z M4.88888889,5.71428571 L6.11111111,5.71428571 L6.11111111,7.14285714 L4.88888889,7.14285714 L4.88888889,5.71428571 Z M4.88888889,8.57142857 L6.11111111,8.57142857 L6.11111111,10 L4.88888889,10 L4.88888889,8.57142857 Z" id="形状" fill-rule="nonzero"></path>
            </g>
        </g>
    </g>
</svg>