<?xml version="1.0" encoding="UTF-8"?>
<svg width="16px" height="16px" viewBox="0 0 16 16" version="1.1" xmlns="http://www.w3.org/2000/svg" xmlns:xlink="http://www.w3.org/1999/xlink">
    <!-- Generator: Sketch 52.4 (67378) - http://www.bohemiancoding.com/sketch -->
    <title>断面监测</title>
    <desc>Created with Sketch.</desc>
    <g id="断面监测" stroke="none" stroke-width="1" fill="none" fill-rule="evenodd">
        <g id="断面属性_2" transform="translate(3.000000, 3.000000)" fill="#FFFFFF">
            <path d="M9.97961138,10.0000017 L3.91829591,10.0000017 C3.85958369,9.95175922 3.85331492,9.88313578 3.85117206,9.81301818 C3.86207428,9.51910045 3.84461193,9.22488976 3.86370961,8.93116735 C3.8503074,8.74251391 3.85733745,8.55342102 3.85088071,8.36462109 C3.85794836,8.06550803 3.85664197,7.76627777 3.85084312,7.4672526 C3.85700852,7.28256403 3.85737506,7.09774849 3.85084312,6.91305992 C3.85661378,6.61372225 3.85798596,6.31438457 3.85088071,6.01509572 C3.85704611,5.82471375 3.85069274,5.63410718 3.86349345,5.44380334 C3.84958939,5.14931456 3.84956743,4.85429508 3.86342766,4.55980406 C3.85095589,4.36901194 3.85697091,4.17769246 3.85092771,3.98678315 C3.85726227,3.69354903 3.85737506,3.40035396 3.85092771,3.10711984 C3.85694273,2.91624959 3.85080553,2.72499847 3.86345586,2.53420635 C3.84943335,2.23724174 3.84994086,1.94027712 3.86306112,1.64335157 C3.85204612,1.45519618 3.8503074,1.26700173 3.8632021,1.07884634 C3.85001604,0.744967452 3.85150101,0.411020201 3.86015699,0.0771120023 C3.87893513,0.00728738217 3.93250639,0.00217015856 3.98930133,0.00217015856 C4.73632904,0.00205297001 5.48337556,-0.00434355218 6.2302905,0.00540259964 C6.51997004,0.00921121777 6.71946189,0.18482747 6.8401288,0.449858312 C7.04509055,0.899763273 7.2452403,1.35222684 7.43836,1.80774706 C7.86113122,2.80506731 8.29636481,3.79666487 8.73265102,4.78751047 C9.00877797,5.41465278 9.27916246,6.04476387 9.56723486,6.66652529 C9.696351,6.94507183 9.82306112,7.22651878 9.93393483,7.51413764 C9.97043848,7.60886475 9.99251547,7.71220519 9.99273164,7.81622923 C9.99370908,8.52185833 9.99327675,9.22752649 9.99316397,9.9331556 C9.99312637,9.9563198 9.99617148,9.98038244 9.97961138,10.0000017 Z" id="路径"></path>
            <path d="M3.90416062,1.0392564 C2.66470964,1.03831655 1.42522107,1.03762107 0.185770094,1.03595754 C-0.0276126974,1.03570378 0.00718983083,1.05631461 0.00544171053,0.857151711 C0.00352442669,0.644577199 0.0120394361,0.431598543 0.0022556297,0.219446955 C-0.00336465226,0.0979529793 0.0282048026,0.0604531015 0.155901767,0.0610921898 C1.26417835,0.0665339004 2.37253011,0.0644286466 3.48085368,0.0643252632 C3.62105061,0.0643252632 3.76128513,0.0631222556 3.90151965,0.0624737688 C3.92805152,0.388036654 3.92239365,0.713627726 3.90416062,1.0392564 Z M3.90220573,2.4447125 C2.65803673,2.44402641 1.41386772,2.44076514 0.169745705,2.44633843 C0.0292950188,2.44695873 -0.00745298872,2.40908291 0.0020018703,2.27413973 C0.0143232613,2.09852938 0.0137781485,1.92085137 0.00218984023,1.74517523 C-0.00655073308,1.61306098 0.0249811184,1.5712284 0.168044586,1.57205547 C1.35790926,1.57887876 2.54778332,1.57590884 3.73764799,1.57583366 C3.79194293,1.57583366 3.84620028,1.57456486 3.90046702,1.57384118 C3.92678273,1.86401884 3.92250643,2.15438446 3.90220573,2.4447031 L3.90220573,2.4447125 Z M3.89886928,5.24931831 C2.65365704,5.24870741 1.4084354,5.24576569 0.163223167,5.25076568 C0.0297649436,5.25131079 -0.00615599624,5.21589737 0.00196427632,5.08585078 C0.0138157425,4.8963589 0.0110995865,4.70541965 0.00258457707,4.51559882 C-0.00213344925,4.40986606 0.0270863816,4.3777985 0.13610859,4.37881353 C0.729236419,4.38417066 1.32246763,4.38152969 1.91566125,4.38127594 C2.57674939,4.38102218 3.23786572,4.38040188 3.89894446,4.37986617 C3.92432032,4.66967728 3.92340867,4.95949779 3.89886928,5.24931831 Z M3.89666064,6.65350561 C2.65191833,6.65275373 1.40716662,6.64974622 0.162461889,6.65477441 C0.0280638158,6.65531952 -0.00593043233,6.61795121 0.00196427632,6.48906064 C0.0136371711,6.29964395 0.0113627444,6.10874229 0.0025093891,5.91899664 C-0.00245299812,5.81246503 0.0284585526,5.78238054 0.13610859,5.78318881 C0.828615808,5.78803841 1.52116061,5.78586737 2.21370542,5.78550083 C2.77493486,5.78521887 3.33619248,5.78419444 3.89745951,5.78343317 C3.92311732,6.07354504 3.9244989,6.36354412 3.89666064,6.65350561 Z M3.89604034,8.05487337 C2.65202171,8.0541121 1.40800307,8.05120797 0.164022039,8.05596359 C0.0325186936,8.0564993 -0.00655073308,8.0240652 0.00189848684,7.89256185 C0.0140695019,7.70332373 0.0111747744,7.51252546 0.00262217105,7.32289259 C-0.00217104323,7.21734781 0.0274435244,7.18468814 0.135704455,7.18599453 C0.606107105,7.19172759 1.07661314,7.1886355 1.54707219,7.18834414 C2.3296543,7.18787422 3.11227402,7.18708475 3.89484674,7.18638927 C3.92526018,7.47585264 3.92112485,7.76533481 3.89604034,8.05487337 Z M3.89644447,9.45880691 C2.65166457,9.45833698 1.40688466,9.45551744 0.162132951,9.46091217 C0.027302547,9.46152307 -0.00593043233,9.42390101 0.00203946429,9.29551795 C0.0135243891,9.11066891 0.0124435714,8.92414695 0.0022556297,8.73908174 C-0.00419171992,8.62204263 0.024877735,8.58623447 0.148721335,8.58750327 C0.804988064,8.59442055 1.46135817,8.5909807 2.11772828,8.59072695 C2.71067754,8.59047319 3.30364559,8.58985289 3.89658545,8.58938296 C3.92163237,8.87920348 3.92061733,9.16902398 3.89644447,9.45880691 Z M3.8981456,3.84560093 C2.65876981,3.84480206 1.41934703,3.84184154 0.179971241,3.84625883 C0.0433175376,3.84672875 -0.0100281579,3.81906906 0.00153194549,3.67166352 C0.0159585902,3.48735959 0.0128382989,3.30057446 0.00218984023,3.11572541 C-0.00463344925,2.99716376 0.0393701786,2.97603601 0.147452547,2.97636495 C1.33258039,2.97994577 2.51773642,2.97861118 3.70285486,2.978536 C3.76617233,2.978536 3.82949919,2.97814126 3.89281667,2.9779157 C3.93990299,3.10869537 3.91210233,3.24407088 3.91257225,3.37688061 C3.91315495,3.53295155 3.93353083,3.69039466 3.8981456,3.84560093 Z" id="形状" fill-rule="nonzero"></path>
        </g>
    </g>
</svg>