<?xml version="1.0" encoding="UTF-8"?>
<svg width="18px" height="18px" viewBox="0 0 18 18" version="1.1" xmlns="http://www.w3.org/2000/svg" xmlns:xlink="http://www.w3.org/1999/xlink">
    <!-- Generator: Sketch 52.4 (67378) - http://www.bohemiancoding.com/sketch -->
    <title>画板</title>
    <desc>Created with Sketch.</desc>
    <g id="画板" stroke="none" stroke-width="1" fill="none" fill-rule="evenodd">
        <g id="menu_new" fill="#98ADFA" fill-rule="nonzero">
            <path d="M8.99999998,0 C4.02943723,1.05059615e-08 -7.00397268e-09,4.02943727 0,9.00000001 C7.00397268e-09,13.9705628 4.02943726,18 9.00000001,18 C13.9705628,18 18,13.9705627 18,9 C18,6.61305159 17.0517884,4.32386637 15.363961,2.63603896 C13.6761336,0.948211556 11.3869484,-5.04512999e-09 8.99999998,1.07550332e-14 Z M13.8681818,9.81818183 L9.81818181,9.81818183 L9.81818181,13.8272727 C9.81818181,14.2791421 9.45186933,14.6454545 8.99999998,14.6454545 C8.54813064,14.6454545 8.18181817,14.2791421 8.18181817,13.8272727 L8.18181817,9.81818183 L4.17272726,9.81818183 C3.72085791,9.81818183 3.35454543,9.45186934 3.35454543,9 C3.35454543,8.54813066 3.72085791,8.18181817 4.17272726,8.18181817 L8.18181817,8.18181817 L8.18181817,4.17272728 C8.18181817,3.72085794 8.54813064,3.35454546 8.99999998,3.35454545 C9.45186933,3.35454545 9.81818181,3.72085793 9.81818181,4.17272728 L9.81818181,8.18181817 L13.8272727,8.18181817 C14.2791421,8.18181819 14.6454545,8.54813066 14.6454545,9 C14.6460003,9.43636376 14.3040001,9.79636395 13.8681818,9.81818183 Z" id="形状"></path>
        </g>
    </g>
</svg>