<?xml version="1.0" encoding="UTF-8"?>
<svg width="16px" height="16px" viewBox="0 0 16 16" version="1.1" xmlns="http://www.w3.org/2000/svg" xmlns:xlink="http://www.w3.org/1999/xlink">
    <!-- Generator: Sketch 52.4 (67378) - http://www.bohemiancoding.com/sketch -->
    <title>画板</title>
    <desc>Created with Sketch.</desc>
    <g id="画板" stroke="none" stroke-width="1" fill="none" fill-rule="evenodd">
        <g id="xuanzhuan-3" transform="translate(3.000000, 2.000000)" fill="#FFFFFF" fill-rule="nonzero">
            <path d="M2.79693486,3.6521739 L7.39463602,3.6521739 L7.39463602,8.46822743 L2.79693486,8.46822743 L2.79693486,3.6521739 Z M7.01149425,9.19063545 L5.09578544,10.6354515 L7.01149425,12 L7.01149425,11.1571906 C8.39080459,10.5953177 9.46360153,9.43143813 10,7.90635451 L9.27203065,7.62541806 C8.85057472,8.78929765 8.04597701,9.71237458 7.01149425,10.2341137 L7.01149425,9.19063545 Z M3.14176245,1.84615385 L3.14176245,2.80936455 L5.05747126,1.44481605 L3.14176245,0 L3.14176245,1.00334448 C1.68582375,1.52508361 0.53639847,2.72909699 0,4.2541806 L0.727969348,4.53511705 C1.18773946,3.2909699 2.06896551,2.36789298 3.14176245,1.84615385 Z" id="形状"></path>
        </g>
    </g>
</svg>