<?xml version="1.0" encoding="UTF-8"?>
<svg width="16px" height="16px" viewBox="0 0 16 16" version="1.1" xmlns="http://www.w3.org/2000/svg" xmlns:xlink="http://www.w3.org/1999/xlink">
    <!-- Generator: Sketch 52.4 (67378) - http://www.bohemiancoding.com/sketch -->
    <title>日照分析</title>
    <desc>Created with Sketch.</desc>
    <g id="日照分析" stroke="none" stroke-width="1" fill="none" fill-rule="evenodd">
        <g id="太阳" transform="translate(1.000000, 1.000000)" fill="#FFFFFF" fill-rule="nonzero">
            <path d="M2.625,7 C2.625,9.41624578 4.58375422,11.375 7,11.375 C9.41624578,11.375 11.375,9.41624578 11.375,7 C11.375,4.58375422 9.41624578,2.625 7,2.625 C4.58375422,2.625 2.625,4.58375422 2.625,7 Z M7.083125,1.75 C7.520625,1.75 7.875,1.395625 7.875,0.958125 L7.875,0.791875 C7.875,0.354375 7.520625,0 7.083125,0 C6.645625,0 6.29125,0.354375 6.29125,0.791875 L6.29125,0.958125 C6.29125,1.395625 6.6465,1.75 7.083125,1.75 Z M2.226875,3.22875 C2.53575,3.5385 3.037125,3.5385 3.346,3.22875 C3.65575,2.919875 3.65575,2.4185 3.346,2.109625 L3.22875,1.9915 C2.919875,1.682625 2.4185,1.682625 2.109625,1.9915 C1.799875,2.300375 1.799875,2.80175 2.109625,3.110625 L2.226875,3.22875 Z M0.958125,6.125 L0.791875,6.125 C0.35525,6.125 0,6.479375 0,6.916875 C0,7.354375 0.354375,7.70875 0.791,7.707875 L0.95725,7.707875 C1.395625,7.70875 1.75,7.3535 1.75,6.916875 C1.75,6.479375 1.395625,6.125 0.958125,6.125 Z M2.109625,10.654 L1.9915,10.77125 C1.682625,11.081 1.682625,11.582375 1.9915,11.890375 C2.300375,12.200125 2.80175,12.200125 3.110625,11.890375 L3.22875,11.77225 C3.5385,11.463375 3.5385,10.962 3.22875,10.654 C2.919875,10.343375 2.4185,10.343375 2.109625,10.654 Z M6.916875,12.25 C6.479375,12.249125 6.125,12.6035 6.125,13.041875 L6.125,13.20725 C6.125,13.64475 6.48025,13.999125 6.916875,13.99825 C7.354375,13.999125 7.70875,13.64475 7.707875,13.20725 L7.707875,13.041 C7.70875,12.604375 7.3535,12.25 6.916875,12.25 Z M11.77225,10.77125 C11.463375,10.462375 10.962,10.462375 10.654,10.77125 C10.34425,11.080125 10.34425,11.5815 10.654,11.89125 L10.77125,12.0085 C11.081,12.31825 11.582375,12.31825 11.890375,12.0085 C12.200125,11.699625 12.200125,11.19825 11.890375,10.889375 L11.77225,10.77125 Z M13.208125,6.292125 L13.041875,6.292125 C12.604375,6.292125 12.25,6.6465 12.25,7.083125 C12.249125,7.520625 12.6035,7.875 13.041875,7.875 L13.20725,7.875 C13.64475,7.875 13.999125,7.520625 13.99825,7.083125 C14,6.6465 13.645625,6.292125 13.208125,6.292125 Z M10.8885,2.109625 L10.77125,2.22775 C10.4615,2.536625 10.4615,3.038 10.770375,3.346 C11.07925,3.65575 11.580625,3.65575 11.890375,3.346 L12.007625,3.22875 C12.317375,2.919 12.317375,2.417625 12.007625,2.109625 C11.699625,1.80075 11.19825,1.80075 10.8885,2.109625 Z" id="形状"></path>
        </g>
    </g>
</svg>