<?xml version="1.0" encoding="UTF-8"?>
<svg width="16px" height="16px" viewBox="0 0 16 16" version="1.1" xmlns="http://www.w3.org/2000/svg" xmlns:xlink="http://www.w3.org/1999/xlink">
    <!-- Generator: Sketch 52.4 (67378) - http://www.bohemiancoding.com/sketch -->
    <title>画板</title>
    <desc>Created with Sketch.</desc>
    <g id="画板" stroke="none" stroke-width="1" fill="none" fill-rule="evenodd">
        <g id="mianjiceliang-2" transform="translate(3.000000, 3.000000)" fill="#FFFFFF">
            <g id="mianjiceliang">
                <path d="M10.7396094,8.92357955 L1.91516493,8.92357955 L1.91516493,0.262973485 C1.91516493,0.117518939 2.03127604,0.00236742424 2.17794271,0.00236742424 C2.32460938,0.00236742424 2.44072049,0.117518939 2.44072049,0.262973485 L2.44072049,8.39630682 L10.7273872,8.39630682 C10.8740538,8.39630682 10.9901649,8.51145833 10.9901649,8.65691288 C11.0023872,8.80236742 10.886276,8.92357955 10.7396094,8.92357955 Z" id="路径"></path>
                <path d="M8.87572049,2.03267045 L2.93572049,2.03267045 L2.93572049,7.99024621 L8.8818316,7.99024621 L8.8818316,2.03267045 M8.66794271,10.9114583 C8.52127604,10.9114583 8.40516493,10.7963068 8.40516493,10.6508523 L8.40516493,9.36600379 L8.9368316,9.36600379 L8.9368316,10.6508523 C8.93072049,10.7963068 8.81460938,10.9114583 8.66794271,10.9114583 M0.00238715278,2.31751894 C0.00238715278,2.17206439 0.118498264,2.05691288 0.265164931,2.05691288 L1.5668316,2.05691288 L1.5668316,2.58418561 L0.265164931,2.58418561 C0.118498264,2.578125 0.00238715278,2.46297348 0.00238715278,2.31751894 M0.00238715278,3.89933712 C0.00238715278,3.75388258 0.118498264,3.63873106 0.265164931,3.63873106 L1.5668316,3.63873106 L1.5668316,4.16600379 L0.265164931,4.16600379 C0.118498264,4.15994318 0.00238715278,4.04479167 0.00238715278,3.89933712 M0.00238715278,5.39024621 C0.00238715278,5.24479167 0.118498264,5.12964015 0.265164931,5.12964015 L1.5668316,5.12964015 L1.5668316,5.65691288 L0.265164931,5.65691288 C0.118498264,5.65691288 0.00238715278,5.53570076 0.00238715278,5.39024621 M0.00238715278,7.00236742 C0.00238715278,6.85691288 0.118498264,6.74176136 0.265164931,6.74176136 L1.5668316,6.74176136 L1.5668316,7.26903409 L0.265164931,7.26903409 C0.118498264,7.26297348 0.00238715278,7.14782197 0.00238715278,7.00236742 M0.00238715278,8.65691288 C0.00238715278,8.51145833 0.118498264,8.39630682 0.265164931,8.39630682 L1.5668316,8.39630682 L1.5668316,8.92357955 L0.265164931,8.92357955 C0.118498264,8.92357955 0.00238715278,8.80236742 0.00238715278,8.65691288 M7.03016493,10.9114583 C6.88349826,10.9114583 6.76738715,10.7963068 6.76738715,10.6508523 L6.76738715,9.36600379 L7.29905382,9.36600379 L7.29905382,10.6508523 C7.29294271,10.7963068 7.1768316,10.9114583 7.03016493,10.9114583 M5.45349826,10.9114583 C5.3068316,10.9114583 5.19072049,10.7963068 5.19072049,10.6508523 L5.19072049,9.36600379 L5.72238715,9.36600379 L5.72238715,10.6508523 C5.71627604,10.7963068 5.60016493,10.9114583 5.45349826,10.9114583 M3.8768316,10.9114583 C3.73016493,10.9114583 3.61405382,10.7963068 3.61405382,10.6508523 L3.61405382,9.36600379 L4.14572049,9.36600379 L4.14572049,10.6508523 C4.13960938,10.7963068 4.02349826,10.9114583 3.8768316,10.9114583 M2.18405382,10.8872159 C2.03738715,10.8872159 1.92127604,10.7720644 1.92127604,10.6266098 L1.92127604,9.34176136 L2.45294271,9.34176136 L2.45294271,10.6266098 C2.4468316,10.7720644 2.33072049,10.8872159 2.18405382,10.8872159" id="形状" fill-rule="nonzero"></path>
            </g>
        </g>
    </g>
</svg>