<?xml version="1.0" encoding="UTF-8"?>
<svg width="16px" height="16px" viewBox="0 0 16 16" version="1.1" xmlns="http://www.w3.org/2000/svg" xmlns:xlink="http://www.w3.org/1999/xlink">
    <!-- Generator: Sketch 52.4 (67378) - http://www.bohemiancoding.com/sketch -->
    <title>淹没分析</title>
    <desc>Created with Sketch.</desc>
    <g id="淹没分析" stroke="none" stroke-width="1" fill="none" fill-rule="evenodd">
        <g id="历年淹没范围" transform="translate(2.000000, 2.000000)" fill="#FFFFFF">
            <path d="M5.44455641,4.60021906 C5.84201533,1.11481001 8.75040526,2.1475238 8.75040526,2.1475238 L8.6746988,1.474901 L9.30558598,2.13393546 C9.38760131,1.96408122 9.06584885,1.19634005 9.06584885,1.19634005 C9.06584885,1.19634005 9.06584885,1.10801584 9.85445783,1.45451849 C9.70304491,0.863425731 7.84865155,-0.0858337637 5.99342826,0.353863004 C0,2.37380677 0,10.6334417 0,10.6334417 C5.9177218,13.3511096 11.6714129,11.1430045 11.5136911,10.6334417 C5.99342826,8.6828053 5.25,6.92703147 5.44455641,4.60021906 Z" id="路径"></path>
            <path d="M11.9805476,9.17948943 L9.38129244,3.92080209 L7.48863089,7.82744966 L6.54230011,5.70087455 L5.99342826,6.80832421 C6.54860898,7.74591962 7.48863089,8.68451592 10.0184885,9.78417053 L11.52,9.78417053 C11.7597371,9.78417053 11.9742388,9.62790463 11.9931654,9.36972618 C11.9931654,9.28140197 11.9868565,9.19987194 11.9805476,9.17948943 Z" id="路径"></path>
        </g>
    </g>
</svg>