<?xml version="1.0" encoding="UTF-8"?>
<svg width="16px" height="16px" viewBox="0 0 16 16" version="1.1" xmlns="http://www.w3.org/2000/svg" xmlns:xlink="http://www.w3.org/1999/xlink">
    <!-- Generator: Sketch 52.4 (67378) - http://www.bohemiancoding.com/sketch -->
    <title>滑坡分析</title>
    <desc>Created with Sketch.</desc>
    <g id="滑坡分析" stroke="none" stroke-width="1" fill="none" fill-rule="evenodd">
        <path d="M8.85135464,3.48853182 L13.771175,11.4755361 C14.0608284,11.9457693 13.9144395,12.5617792 13.4442063,12.8514327 C13.2865158,12.9485665 13.1049483,13 12.9197423,13 L3.08010164,13 C2.52781689,13 2.08010164,12.5522847 2.08010164,12 C2.08010164,11.814794 2.1315351,11.6332265 2.22866898,11.4755361 L7.14848932,3.48853182 C7.43814275,3.01829855 8.05415264,2.87190966 8.52438592,3.1615631 C8.65742336,3.24351126 8.76940647,3.35549437 8.85135464,3.48853182 Z M8.02421125,3.92190582 L3.17341459,12.1182374 L7.04130919,12.1182374 L7.21589079,8.83577501 L8.19734994,7.58979554 L8.02421125,3.92190582 Z M7.52061558,6.64533407 C7.25590197,6.64533407 7.04130919,6.44211401 7.04130919,6.19142936 C7.04130919,5.94074471 7.25590197,5.73752465 7.52061558,5.73752465 C7.78532919,5.73752465 7.99992198,5.94074471 7.99992198,6.19142936 C7.99992198,6.44211401 7.78532919,6.64533407 7.52061558,6.64533407 Z M6.0826964,11.1843812 C5.55326918,11.1843812 5.12408361,10.777941 5.12408361,10.2765717 C5.12408361,9.77520245 5.55326918,9.36876233 6.0826964,9.36876233 C6.61212362,9.36876233 7.04130919,9.77520245 7.04130919,10.2765717 C7.04130919,10.777941 6.61212362,11.1843812 6.0826964,11.1843812 Z M6.56200279,8.46095291 C6.29728918,8.46095291 6.0826964,8.25773285 6.0826964,8.0070482 C6.0826964,7.75636355 6.29728918,7.55314349 6.56200279,7.55314349 C6.82671641,7.55314349 7.04130919,7.75636355 7.04130919,8.0070482 C7.04130919,8.25773285 6.82671641,8.46095291 6.56200279,8.46095291 Z" id="合并形状" fill="#FFFFFF" fill-rule="nonzero"></path>
    </g>
</svg>