<?xml version="1.0" encoding="UTF-8"?>
<svg width="16px" height="16px" viewBox="0 0 16 16" version="1.1" xmlns="http://www.w3.org/2000/svg" xmlns:xlink="http://www.w3.org/1999/xlink">
    <!-- Generator: Sketch 52.4 (67378) - http://www.bohemiancoding.com/sketch -->
    <title>画板</title>
    <desc>Created with Sketch.</desc>
    <g id="画板" stroke="none" stroke-width="1" fill="none" fill-rule="evenodd">
        <g id="ziyuan" transform="translate(3.000000, 3.000000)" fill="#FFFFFF" fill-rule="nonzero">
            <g id="形状-2">
                <path d="M2.84217094e-14,8.7161847 L9.95024876,8.7161847 L9.95024876,9.9599658 L2.84217094e-14,9.9599658 L2.84217094e-14,8.7161847 Z M0.932835821,6.85051306 C1.25298719,6.85250446 1.55148567,6.68908741 1.72230472,6.41830758 C1.89312378,6.14752776 1.9120603,5.80775153 1.77238806,5.51966729 L3.01616915,4.27588619 C3.14276944,4.33458178 3.28085978,4.36432432 3.42039801,4.36295087 C3.81367187,4.36295087 4.1634965,4.11307614 4.29104478,3.74106032 L5.6840796,4.44379664 C5.86851896,4.84021162 6.30354119,5.05533689 6.73052615,4.96128076 C7.15751112,4.86722463 7.46188027,4.48922644 7.46268657,4.0520056 C7.46327666,3.86067017 7.40462176,3.67384347 7.29477612,3.51717973 L8.66293532,1.80698072 C8.77577368,1.85176125 8.89601438,1.87496559 9.01741294,1.87538868 C9.39470981,1.87538868 9.7348556,1.64811053 9.87924086,1.29953367 C10.0236261,0.950956818 9.94381665,0.549727501 9.67702747,0.282938326 C9.41023829,0.0161491506 9.00900898,-0.0636603227 8.66043212,0.0807249386 C8.31185527,0.2251102 8.08457711,0.565255991 8.08457711,0.942552861 C8.08453099,1.0975528 8.12528247,1.24983464 8.20273632,1.38409515 L6.78482587,3.15648321 C6.70151024,3.1344845 6.6159763,3.12196734 6.52985075,3.11916978 C6.13657688,3.11916978 5.78675226,3.36904451 5.65920398,3.74106032 L4.26616915,3.038324 C4.14038204,2.71311483 3.8437228,2.48520914 3.4970819,2.44747991 C3.150441,2.40975067 2.81169756,2.5684976 2.61889161,2.85903034 C2.42608566,3.14956308 2.41141028,3.52337097 2.58084577,3.828125 L1.33706468,5.07190609 C0.991773492,4.91131869 0.583536792,4.97673565 0.305711747,5.2371729 C0.0278867018,5.49761015 -0.0637413856,5.90077374 0.0742261987,6.25570931 C0.212193783,6.61064489 0.552054125,6.8460839 0.932835821,6.85051306 Z" id="形状"></path>
            </g>
        </g>
    </g>
</svg>