<?xml version="1.0" encoding="UTF-8"?>
<svg width="16px" height="16px" viewBox="0 0 16 16" version="1.1" xmlns="http://www.w3.org/2000/svg" xmlns:xlink="http://www.w3.org/1999/xlink">
    <!-- Generator: Sketch 52.4 (67378) - http://www.bohemiancoding.com/sketch -->
    <title>热力图</title>
    <desc>Created with Sketch.</desc>
    <g id="热力图" stroke="none" stroke-width="1" fill="none" fill-rule="evenodd">
        <g id="散点图" transform="translate(3.000000, 3.000000)" fill="#FFFFFF">
            <polygon id="路径" points="0 0 0.710227273 0 0.710227273 10 0 10"></polygon>
            <polygon id="路径" points="0 9.28571429 9.94318182 9.28571429 9.94318182 10 0 10"></polygon>
            <path d="M1.42045455,7.14285714 C1.42045455,7.53734625 1.73843413,7.85714286 2.13068182,7.85714286 C2.52292951,7.85714286 2.84090909,7.53734625 2.84090909,7.14285714 C2.84090909,6.74836804 2.52292951,6.42857143 2.13068182,6.42857143 C1.73843413,6.42857143 1.42045455,6.74836804 1.42045455,7.14285714 Z" id="路径"></path>
            <path d="M2.11576705,2.87214286 C2.11576705,3.26663196 2.43374663,3.58642857 2.82599432,3.58642857 C3.21824201,3.58642857 3.53622159,3.26663196 3.53622159,2.87214286 C3.53622159,2.47765375 3.21824201,2.15785714 2.82599432,2.15785714 C2.43374663,2.15785714 2.11576705,2.47765375 2.11576705,2.87214286 Z" id="路径"></path>
            <path d="M8.52556818,5.00285714 C8.52556818,5.39734625 8.84354776,5.71714286 9.23579545,5.71714286 C9.62804315,5.71714286 9.94602273,5.39734625 9.94602273,5.00285714 C9.94602273,4.60836804 9.62804315,4.28857143 9.23579545,4.28857143 C8.84354776,4.28857143 8.52556818,4.60836804 8.52556818,5.00285714 Z" id="路径"></path>
            <path d="M6.39204545,5.71428571 C6.39204545,6.50142857 5.75568182,7.14285714 4.97159091,7.14285714 C4.18709553,7.14285714 3.55113636,6.50326393 3.55113636,5.71428571 C3.55113636,4.9253075 4.18709553,4.28571429 4.97159091,4.28571429 C5.75608629,4.28571429 6.39204545,4.9253075 6.39204545,5.71428571 Z M8.52272727,1.42857143 C8.52272727,2.21571429 7.88636364,2.85714286 7.10227273,2.85714286 C6.31777734,2.85714286 5.68181818,2.21754964 5.68181818,1.42857143 C5.68181818,0.639593215 6.31777734,1.58603289e-16 7.10227273,0 C7.88676811,-1.58603289e-16 8.52272727,0.639593215 8.52272727,1.42857143 Z" id="形状" fill-rule="nonzero"></path>
        </g>
    </g>
</svg>