<?xml version="1.0" encoding="UTF-8"?>
<svg width="18px" height="18px" viewBox="0 0 18 18" version="1.1" xmlns="http://www.w3.org/2000/svg" xmlns:xlink="http://www.w3.org/1999/xlink">
    <!-- Generator: Sketch 52.4 (67378) - http://www.bohemiancoding.com/sketch -->
    <title>画板</title>
    <desc>Created with Sketch.</desc>
    <g id="画板" stroke="none" stroke-width="1" fill="none" fill-rule="evenodd">
        <g id="xuanzhuan" fill="#98ADFA" fill-rule="nonzero">
            <path d="M9,0 C4.02972865,0 0,4.02972865 0,9 C0,13.9702713 4.02972865,18 9,18 C13.9702713,18 18,13.9702713 18,9 C18,4.02972865 13.9713743,0 9,0 Z M13.2310033,12.1189638 C13.2144292,12.2073293 13.1274153,12.3182719 13.0612091,12.3873913 C12.2001679,13.4769238 10.8340678,14.1428571 9.43283787,14.1428571 C8.89039723,14.1428571 8.35345126,14.0466267 7.83965494,13.8562939 C6.66109412,13.4270505 5.71285888,12.5470969 5.17375107,11.3782668 C4.63131043,10.2037924 4.56627521,8.88330674 4.99404847,7.65895906 C5.66655956,5.73027835 7.45376725,4.43459058 9.44166536,4.43459058 C9.94222043,4.43459058 10.4383618,4.51610889 10.917929,4.67692481 C10.9598146,4.55802467 10.9983673,4.44587915 11.0370101,4.34169116 L11.1186194,4.0970437 C11.1528485,3.99285571 11.1814928,3.91013451 11.2023906,3.85581982 C11.247609,3.67686815 11.3655191,3.53418797 11.523243,3.46849217 C11.712854,3.36772777 12.1086502,3.45831395 12.2443054,3.73349608 L12.3501452,3.98036425 L13.2090246,5.87739994 C13.2696461,6.00647831 13.2818064,6.14240385 13.2487483,6.28739726 C13.2123574,6.44025566 13.1098504,6.56711333 12.9587921,6.64419024 L10.7879486,7.68384944 C10.5343833,7.75176594 10.2620821,7.62046687 10.1430009,7.38035334 C10.0680573,7.19122345 10.0746329,7.00773785 10.1484956,6.86394732 C10.1638987,6.81638726 10.1882193,6.74726788 10.2168637,6.66352886 L10.3127951,6.38945708 C10.3403585,6.30451518 10.3723357,6.21050541 10.4053938,6.11196171 C10.1099429,6.01684159 9.77584915,5.96243436 9.43626078,5.96243436 C8.0647561,5.96243436 6.83539213,6.84812481 6.37672263,8.16750008 C5.77474143,9.90251697 6.65343761,11.816578 8.33372451,12.4315278 C9.63469929,12.9094416 11.144021,12.4553078 11.9753369,11.3612414 C12.1935923,11.1053053 12.5122829,11.0248974 12.7944926,11.1325089 C12.9786089,11.1947812 13.1374138,11.3431981 13.2211849,11.5345487 C13.3037851,11.7225683 13.3071179,11.9354782 13.2310033,12.1189638 Z" id="形状"></path>
        </g>
    </g>
</svg>