<?xml version="1.0" encoding="UTF-8"?>
<svg width="16px" height="16px" viewBox="0 0 16 16" version="1.1" xmlns="http://www.w3.org/2000/svg" xmlns:xlink="http://www.w3.org/1999/xlink">
    <!-- Generator: Sketch 52.4 (67378) - http://www.bohemiancoding.com/sketch -->
    <title>画板</title>
    <desc>Created with Sketch.</desc>
    <g id="画板" stroke="none" stroke-width="1" fill="none" fill-rule="evenodd">
        <g id="chaxun-3-2" transform="translate(3.000000, 3.000000)" fill="#FFFFFF">
            <g id="chaxun-3">
                <path d="M4.30635838,2.47643979 C3.01708972,2.47643979 1.96531792,3.52413226 1.96531792,4.80840045 C1.96531792,6.09266864 3.01708972,7.14712042 4.30635838,7.14712042 C5.59562704,7.14712042 6.64739884,6.09942795 6.64739884,4.81515976 C6.64739884,3.53089157 5.60241267,2.47643979 4.30635838,2.47643979 Z" id="路径"></path>
                <path d="M8.59673049,0.00674901832 L1.40597905,0.00674901832 C0.637192919,0.00674901832 0.00713511561,0.634497709 0.00713511561,1.4004663 L0.00713511561,9.56119928 C0.00713511561,10.3271679 0.637192919,10.9549166 1.40597905,10.9549166 L8.59673049,10.9549166 C9.36551662,10.9549166 9.99557442,10.3271679 9.99557442,9.56119928 L9.99557442,1.4004663 C9.99557442,0.634497709 9.36551662,0.00674901832 8.59673049,0.00674901832 Z M7.90308887,9.17533541 L5.92621026,7.2057019 C5.44644147,7.52821499 4.87418714,7.71826734 4.24990968,7.71826734 C2.59673049,7.71826734 1.25569003,6.38214169 1.25569003,4.73502127 C1.25569003,3.08790085 2.60251084,1.74601603 4.24990968,1.74601603 C5.89730853,1.74601603 7.24412934,3.08214169 7.24412934,4.72926211 C7.24412934,5.2187909 7.12274205,5.67376473 6.91464957,6.08266525 L8.96089234,8.1214087 L7.90308887,9.17533541 Z" id="形状" fill-rule="nonzero"></path>
            </g>
        </g>
    </g>
</svg>