<?xml version="1.0" encoding="UTF-8"?>
<svg width="16px" height="16px" viewBox="0 0 16 16" version="1.1" xmlns="http://www.w3.org/2000/svg" xmlns:xlink="http://www.w3.org/1999/xlink">
    <!-- Generator: Sketch 52.4 (67378) - http://www.bohemiancoding.com/sketch -->
    <title>画板</title>
    <desc>Created with Sketch.</desc>
    <g id="画板" stroke="none" stroke-width="1" fill="none" fill-rule="evenodd">
        <g id="kongjianmianji-2" transform="translate(3.000000, 4.000000)" fill="#FFFFFF" fill-rule="nonzero">
            <g id="kongjianmianji">
                <path d="M1.18198023,3.43652998 L1.57352847,3.43652998 L1.57352847,3.81807944 L1.18198023,3.81807944 L1.18198023,3.43652998 Z M1.18198023,4.19959221 L1.57352847,4.19959221 L1.57352847,4.5810805 L1.18198023,4.5810805 L1.18198023,4.19959221 Z M1.18198023,4.96265444 L1.57352847,4.96265444 L1.57352847,5.34414273 L1.18198023,5.34414273 L1.18198023,4.96265444 Z M1.18198023,5.7256555 L1.57352847,5.7256555 L1.57352847,6.10703366 L1.18198023,6.10703366 L1.18198023,5.7256555 Z M7.44878733,3.81809168 L7.84032301,3.81809168 L7.84032301,4.19960444 L7.44878733,4.19960444 L7.44878733,3.81809168 Z M7.44878733,4.5810805 L7.84032301,4.5810805 L7.84032301,4.96265444 L7.44878733,4.96265444 L7.44878733,4.5810805 Z M7.44878733,5.34414273 L7.84032301,5.34414273 L7.84032301,5.7256555 L7.44878733,5.7256555 L7.44878733,5.34414273 Z M7.44878733,6.10703366 L7.84032301,6.10703366 L7.84032301,6.48859537 L7.44878733,6.48859537 L7.44878733,6.10703366 Z M9.798617,1.529113 L10.1904667,1.529113 L10.1904667,1.91061352 L9.798617,1.91061352 L9.798617,1.529113 Z M9.798617,2.292163 L10.1904667,2.292163 L10.1904667,2.67366352 L9.798617,2.67366352 L9.798617,2.292163 Z M9.798617,3.05517629 L10.1904667,3.05517629 L10.1904667,3.43652998 L9.798617,3.43652998 L9.798617,3.05517629 Z M9.798617,3.81809168 L10.1904667,3.81809168 L10.1904667,4.19960444 L9.798617,4.19960444 L9.798617,3.81809168 Z M9.798617,4.5810805 L10.1904667,4.5810805 L10.1904667,4.96265444 L9.798617,4.96265444 L9.798617,4.5810805 Z M9.798617,5.34414273 L10.1904667,5.34414273 L10.1904667,5.7256555 L9.798617,5.7256555 L9.798617,5.34414273 Z M3.53201091,3.43652998 L3.92368478,3.43652998 L3.92368478,3.81807944 L3.53201091,3.81807944 L3.53201091,3.43652998 Z M3.53201091,4.19959221 L3.92368478,4.19959221 L3.92368478,4.5810805 L3.53201091,4.5810805 L3.53201091,4.19959221 Z M3.53201091,4.96265444 L3.92368478,4.96265444 L3.92368478,5.34414273 L3.53201091,5.34414273 L3.53201091,4.96265444 Z" id="形状"></path>
                <path d="M10.5820401,0.00897222178 L10.1904793,0.00897222178 L9.79874263,0.390472756 L3.92355915,0.390472756 L4.31522046,0.00897222178 L3.92367222,0.00897222178 L3.53201091,0.390472756 L1.96539078,0.390472756 L1.96539078,0.771961045 L3.14027422,0.771961045 L1.1818546,2.67946367 L0.00690834375,2.67946367 L0.00690834375,3.0609642 L0.790180715,3.0609642 L0.00690834375,3.82381842 L0.398582225,3.82381842 L1.1818546,3.0609642 L7.05701295,3.0609642 L6.27369033,3.82381842 L6.66540189,3.82381842 L7.44859888,3.0609642 L7.44878733,3.0609642 L7.44878733,3.43652998 L7.84032301,3.43652998 L7.84032301,3.0609642 L9.01538232,3.0609642 L9.01538232,2.67946367 L7.84032301,2.67946367 L9.798617,0.771961045 L9.798617,1.14761248 L10.1904793,1.14761248 L10.1904793,0.771961045 L10.9737014,0.771961045 L10.9737014,0.390472756 L10.1903537,0.390472756 L10.5820401,0.00897222178 Z M0.393393737,8.9594589 L1.17667868,8.47454686 L7.05166115,8.47454686 L6.26837622,8.9594589 L6.66005009,8.9594589 L7.4432722,8.47454686 L7.44347321,8.47454686 L7.44347321,8.71329518 L7.83500889,8.71329518 L7.83500889,8.47454686 L9.01005564,8.47454686 L9.01005564,8.23204188 L7.83500889,8.23204188 L9.79330289,7.01956598 L9.79330289,7.25832655 L10.1851526,7.25832655 L10.1851526,7.01956598 L10.9683748,7.01956598 L10.9683748,6.77704878 L10.185027,6.77704878 L10.5767134,6.53456828 L10.1851526,6.53456828 L9.79341595,6.77704878 L3.91837066,6.77704878 L4.31003197,6.53456828 L3.91849629,6.53456828 L3.52682242,6.77704878 L1.96020231,6.77704878 L1.96020231,7.01956598 L3.13508573,7.01956598 L1.17667868,8.23204188 L0.00173242634,8.23204188 L0.00173242634,8.47454686 L0.785004798,8.47454686 L0.00173242634,8.9594589 L0.393393737,8.9594589 Z" id="形状"></path>
            </g>
        </g>
    </g>
</svg>