<?xml version="1.0" encoding="UTF-8"?>
<svg width="16px" height="16px" viewBox="0 0 16 16" version="1.1" xmlns="http://www.w3.org/2000/svg" xmlns:xlink="http://www.w3.org/1999/xlink">
    <!-- Generator: Sketch 52.4 (67378) - http://www.bohemiancoding.com/sketch -->
    <title>等高线</title>
    <desc>Created with Sketch.</desc>
    <g id="等高线" stroke="none" stroke-width="1" fill="none" fill-rule="evenodd">
        <path d="M14,8.36396103 L10.033412,12 L8.4906336,12 L14,6.94974747 L14,8.36396103 Z M14,9.77817459 L14,12 L11.5761905,12 L14,9.77817459 Z M14,5.53553391 L6.94785517,12 L5.40507674,12 L14,4.12132034 L14,5.53553391 Z M12.589571,4 L3.86229831,12 L2.31951988,12 L11.0467926,4 L12.589571,4 Z M4.87567888,4 L6.41845731,4 L2,8.05025253 L2,6.63603897 L4.87567888,4 Z M3.33290044,4 L2,5.22182541 L2,4 L3.33290044,4 Z M7.96123574,4 L9.50401417,4 L2,10.8786797 L2,9.46446609 L7.96123574,4 Z" id="合并形状" fill="#FFFFFF" fill-rule="nonzero"></path>
    </g>
</svg>