<?xml version="1.0" encoding="UTF-8"?>
<svg width="16px" height="16px" viewBox="0 0 16 16" version="1.1" xmlns="http://www.w3.org/2000/svg" xmlns:xlink="http://www.w3.org/1999/xlink">
    <!-- Generator: Sketch 52.4 (67378) - http://www.bohemiancoding.com/sketch -->
    <title>画板</title>
    <desc>Created with Sketch.</desc>
    <g id="画板" stroke="none" stroke-width="1" fill="none" fill-rule="evenodd">
        <g id="zuhe-nor" transform="translate(3.000000, 3.000000)" fill="#FFFFFF" fill-rule="nonzero">
            <path d="M7.08333333,2.91666667 L9.16666667,2.91666667 C9.62690396,2.91666667 10,3.28976271 10,3.75 L10,9.16666667 C10,9.62690396 9.62690396,10 9.16666667,10 L3.75,10 C3.28976271,10 2.91666667,9.62690396 2.91666667,9.16666667 L2.91666667,7.08333333 L0.83333333,7.08333333 C0.37309604,7.08333333 5.63628124e-17,6.71023729 0,6.25 L0,0.83333333 C5.63628124e-17,0.37309604 0.37309604,-2.81814062e-17 0.83333333,0 L6.25,0 C6.47101374,-3.79066081e-16 6.68297533,0.0877973666 6.83925565,0.244077681 C6.99553596,0.400357996 7.08333333,0.612319589 7.08333333,0.83333333 L7.08333333,2.91666667 Z M7.08333333,3.75 L7.08333333,6.25 C7.08333333,6.47101374 6.99553596,6.68297533 6.83925565,6.83925565 C6.68297533,6.99553596 6.47101374,7.08333333 6.25,7.08333333 L3.75,7.08333333 L3.75,9.16666667 L9.16666667,9.16666667 L9.16666667,3.75 L7.08333333,3.75 Z M6.25,2.91666667 L6.25,0.83333333 L0.83333333,0.83333333 L0.83333333,6.25 L2.91666667,6.25 L2.91666667,3.75 C2.91666667,3.28976271 3.28976271,2.91666667 3.75,2.91666667 L6.25,2.91666667 Z M3.75,6.25 L6.25,6.25 L6.25,3.75 L3.75,3.75 L3.75,6.25 Z" id="形状"></path>
        </g>
    </g>
</svg>