<?xml version="1.0" encoding="UTF-8"?>
<svg width="16px" height="16px" viewBox="0 0 16 16" version="1.1" xmlns="http://www.w3.org/2000/svg" xmlns:xlink="http://www.w3.org/1999/xlink">
    <!-- Generator: Sketch 52.4 (67378) - http://www.bohemiancoding.com/sketch -->
    <title>画板</title>
    <desc>Created with Sketch.</desc>
    <g id="画板" stroke="none" stroke-width="1" fill="none" fill-rule="evenodd">
        <g id="ziyuan-2-2" transform="translate(-23.000000, -1752.000000)" fill="#FFFFFF">
            <g id="ziyuan-2" transform="translate(26.000000, 1755.000000)">
                <path d="M4.13524794,8.26422971 C2.46342923,8.26547223 0.955595238,7.25918505 0.315243812,5.71486339 C-0.325107613,4.17054173 0.0282181825,2.39252651 1.21037285,1.21037184 C2.39252752,0.0282171669 4.17054275,-0.325108629 5.71486441,0.315242797 C7.25918606,0.955594222 8.26547325,2.46342822 8.26423072,4.13524692 C8.26084694,6.41421807 6.41421908,8.26084592 4.13524794,8.26422971 Z M4.13524794,0.924839922 C2.83648067,0.923597082 1.66490724,1.70499916 1.16702911,2.90454713 C0.669150985,4.1040951 0.943060949,5.48545198 1.86098879,6.40425906 C2.77891663,7.32306614 4.16001063,7.59829849 5.36003472,7.10156903 C6.56005881,6.60483957 7.34258219,5.43401479 7.34258278,4.13524692 C7.34089275,2.36408752 5.90640491,0.928225653 4.13524794,0.924839922 Z" id="形状" fill-rule="nonzero"></path>
                <path d="M6.09436425,6.74473946 L6.74627656,6.09344158 L10.000001,9.34716604 L9.34839593,9.99846392 L6.09436425,6.74473946 Z M3.56997054,2.43941471 L4.70052534,2.43941471 L4.70052534,5.82800697 L3.56997054,5.82800697 L3.56997054,2.43941471 Z" id="形状" fill-rule="nonzero"></path>
                <polygon id="路径" points="5.828008 3.56996951 5.828008 4.70052433 2.43941572 4.70052433 2.43941572 3.56996951"></polygon>
            </g>
        </g>
    </g>
</svg>