<?xml version="1.0" encoding="UTF-8"?>
<svg width="18px" height="18px" viewBox="0 0 18 18" version="1.1" xmlns="http://www.w3.org/2000/svg" xmlns:xlink="http://www.w3.org/1999/xlink">
    <!-- Generator: Sketch 52.4 (67378) - http://www.bohemiancoding.com/sketch -->
    <title>画板</title>
    <desc>Created with Sketch.</desc>
    <g id="画板" stroke="none" stroke-width="1" fill="none" fill-rule="evenodd">
        <g id="guanchadian" fill="#98ADFA">
            <g id="分组-6">
                <path d="M9,0 C4.326,0 0.45,3.7125 0.45,8.4375 C0.45,14.4 9,18 9,18 C9,18 17.55,14.4 17.55,8.4375 C17.55,3.7125 13.674,0 9,0 Z M9,14.4 C5.694,14.4 2.958,11.7 2.958,8.4375 C2.958,5.175 5.694,2.3625 9,2.3625 C12.306,2.3625 15.042,5.0625 15.042,8.325 C15.042,11.5875 12.306,14.4 9,14.4 Z" id="形状" fill-rule="nonzero"></path>
                <path d="M7.30937698,5.95937698 C6.59602201,6.5708241 5.78075919,6.97845551 4.96549636,6.97845551 C4.86358851,7.99753404 5.27121992,9.01661257 5.98457489,9.72996754 C7.41128484,11.1566775 9.6532576,11.1566775 11.0799675,9.72996754 C12.5066775,8.3032576 12.5066775,6.06128484 11.0799675,4.63457489 C10.3666126,3.92121992 9.34753404,3.51358851 8.32845551,3.61549636 C8.22654766,4.53266704 7.9208241,5.34792987 7.30937698,5.95937698 Z" id="路径"></path>
            </g>
        </g>
    </g>
</svg>