<?xml version="1.0" encoding="UTF-8"?>
<svg width="16px" height="16px" viewBox="0 0 16 16" version="1.1" xmlns="http://www.w3.org/2000/svg" xmlns:xlink="http://www.w3.org/1999/xlink">
    <!-- Generator: Sketch 52.4 (67378) - http://www.bohemiancoding.com/sketch -->
    <title>视域分析</title>
    <desc>Created with Sketch.</desc>
    <g id="视域分析" stroke="none" stroke-width="1" fill="none" fill-rule="evenodd">
        <g id="眼睛" transform="translate(2.000000, 4.000000)" fill="#FFFFFF">
            <path d="M11.9999998,3.89356539 C11.9999998,5.13755144 9.5258108,7.79130435 5.9999923,7.79130435 C2.56390831,7.79130435 0,5.18121846 0,3.89356539 C0,2.60609236 2.57498833,0 5.9999923,0 C9.55353365,0 12.0008205,2.60609236 11.9999998,3.89356539 Z M6.00528152,0.710963743 C4.40842064,0.710963743 3.11391217,2.1368684 3.11391216,3.89567672 C3.11391216,5.65450141 4.40840544,7.0803897 6.00528152,7.0803897 C7.60262877,7.0803897 8.89716765,5.65448504 8.89716765,3.89567672 C8.89716765,2.1368684 7.60262877,0.710963743 6.00528152,0.710963743 Z" id="形状" fill-rule="nonzero"></path>
            <path d="M6.00016582,1.85507246 C4.99157224,1.85507246 4.17391304,2.7686046 4.17391304,3.89562747 C4.17391304,5.02253505 4.99157224,5.93623188 6.00016582,5.93623188 C7.00877447,5.93623188 7.82608696,5.02253505 7.82608696,3.89562747 C7.82608696,2.7686046 7.00877447,1.85507246 6.00016582,1.85507246 Z" id="路径"></path>
        </g>
    </g>
</svg>