<?xml version="1.0" encoding="UTF-8"?>
<svg width="16px" height="16px" viewBox="0 0 16 16" version="1.1" xmlns="http://www.w3.org/2000/svg" xmlns:xlink="http://www.w3.org/1999/xlink">
    <!-- Generator: Sketch 52.4 (67378) - http://www.bohemiancoding.com/sketch -->
    <title>视野分析</title>
    <desc>Created with Sketch.</desc>
    <g id="视野分析" stroke="none" stroke-width="1" fill="none" fill-rule="evenodd">
        <g id="望远镜" transform="translate(2.000000, 3.000000)" fill="#FFFFFF" fill-rule="nonzero">
            <path d="M2.41405334,1.76135329 L3.16356538,0.559011065 C3.37905009,0.221730647 3.75380611,0 4.17852959,0 C4.60637604,0 4.98425503,0.224853608 5.19661678,0.562134026 L6.7862069,0.562134026 C7.00169161,0.224853608 7.37644763,0 7.80429407,0 C8.23214052,0 8.60689655,0.224853608 8.81925829,0.559011065 L9.56564736,1.76135329 C9.32830188,1.68015616 9.0722186,1.63643462 8.81301235,1.63643462 C8.01977878,1.63643462 7.28588158,2.04554328 6.87052699,2.71385816 L5.10605074,2.71385816 C4.68757319,2.04554326 3.95679895,1.63643461 3.16356538,1.63643462 C2.90748209,1.63331166 2.65452178,1.68015616 2.41405334,1.76135329 Z M11.9797007,6.40208198 C11.9797007,7.88861419 10.7742355,9.09407938 9.28770331,9.09407938 C8.3383214,9.09407938 7.51073519,8.60065062 7.0297983,7.86050748 C6.79245282,8.17592713 6.41457384,8.37891997 5.98985035,8.37891997 C5.56512687,8.37891997 5.18724787,8.17280416 4.9499024,7.86050748 C4.47208848,8.60377358 3.6413793,9.09407937 2.6919974,9.09407938 C1.20546519,9.09407938 0,7.88861418 0,6.40208198 C0,5.86805466 0.159271306,5.37150294 0.427846448,4.95302537 L0.424723487,4.95302537 L1.86441119,2.64202993 C2.20481457,2.29850357 2.66701367,2.09863369 3.16356538,2.09863371 C3.83500324,2.09863371 4.45022771,2.46402083 4.7718933,3.05426156 L4.8374756,3.17293429 L7.14222511,3.17293429 L7.20780741,3.05426156 C7.529473,2.46402083 8.14469745,2.09863371 8.81613533,2.09863371 C9.30644112,2.09863371 9.76551724,2.29225765 10.1059206,2.63266103 L11.5518543,4.95614834 L11.5487313,4.95614834 C11.8235524,5.37150294 11.9797007,5.86805466 11.9797007,6.40208198 Z M4.37215354,6.40208198 C4.37215354,5.47768381 3.6226415,4.72817176 2.69512036,4.72817176 C1.76759921,4.72817176 1.01808718,5.4776838 1.01808718,6.40208198 C1.01808718,7.32960313 1.76759921,8.07911516 2.69512036,8.07911516 C3.6226415,8.07911516 4.37215354,7.32960313 4.37215354,6.40208198 Z M6.60507481,7.07664282 C6.60507481,6.7393624 6.33025373,6.46454132 5.99297331,6.46454131 C5.6556929,6.4645413 5.38087182,6.73936239 5.38087182,7.07664282 C5.38087182,7.41392325 5.6556929,7.68874431 5.99297331,7.68874431 C6.33025373,7.68874431 6.60507481,7.41392324 6.60507481,7.07664282 Z M10.9647365,6.40208198 C10.9647365,5.47768381 10.2152245,4.72817176 9.28770331,4.72817176 C8.36018216,4.72817176 7.61067013,5.4776838 7.61067013,6.40208198 C7.61067013,7.32960313 8.36018216,8.07911516 9.28770331,8.07911516 C10.2152245,8.07911516 10.9647365,7.32960313 10.9647365,6.40208198 Z" id="形状"></path>
        </g>
    </g>
</svg>