<?xml version="1.0" encoding="UTF-8"?>
<svg width="16px" height="16px" viewBox="0 0 16 16" version="1.1" xmlns="http://www.w3.org/2000/svg" xmlns:xlink="http://www.w3.org/1999/xlink">
    <!-- Generator: Sketch 52.4 (67378) - http://www.bohemiancoding.com/sketch -->
    <title>画板</title>
    <desc>Created with Sketch.</desc>
    <g id="画板" stroke="none" stroke-width="1" fill="none" fill-rule="evenodd">
        <g id="dibiaoyuanxingmianji" transform="translate(3.000000, 4.000000)" fill="#FFFFFF">
            <path d="M1,7.3970722 C1,7.6589718 2.11385724,8 3.98500349,8 C5.85614973,8 7,7.59093075 7,7.3970722 C7,7.13214085 5.0055336,7 5.0055336,7 C5.81674029,7.07193902 6.46145083,7.22253021 6.46145083,7.3970722 C6.46145083,7.64130105 5.20139502,7.83936073 3.98500349,7.83936073 C2.7686817,7.83936073 1.50855615,7.64130105 1.50855615,7.3970722 C1.50855615,7.22443588 2.13827017,7.07540387 2.93622413,7.00251202 C2.93622413,7.00246871 1,7.13725151 1,7.3970722 Z" id="路径"></path>
            <path d="M6.70580186,5.96417967 C8.08614857,6.18812708 9.18314885,6.6566515 9.18314885,7.20013983 C9.18314885,7.96060218 7.03889859,8.57716579 4.96927376,8.57716579 C2.8994571,8.57716579 0.755270781,7.96060218 0.755270781,7.20013983 C0.755270781,6.66282586 1.82682039,6.19887772 3.18453009,5.97195209 C3.18453009,5.97195209 0,6.267522 0,7.20013983 C0,8.10602635 1.78525524,9 4.96927376,9 C8.15322833,9 10,8.00142555 10,7.20013983 C9.99993605,6.34343022 6.70580186,5.96417967 6.70580186,5.96417967 Z M1.2832761,2.9190615 L1.62104092,2.9190615 L1.62104092,3.30288833 L1.2832761,3.30288833 L1.2832761,2.9190615 Z M1.2832761,3.68671515 L1.62104092,3.68671515 L1.62104092,4.07054198 L1.2832761,4.07054198 L1.2832761,3.68671515 Z M1.2832761,4.45451409 L1.62104092,4.45451409 L1.62104092,4.83841355 L1.2832761,4.83841355 L1.2832761,4.45451409 Z M1.2832761,5.22224038 L1.62104092,5.22224038 L1.62104092,5.60592193 L1.2832761,5.60592193 L1.2832761,5.22224038 Z M6.68949553,3.30288833 L7.02726034,3.30288833 L7.02726034,3.68671515 L6.68949553,3.68671515 L6.68949553,3.30288833 Z M6.68949553,4.07054198 L7.02726034,4.07054198 L7.02726034,4.45444145 L6.68949553,4.45444145 L6.68949553,4.07054198 Z M6.68949553,4.83841355 L7.02726034,4.83841355 L7.02726034,5.22224038 L6.68949553,5.22224038 L6.68949553,4.83841355 Z M6.68949553,5.60592193 L7.02726034,5.60592193 L7.02726034,5.98974876 L6.68949553,5.98974876 L6.68949553,5.60592193 Z M8.71665995,1 L9.05468056,1 L9.05468056,1.38382683 L8.71665995,1.38382683 L8.71665995,1 Z M8.71665995,1.76765366 L9.05468056,1.76765366 L9.05468056,2.15148048 L8.71665995,2.15148048 L8.71665995,1.76765366 Z M8.71665995,2.53537995 L9.05468056,2.53537995 L9.05468056,2.9190615 L8.71665995,2.9190615 L8.71665995,2.53537995 Z M8.71665995,3.30288833 L9.05468056,3.30288833 L9.05468056,3.68671515 L8.71665995,3.68671515 L8.71665995,3.30288833 Z M8.71665995,4.07054198 L9.05468056,4.07054198 L9.05468056,4.45444145 L8.71665995,4.45444145 L8.71665995,4.07054198 Z M8.71665995,4.83841355 L9.05468056,4.83841355 L9.05468056,5.22224038 L8.71665995,5.22224038 L8.71665995,4.83841355 Z M3.31056842,2.9190615 L3.64846113,2.9190615 L3.64846113,3.30288833 L3.31056842,3.30288833 L3.31056842,2.9190615 Z M3.31056842,3.68671515 L3.64846113,3.68671515 L3.64846113,4.07054198 L3.31056842,4.07054198 L3.31056842,3.68671515 Z M3.31056842,4.45451409 L3.64846113,4.45451409 L3.64846113,4.83841355 L3.31056842,4.83841355 L3.31056842,4.45451409 Z" id="形状" fill-rule="nonzero"></path>
            <path d="M0.00918832555,2.01602503 C0.11163637,2.51920126 1.0622753,2.88580356 2.50299827,2.97773241 C3.94372124,3.06966126 5.65564061,2.87294999 6.99387426,2.46169998 C8.33210792,2.05044998 9.09333932,1.48714204 8.99081167,0.983974966 C8.88836363,0.480798742 7.9377247,0.11419644 6.49700173,0.0222675911 C5.05627876,-0.0696612576 3.34435939,0.127050009 2.00612574,0.538300016 C0.667892081,0.949550024 -0.0933393214,1.51285796 0.00918832555,2.01602503 Z" id="路径"></path>
        </g>
    </g>
</svg>