<?xml version="1.0" encoding="UTF-8"?>
<svg width="16px" height="16px" viewBox="0 0 16 16" version="1.1" xmlns="http://www.w3.org/2000/svg" xmlns:xlink="http://www.w3.org/1999/xlink">
    <!-- Generator: Sketch 52.4 (67378) - http://www.bohemiancoding.com/sketch -->
    <title>画板</title>
    <desc>Created with Sketch.</desc>
    <g id="画板" stroke="none" stroke-width="1" fill="none" fill-rule="evenodd">
        <g id="xuanze" transform="translate(3.000000, 3.000000)" fill="#FFFFFF">
            <path d="M4.77403209,9.26600805 L1.73340204,9.26600805 C1.18357133,9.26600805 0.737523923,8.83717527 0.737523923,8.30954995 L0.737523923,1.68971826 C0.737523923,1.16209294 1.18357132,0.733260155 1.73340204,0.733260155 L1.73340204,0.733991953 L8.26880612,0.733991953 C8.81716473,0.733991953 9.26321213,1.16355653 9.26321213,1.69045005 L9.26321213,5.54482254 L10,5.54482254 L10,1.69045005 C10,0.758141237 9.22272928,0 8.26733402,0 L1.73340204,0 C0.778006772,0.00073179799 0,0.758141237 0,1.69045005 L0,8.31028174 C0,9.24112697 0.776534665,10 1.73266598,10 L4.77403209,10 L4.77403209,9.26600805 Z" id="路径"></path>
            <path d="M9.86025432,6.37949819 L4.30042466,3.0535242 C4.09636586,2.93229711 3.96496435,3.02399452 4.00824955,3.25790063 L5.19086312,9.69070736 C5.23414832,9.92539057 5.38023588,9.95725154 5.51627509,9.76297735 C5.51627509,9.76297735 6.27144727,8.67426483 6.89135321,8.00984713 L8.14739702,9.89042121 C8.22391908,10.0046544 8.37928203,10.0349612 8.49213275,9.95569734 L9.08343952,9.54383608 C9.19745795,9.464054 9.22700942,9.30721278 9.14991323,9.19103416 L7.89618827,7.31356847 C8.69078091,6.98252526 9.81310437,6.70277043 9.81310437,6.70277043 C10.0426705,6.64604237 10.0635402,6.49994818 9.86025432,6.37949819 Z" id="路径"></path>
        </g>
    </g>
</svg>