<?xml version="1.0" encoding="UTF-8"?>
<svg width="16px" height="16px" viewBox="0 0 16 16" version="1.1" xmlns="http://www.w3.org/2000/svg" xmlns:xlink="http://www.w3.org/1999/xlink">
    <!-- Generator: Sketch 52.4 (67378) - http://www.bohemiancoding.com/sketch -->
    <title>通视分析</title>
    <desc>Created with Sketch.</desc>
    <g id="通视分析" stroke="none" stroke-width="1" fill="none" fill-rule="evenodd">
        <path d="M7.03776646,10.3076923 C7.03969775,10.3330801 7.04068105,10.3587329 7.04068105,10.3846154 L7.04068105,13 C7.04068105,13.5522847 6.5929658,14 6.04068105,14 L6.02034052,14 C5.46805577,14 5.02034052,13.5522847 5.02034052,13 L5.02034052,10.3846154 C5.02034052,10.3587329 5.02132383,10.3330801 5.02325511,10.3076923 L4,10.3076923 C3.44771525,10.3076923 3,9.85997706 3,9.30769231 L3,8 C3,6.72549673 4.03318904,5.69230769 5.30769231,5.69230769 L6.75332927,5.69230769 C8.02783253,5.69230769 9.06102157,6.72549673 9.06102157,8 L9.06102157,9.30769231 C9.06102157,9.85997706 8.61330632,10.3076923 8.06102157,10.3076923 L7.03776646,10.3076923 Z M6.03051079,5.69230769 C4.91470753,5.69230769 4.01017026,4.86575646 4.01017026,3.84615385 C4.01017026,2.82655123 4.91470753,2 6.03051079,2 C7.14631405,2 8.05085131,2.82655123 8.05085131,3.84615385 C8.05085131,4.86575646 7.14631405,5.69230769 6.03051079,5.69230769 Z M9.62305805,4.99772926 L9.06386514,4.16869169 L12.4137416,1.90917152 L12.9729345,2.7382091 L9.62305805,4.99772926 Z M9.06379113,6.44231437 L9.60843017,5.60364381 L12.9972304,7.80435643 L12.4525914,8.643027 L9.06379113,6.44231437 Z" id="合并形状" fill="#FFFFFF" fill-rule="nonzero"></path>
    </g>
</svg>