<?xml version="1.0" encoding="UTF-8"?>
<svg width="16px" height="16px" viewBox="0 0 16 16" version="1.1" xmlns="http://www.w3.org/2000/svg" xmlns:xlink="http://www.w3.org/1999/xlink">
    <!-- Generator: Sketch 52.4 (67378) - http://www.bohemiancoding.com/sketch -->
    <title>画板</title>
    <desc>Created with Sketch.</desc>
    <g id="画板" stroke="none" stroke-width="1" fill="none" fill-rule="evenodd">
        <g id="chaxun" transform="translate(4.000000, 3.000000)" fill="#FFFFFF" fill-rule="nonzero">
            <path d="M3.91315731,3.25925926 C2.83269296,3.25925926 1.95652174,4.26273303 1.95652174,5.50006518 C1.95652174,6.73737126 2.83269296,7.74074074 3.91315731,7.74074074 C4.99359888,7.74074074 5.86956522,6.73737126 5.86956522,5.50006518 C5.86956522,4.26273305 4.99359889,3.25925926 3.91315731,3.25925926 Z M3.13033961,4.89620287 L2.73913043,6.11111111 C2.76820629,4.92948021 2.73913043,4.49134143 2.73913043,4.49134143 C3.62461655,4.46915654 4.69565217,4.49134143 4.69565217,4.49134143 L3.13033961,4.89620287 Z M6.749898,0 L0,0 L0,11 L9,11 L9,2.35714287 L6.749898,0 Z M7.66242636,10.0107055 C7.44421222,10.2433451 7.09025323,10.2433451 6.87205101,10.0107055 L5.36707292,8.40561554 C4.95535802,8.6605244 4.47702187,8.8065895 3.96666793,8.8065895 C2.42421464,8.8065895 1.17391304,7.47372331 1.17391304,5.82922703 C1.17391304,4.18470533 2.42421464,2.85185185 3.96666793,2.85185185 C5.50888292,2.85185185 6.75941091,4.18470533 6.75941091,5.82922703 C6.75941091,6.49827069 6.55239763,7.11572536 6.20300239,7.61283957 L7.66242636,9.16875419 C7.88064049,9.40093646 7.88064049,9.77820564 7.66242636,10.0107055 Z" id="形状"></path>
        </g>
    </g>
</svg>