<?xml version="1.0" encoding="UTF-8"?>
<svg width="20px" height="20px" viewBox="0 0 20 20" version="1.1" xmlns="http://www.w3.org/2000/svg" xmlns:xlink="http://www.w3.org/1999/xlink">
    <!-- Generator: Sketch 52.4 (67378) - http://www.bohemiancoding.com/sketch -->
    <title>画板</title>
    <desc>Created with Sketch.</desc>
    <g id="画板" stroke="none" stroke-width="1" fill="none" fill-rule="evenodd">
        <g id="分析(1)" transform="translate(0.000000, 2.000000)" fill="#FFFFFF">
            <path d="M17.2916504,9.26719893e-06 C18.6964869,-0.00365284237 19.8786766,1.07848523 19.9910202,2.47100885 C20.1049046,3.88398169 19.1239174,5.11817045 17.7103919,5.35200332 C17.3851035,5.40599744 17.0644094,5.39918591 16.7477957,5.32630998 C16.6231963,5.29748187 16.5762128,5.33470353 16.5215677,5.42959606 C15.5288383,7.14822302 14.5366224,8.86739198 13.5341767,10.5802475 C13.4305221,10.7574642 13.5576755,10.7841975 13.6439806,10.852884 C14.3323523,11.3991972 14.6515199,12.1143335 14.538149,12.9825606 C14.4196704,13.8901186 13.9059491,14.5250402 13.0475211,14.8521835 C12.1303674,15.2013728 11.105978,14.9161532 10.4829664,14.1627406 C9.8568872,13.4056658 9.77160941,12.3618041 10.2797236,11.517161 C10.366528,11.3729765 10.3690819,11.3105888 10.2225102,11.202586 C8.81921461,10.1650084 7.42255343,9.1179973 6.02791826,8.06889145 C5.91098052,7.98081045 5.82417609,7.96245595 5.68629343,8.02904772 C5.36763953,8.18212382 5.02140624,8.24086401 4.67109239,8.18894997 C4.51942718,8.16640604 4.4571203,8.2162107 4.38920625,8.3341745 C3.97250499,9.06242116 3.55324981,9.78908579 3.1263329,10.5115756 C3.04717592,10.6457845 3.04359475,10.7254866 3.14880447,10.8612776 C3.6191236,11.467869 3.67886228,12.1305786 3.32498153,12.8126974 C2.9996789,13.4392107 2.28271475,13.8182828 1.58565398,13.7249576 C0.838556531,13.6248209 0.320740379,13.2137714 0.0863369871,12.4902415 C-0.321675262,11.2282793 0.778289929,9.98465696 2.08559276,10.2273961 C2.2326638,10.2546715 2.30007849,10.2132457 2.36951919,10.0910925 C2.76426252,9.39691804 3.16258703,8.70432565 3.57111292,8.0180321 C3.6599719,7.86913081 3.65793162,7.79153809 3.52107624,7.66676277 C2.87406642,7.07955119 2.68767372,6.17095306 3.03133883,5.38398085 C3.3740052,4.59911801 4.17063997,4.12096398 5.03825634,4.17863484 C5.86144322,4.23368364 6.57944891,4.82140792 6.81383801,5.63722289 C6.97163832,6.18615813 6.90372426,6.7109674 6.61416212,7.20013706 C6.53757332,7.32911648 6.55951698,7.38573265 6.67084752,7.46805682 C8.08437307,8.51873006 9.49533044,9.57308006 10.9047754,10.6300668 C10.997715,10.6997933 11.065629,10.7233773 11.1795135,10.6594222 C11.5696626,10.4397397 11.9960516,10.3532261 12.4403466,10.3972739 C12.5991456,10.4130063 12.6640064,10.3547935 12.7370425,10.2279381 C13.7159752,8.52921833 14.6985033,6.83260796 15.6871522,5.13965969 C15.7759969,4.98760899 15.7795781,4.91316569 15.6284122,4.79520189 C14.7281229,4.09266323 14.3854566,2.89149202 14.7592692,1.80935395 C15.1289871,0.735594789 16.1549174,0.00315868143 17.2916504,2.39156372e-05 L17.2916504,9.26719893e-06 Z" id="路径"></path>
        </g>
    </g>
</svg>