<?xml version="1.0" encoding="UTF-8"?>
<svg width="20px" height="20px" viewBox="0 0 20 20" version="1.1" xmlns="http://www.w3.org/2000/svg" xmlns:xlink="http://www.w3.org/1999/xlink">
    <!-- Generator: Sketch 52.4 (67378) - http://www.bohemiancoding.com/sketch -->
    <title>画板</title>
    <desc>Created with Sketch.</desc>
    <g id="画板" stroke="none" stroke-width="1" fill="none" fill-rule="evenodd">
        <g id="ic_距离测量" transform="translate(0.000000, 3.000000)" fill="#FFFFFF" fill-rule="nonzero">
            <path d="M1.05263158,2.00007086 L18.9473684,2.00007086 L18.9473684,0.500079732 C18.9473373,0.3214283 19.0476457,0.156334929 19.2105012,0.0670006838 C19.3733566,-0.0223335613 19.5740118,-0.0223335613 19.7368672,0.0670006838 C19.8997227,0.156334929 20.0000311,0.3214283 20,0.500079732 L20,4.5000561 C20.0000311,4.67870753 19.8997227,4.84380091 19.7368672,4.93313515 C19.5740118,5.0224694 19.3733566,5.0224694 19.2105012,4.93313515 C19.0476457,4.84380091 18.9473373,4.67870753 18.9473684,4.5000561 L18.9473684,3.00006496 L1.05263158,3.00006496 L1.05263158,4.5000561 C1.05258352,4.77616456 0.816957995,4.99997048 0.526315795,4.99997048 C0.235673595,4.99997048 4.80676638e-05,4.77616456 7.22814238e-09,4.5000561 L7.22814238e-09,0.500079732 C-3.10894857e-05,0.3214283 0.100277332,0.156334929 0.263132774,0.0670006838 C0.425988217,-0.0223335613 0.626643374,-0.0223335613 0.789498816,0.0670006838 C0.952354259,0.156334929 1.05266268,0.3214283 1.05263158,0.500079732 L1.05263158,2.00007086 Z M12.6315789,6.00004725 L12.6315789,9.50002658 C12.6315479,9.67867801 12.7318563,9.84377138 12.8947117,9.93310563 C13.0575672,10.0224399 13.2582223,10.0224399 13.4210778,9.93310563 C13.5839332,9.84377138 13.6842416,9.67867801 13.6842105,9.50002658 L13.6842105,6.00004725 L15.7894737,6.00004725 L15.7894737,10.5000207 C15.7894426,10.6786721 15.889751,10.8437655 16.0526064,10.9330997 C16.2154619,11.022434 16.416117,11.022434 16.5789725,10.9330997 C16.7418279,10.8437655 16.8421363,10.6786721 16.8421053,10.5000207 L16.8421053,6.00004725 L18.9473684,6.00004725 C19.5287208,6.00004725 20,6.44775985 20,7.00004134 L20,13.0000059 C20,13.5522874 19.5287208,14 18.9473684,14 L1.05263159,14 C0.471279218,14 9.11487604e-09,13.5522874 9.11487597e-09,13.0000059 L9.11487597e-09,7.00004134 C9.11487589e-09,6.44775985 0.471279218,6.00004725 1.05263159,6.00004725 L3.15789474,6.00004725 L3.15789474,10.5000207 C3.15789474,10.7761614 3.39353434,11.0000177 3.68421053,11.0000177 C3.97488672,11.0000177 4.21052633,10.7761614 4.21052633,10.5000207 L4.21052633,6.00004725 L6.31578948,6.00004725 L6.31578948,9.50002658 C6.31583754,9.77613503 6.55146307,9.99994095 6.84210527,9.99994095 C7.13274747,9.99994095 7.36837299,9.77613503 7.36842105,9.50002658 L7.36842105,6.00004725 L9.47368421,6.00004725 L9.47368421,9.50002658 C9.47373227,9.77613503 9.70935779,9.99994095 9.99999999,9.99994095 C10.2906422,9.99994095 10.5262677,9.77613503 10.5263158,9.50002658 L10.5263158,6.00004725 L12.6315789,6.00004725 Z" id="形状"></path>
        </g>
    </g>
</svg>