<?xml version="1.0" encoding="UTF-8"?>
<svg width="20px" height="20px" viewBox="0 0 20 20" version="1.1" xmlns="http://www.w3.org/2000/svg" xmlns:xlink="http://www.w3.org/1999/xlink">
    <!-- Generator: Sketch 52.4 (67378) - http://www.bohemiancoding.com/sketch -->
    <title>画板</title>
    <desc>Created with Sketch.</desc>
    <g id="画板" stroke="none" stroke-width="1" fill="none" fill-rule="evenodd">
        <g id="查询(1)" transform="translate(0.000000, 1.000000)" fill="#FFFFFF">
            <path d="M2.48284896,7.24608355 L15.1155956,7.24608355 L15.1267294,7.88968668 C15.2158002,7.88552546 15.2951289,7.86194517 15.3855915,7.86194517 C15.9534179,7.86194517 16.4864511,7.97984661 17,8.15323107 L17,2.80605418 L13.2729431,2.80605418 L13.2729431,0 L0,0 L0,17 L11.5388457,17 C10.6550962,16.0137892 10.1053623,14.8306136 10.1053623,13.3755711 C10.1053623,12.9747063 10.1512894,12.584938 10.2292264,12.2048792 L2.49398281,12.2048792 L2.49398281,10.2976501 L11.0058125,10.2976501 C11.3579206,9.74975522 11.8102333,9.2823107 12.3265657,8.89670366 L2.49398281,8.89670366 L2.48284896,7.24608355 Z M2.50790012,5.92420039 L2.50790012,4.3470953 L11.4219402,4.3470953 L11.4219402,5.92420039 L2.50790012,5.92420039 Z" id="形状" fill-rule="nonzero"></path>
            <polygon id="路径" points="14 0 14 2 17 2"></polygon>
            <path d="M20,17.6954633 L18.4161889,15.9594595 C18.7777403,15.3513514 18.9935919,14.6274131 18.9935919,13.8470077 C18.9935919,11.722973 17.4286678,10 15.496796,10 C13.5676223,10 12,11.722973 12,13.8470077 C12,15.9739382 13.5676223,17.6954633 15.496796,17.6954633 C16.0890388,17.6954633 16.6381113,17.5173745 17.1278246,17.2321429 L18.7318718,19 L20,17.6954633 Z M13.4111298,13.8470077 C13.4111298,12.5801158 14.3460371,11.5506757 15.498145,11.5506757 C16.650253,11.5506757 17.5824621,12.5801158 17.5824621,13.8470077 C17.5824621,15.1138996 16.650253,16.1433398 15.498145,16.1433398 C14.3460371,16.1433398 13.4111298,15.1138996 13.4111298,13.8470077 Z" id="形状" fill-rule="nonzero"></path>
        </g>
    </g>
</svg>