<?xml version="1.0" encoding="UTF-8"?>
<svg width="20px" height="20px" viewBox="0 0 20 20" version="1.1" xmlns="http://www.w3.org/2000/svg" xmlns:xlink="http://www.w3.org/1999/xlink">
    <!-- Generator: Sketch 52.4 (67378) - http://www.bohemiancoding.com/sketch -->
    <title>画板</title>
    <desc>Created with Sketch.</desc>
    <g id="画板" stroke="none" stroke-width="1" fill="none" fill-rule="evenodd">
        <path d="M10.0039822,7.83333333 C10.0093298,7.82989838 10.0169529,7.8268928 10.0220729,7.82341014 C10.0018204,7.78285864 9.98532267,7.74745957 9.97792711,7.72222222 C9.98702933,7.75910023 9.99658667,7.79616908 10.0039822,7.83333333 Z M13.339136,12.224896 C13.3398187,12.224896 13.3398187,12.2239858 13.3398187,12.2235307 C13.3373156,12.2223929 13.3286684,12.2223929 13.326848,12.2195484 C13.3295787,12.2223929 13.3362916,12.2223929 13.339136,12.224896 Z M13.3888889,12.1987942 C13.3629811,12.188834 13.3047645,12.2069931 13.281741,12.1666667 C13.2675221,12.2843664 13.2889517,12.3287619 13.3888889,12.1987942 Z M10,0 C4.47705097,0 0,4.47705097 0,9.99995357 C0,15.5227633 4.47705097,20 10,20 C15.5227633,20 20,15.5227865 20,9.99995357 C20,4.47705097 15.5227633,0 10,0 Z M16.6403865,3.88682311 C16.295514,3.8973308 16.0554371,3.89798461 15.778368,4.09013528 C15.6667178,4.16768205 15.5909211,4.27040058 15.4492497,4.31032981 C15.3222171,4.34626611 15.1851,4.31476639 15.0590666,4.35773117 C14.6042866,4.51282471 14.6763422,5.49167462 14.0771258,5.34381972 C13.7956418,5.27442225 13.5972739,4.94016088 13.4556025,4.72188109 C13.3308006,4.52984717 13.10355,4.37101757 13.2570487,4.13067162 C13.1870379,4.1487215 13.1123798,4.12814977 13.0434378,4.14131941 C13.1394268,3.92950769 13.4613651,3.94802458 13.5149246,3.83974864 C13.648324,3.56844003 13.1476757,3.54009261 13.0059113,3.50247507 C13.1767907,3.31945442 13.263276,3.56405015 13.431948,3.52250974 C13.5940441,3.48241706 13.3464153,3.26789668 13.2491949,3.24379904 C13.214294,3.23511268 12.6435419,3.40230174 12.9738917,3.10521425 C12.5660723,2.84396967 12.1584619,2.58281849 11.7505495,2.32138711 C11.6818864,2.61202988 12.2933252,2.7772108 12.4930407,2.87962577 C12.4620203,2.99964697 12.2762465,3.17442492 12.1339942,3.12326413 C12.0000139,3.07497545 12.05441,2.85186212 11.852092,2.87427853 C11.7076322,3.2117856 12.1575093,3.11313005 12.1993113,3.31996813 C12.2468062,3.55562064 12.0292451,3.45575087 11.9455714,3.45168789 C11.9256347,3.45063712 11.769673,3.28842171 11.7612614,3.4112216 C11.7511537,3.55706837 12.0099823,3.50018673 12.028246,3.64745788 C11.7267789,3.65971685 11.5727922,3.55034345 11.3273709,3.3864935 C11.0409144,3.1954403 10.8939219,3.21267292 10.5429615,3.21267292 C10.6479197,3.16933453 10.7925189,3.13722769 10.8822805,3.06745661 C10.9312858,3.02932536 11.1236819,2.84142448 11.1363689,2.79948711 C11.1907417,2.6184746 11.1334179,2.63220465 10.9610746,2.51356113 C10.807878,2.40822735 10.6220809,2.21915894 10.4364465,2.18191501 C9.7638732,2.04699624 10.2290165,2.79213172 9.71846957,2.8948736 C9.7272064,2.89534061 9.73666355,2.89573757 9.74416886,2.89573757 L9.71491442,2.89573757 C9.71623889,2.89564417 9.71728452,2.89515381 9.71846957,2.8948736 C9.6003597,2.89062383 9.37901116,2.8617627 9.30291243,2.92445859 C9.24919022,2.9685442 9.24468238,3.14561049 9.18461667,3.20970741 C9.07775315,3.32419456 8.91842217,3.34705463 8.79090161,3.42962174 C8.66642501,3.51027412 8.39198163,3.7172056 8.31888038,3.85756502 C8.04945604,4.37484704 8.92595071,4.53540457 9.25825235,4.68659859 C9.40838178,4.75494529 9.84715193,4.8484871 9.92887383,4.96264734 C10.0384792,5.1159429 9.83441847,5.25968813 10.0632723,5.36745035 C10.1363736,5.40177548 10.2871071,5.40878061 10.3500774,5.33767856 C10.4523634,5.22181374 10.3084845,5.19566126 10.2839702,5.06183996 C10.2365218,4.80421469 10.314735,4.90658297 10.443673,4.81084622 C10.7064518,4.6158935 10.647269,4.60396143 10.5527207,4.29328399 C10.5088275,4.1486748 10.3431994,3.74501596 10.4888907,3.63825781 C10.6788471,3.49899586 11.0839944,3.71374974 11.2296625,3.73170622 C11.3991709,3.75255815 11.4954155,3.98860762 11.5878028,4.08516164 C11.6491698,4.14925856 11.7589146,4.2852748 11.8661034,4.27056403 C12.0362625,4.24714355 11.9650666,4.09765411 12.063751,4.0287003 C12.3285048,3.84418523 12.3982368,4.09485206 12.5037527,4.34554225 C12.6030179,4.58100796 12.6969389,4.66840861 12.8736041,4.81943917 C12.9556745,4.88974731 13.3152323,5.140671 13.2813074,5.29534423 C13.2583267,5.39953384 12.8475562,5.55754618 12.7377185,5.59252512 C12.3362193,5.72032201 11.5830162,5.38330529 11.5021308,6.0231537 C11.6579066,5.96487103 12.1009987,5.60111808 12.2338868,5.77351428 C12.294487,5.85173821 12.1858343,5.96566495 12.2114174,6.04335182 C12.287214,6.27624898 12.4659705,6.19510625 12.6534174,6.15746536 C12.6406374,6.16547455 12.6275322,6.17245633 12.6137066,6.1786909 C12.8698166,6.04643408 12.8431878,6.07398758 12.9607168,5.8594672 C12.9990798,5.78936922 13.0561713,5.61975172 13.1102188,5.569595 C13.2963877,5.39750235 13.3250612,5.51600577 13.4403827,5.6487763 C13.4705899,5.68375524 13.7557219,6.09633394 13.654226,6.07576221 C13.3225517,6.00890994 13.0041221,6.0178765 12.7290514,6.20012659 C12.5705801,6.30532026 12.4206831,6.44724416 12.2314005,6.51710864 C12.1860434,6.53375749 11.8500936,6.56574758 11.8898044,6.50818878 C11.9477788,6.42424399 12.1473085,6.36869332 12.226033,6.27807031 C12.0078213,6.18777421 11.825835,6.38716351 11.6543747,6.50375219 C11.4724348,6.59024218 11.4301216,6.75145353 11.2752055,6.89279366 C11.207588,6.95441544 11.0796957,6.96489978 11.0132865,7.04599582 C10.9488756,7.12468676 10.9408591,7.24844402 10.8798407,7.32314204 C10.8370163,7.375447 10.7272482,7.34385387 10.6825649,7.42268491 C10.6243349,7.52568365 10.7358456,7.62130365 10.7114011,7.69548795 C10.6666248,7.83031332 10.4114443,7.94470706 10.3133176,8.04177479 C10.3264229,8.02911886 10.3394352,8.01608932 10.3522616,8.00287298 C10.2539025,8.10657223 10.1294724,8.18283472 10.0526766,8.30283257 C10.087926,8.47221657 10.1990882,8.87624901 10.168091,8.96920706 C10.0658051,9.27502761 9.86713511,8.80288197 9.78655179,8.68089934 C9.50971508,8.26173582 8.95641344,8.54222115 8.57842932,8.57701328 C8.09502233,8.62144915 7.62153722,9.25188733 7.91972804,9.7636353 C8.06286336,10.0090483 8.3036374,10.1040612 8.57984673,10.0472729 C8.82566305,9.99669591 8.89946138,9.65110959 9.13094093,9.64480498 C9.556327,9.63340997 9.14030514,10.0636883 9.10349891,10.2216072 C9.06945781,10.3678743 9.15654728,10.3813942 9.30637463,10.4176574 C9.41702567,10.4442302 9.57370772,10.3700692 9.66962697,10.4335591 C9.73004122,10.4736517 9.72713669,10.6931224 9.81025276,10.6238884 C9.64664631,10.7601848 9.68486995,11.0833314 9.85261245,11.2001069 C10.0385954,11.3297718 10.2575739,11.2097039 10.4522937,11.259487 C10.8199144,11.3537527 10.6444342,11.2313264 10.9672787,11.035463 C11.185165,10.9035098 11.2209256,11.0603312 11.3698235,11.0609383 C11.4711801,11.0613586 11.5355677,10.9145078 11.7050297,10.9572391 C11.8431692,10.992218 11.8977512,11.0993731 12.0626821,11.1240312 C12.1302996,11.1340485 12.2001245,11.0984625 12.2646051,11.1056077 C12.5696507,11.139676 12.8031982,11.3355394 13.0436005,11.5126524 C13.2416896,11.6584057 13.3729047,11.6288674 13.6042913,11.6953461 C13.7733582,11.7437515 14.0852817,11.9896082 14.0693184,12.2054829 C14.0664603,12.2440811 13.9186778,12.4381932 13.89342,12.5256172 C13.9366859,12.5557393 14.2375489,12.4881632 14.325591,12.4818118 C14.2966619,12.5156466 14.0917878,12.6603025 14.0917878,12.583503 C14.0917878,12.6228718 14.2367356,12.703711 14.2720547,12.728836 C14.3789182,12.3801674 14.5544449,12.6045183 14.7656856,12.6908916 C14.9453019,12.7643987 15.1663716,12.7683449 15.3579545,12.8142052 C15.5205618,12.853107 15.8791668,12.9634378 15.99967,13.0969788 C16.1447107,13.2577232 16.0444463,13.5188744 15.9371181,13.6788014 C15.7967246,13.8884182 15.5850191,13.9690706 15.4974417,14.2156978 C15.4282441,14.4111876 15.4802004,14.6087089 15.4406523,14.8254242 C15.3871857,15.1187756 15.344338,15.0159403 15.1563335,15.1949447 C14.9981411,15.345695 15.1536846,15.3194959 14.9383078,15.4155829 C14.7219782,15.5121836 14.5314874,15.4834392 14.3817066,15.7219638 C14.3877015,15.7069729 14.3925811,15.6919352 14.3967637,15.6762437 C14.333561,15.7651154 14.3019597,15.947132 14.2720082,16.006839 C14.1964904,16.1592239 14.0923455,16.2553343 13.9729112,16.3822439 C13.9271358,16.4308361 13.5063505,17.0085257 13.4820453,16.962105 C13.4507926,16.9017442 13.1190254,17.0227227 13.1032015,16.9366297 C13.1163997,17.0089927 13.1000646,16.9847316 13.1824603,17.0264355 C13.1061525,17.5011963 12.906344,17.5720182 12.4424089,17.576805 C12.4823056,17.8049854 12.2742947,17.7594521 12.1776086,17.8821352 C12.1210981,17.9537743 12.0941208,18.1552185 12.0549444,18.2479897 C12.0304767,18.306249 11.8493501,18.5397299 11.8493501,18.5859871 C11.8491642,18.6286017 11.9102755,18.6910407 11.9675064,18.7509112 C11.6404329,18.8159188 11.3069462,18.861242 10.9682314,18.8888889 C11.0316431,18.8086101 11.0468861,18.7380685 10.8449398,18.7284014 C10.8989874,18.5808267 11.0258805,18.4966484 11.0796492,18.3537204 C11.1051626,18.2862844 11.0840641,18.2596182 11.1056274,18.1927893 C11.1795186,17.9621338 11.1474758,18.0491375 11.1058132,17.8699696 C11.008221,17.4500356 11.1405282,17.3351748 11.2544556,16.9506867 C11.3713804,16.5555741 11.3605058,16.0433825 11.4354427,15.6177742 C11.470971,15.4140885 11.529201,14.9903015 11.4588184,14.7977773 C11.3795131,14.5809686 11.030644,14.4102069 10.8708715,14.2644068 C10.6446666,14.0572885 10.524419,13.833498 10.3564441,13.5775073 C10.2711903,13.4475155 10.1739931,13.3199287 10.1074909,13.1785652 C9.96521533,12.8763173 10.1075838,13.056209 10.1315172,12.8778117 C10.1544514,12.7054389 10.1110925,12.5513728 10.179198,12.3704537 C10.2545299,12.1704339 10.4425809,12.0457893 10.5043661,11.8440883 C10.5599704,11.6645469 10.5176572,11.438865 10.3341141,11.3789712 C10.2318281,11.3454166 10.1189696,11.4227299 10.0161957,11.4057541 C9.87287446,11.382427 9.71063895,11.2748983 9.59817549,11.1889454 C9.44116813,11.0687374 9.38233394,10.8733877 9.21514911,10.7594143 C9.07515069,10.6644481 8.97560658,10.721283 8.82587217,10.6768472 C8.66972456,10.6306133 8.57331735,10.4369916 8.44735362,10.3763739 C8.25832671,10.2855173 8.15181173,10.4159762 7.9522588,10.3895902 C7.78256445,10.3672672 7.52373583,10.1782688 7.36517165,10.1068632 C7.04274541,9.96183373 6.84642231,9.80176655 6.71748435,9.47294583 C6.60706568,9.19094272 6.44610816,9.05940976 6.25657005,8.82455116 C6.06452243,8.58658696 6.004387,8.38381185 5.70838039,8.32039209 C5.67361895,8.3128032 5.78080779,8.57019496 5.79186824,8.59083674 C5.89763966,8.78765749 6.05648268,8.96743243 6.1842356,9.15068658 C6.37221688,9.42061752 6.29209828,9.4712646 6.10088716,9.21025352 C5.88223403,8.91164826 5.62849415,8.61474758 5.43881662,8.29851274 C5.36710955,8.17900525 5.38088865,8.10173869 5.26261612,7.98825561 C5.14834023,7.87862535 4.99879171,7.82522293 4.88372579,7.72093992 C4.46970225,7.34677267 4.39441679,6.84728368 4.44163286,6.31386652 C4.45696878,6.13999924 4.5194743,6.00094744 4.49191611,5.83380508 C4.46916782,5.6950335 4.38763181,5.5802895 4.28576408,5.47806132 C4.25295449,5.42552286 4.17055874,5.29613815 4.16579531,5.2879188 C4.07180467,5.13100392 3.99868018,4.9767043 3.84936402,4.84799674 C3.76369196,4.77383579 3.54204135,4.60050557 3.33333333,4.45531261 C4.27100906,3.2800856 5.49795289,2.34875381 6.90548887,1.77050383 C6.91668874,1.84160588 6.94708176,1.91259118 6.99262481,1.98054092 C7.10836459,2.15300718 7.21864384,2.13937053 7.44454668,2.1870988 C7.42033451,2.45058502 7.11387158,2.45268656 6.90641832,2.42410564 C6.65878958,2.38994396 6.39826472,2.30728345 6.18374764,2.52537644 C6.30222929,2.59696885 6.62742064,2.87577295 6.58420121,2.58445302 C6.82142011,2.57252095 7.05071544,2.56539907 7.28279913,2.59390995 C7.37579061,2.60537501 7.68734228,2.71045193 7.77178282,2.66253685 C7.80721811,2.64240878 7.84497702,2.46672017 7.88248033,2.41268728 C7.81632672,2.41306089 7.74540968,2.37950632 7.67951167,2.38585764 C7.83319624,2.18812622 7.98629991,2.34324311 8.18187944,2.43419302 C7.96654909,2.56567928 8.09425553,2.8807933 8.30477598,2.62475586 C8.47770017,2.41420506 8.26246276,2.26156331 8.04290342,2.13888017 C8.26429843,1.86058978 8.40083465,1.83548807 8.60914765,2.14957466 C8.64349083,1.95585952 8.79905754,2.03340629 8.96166483,2.0477201 L8.96166483,1.99926796 C8.89009717,2.0009959 8.81367314,1.95961894 8.74282581,1.96709108 C8.90847705,1.70150332 8.8027521,1.6408389 9.03955275,1.55413877 C9.22813817,1.48513826 9.76612712,1.54937528 9.83242015,1.37121152 C9.45589992,1.44476537 9.00102704,1.46237159 8.66133627,1.63441754 C8.51487817,1.70857849 8.34039715,1.94275993 8.19412495,1.79056184 C8.04420465,1.63441754 8.30136025,1.38333039 8.43292391,1.30678769 L8.40143879,1.30678769 C8.99716982,1.17945781 9.61413879,1.11111111 10.2471408,1.11111111 C10.6561453,1.11111111 11.0581092,1.14151337 11.4526608,1.19568636 C11.3161246,1.26774578 11.4170861,1.31638472 11.3176349,1.39003197 C11.127725,1.53039138 10.7906135,1.64751713 10.5646177,1.7362254 C10.8518875,1.73545484 11.547302,2.0069269 11.6811429,1.60198379 C11.5883837,1.58766998 11.4958802,1.57330947 11.403214,1.55899566 C11.5763241,1.44364455 11.7694174,1.35028954 11.9721537,1.28184944 C13.8015671,1.64604605 15.4288018,2.57852201 16.6666667,3.88700991 C16.6577207,3.88682311 16.6489374,3.8865896 16.6403865,3.88682311 Z M17.8016624,6.99905903 C17.8279397,6.96955721 17.889315,6.95983369 17.9146658,6.93549566 C17.9679986,6.8843254 17.9561016,6.84962082 18.0217762,6.80569935 C18.0920836,6.75823143 18.1869264,6.74659828 18.2653876,6.7095164 C18.2970389,6.69459012 18.3146435,6.68075505 18.329172,6.66666667 C18.5646667,7.0121926 18.7523879,7.36944911 18.8888889,7.73625377 C18.8847379,7.73888438 18.88244,7.74285952 18.8772883,7.74506144 C18.8429685,7.7593252 18.6192226,7.77680415 18.5733023,7.77764205 C18.4112653,7.7809157 18.2908865,7.72438679 18.1745475,7.67118998 C18.0562072,7.61713579 17.9168524,7.5448232 17.8327578,7.47484894 C17.7429184,7.4001006 17.7983638,7.32330624 17.8048127,7.23791854 C17.8101497,7.16613208 17.7436967,7.06375258 17.8016624,6.99905903 Z M18.266946,11.9670436 C18.1211871,11.8296315 17.9492274,11.6454249 17.8455867,11.4674391 C17.7348934,11.2776531 17.8031139,11.0823518 17.8112105,10.8650107 C17.8179282,10.682215 17.735642,10.4220982 17.8072312,10.2575158 C17.8400905,10.1823753 17.9154225,10.1575137 17.9464301,10.0959476 C18.0123456,9.9655686 17.9977284,9.87745213 18.0786158,9.76537193 C18.1653738,9.6449974 18.2820361,9.61536872 18.3787031,9.52096739 C18.4799601,9.42201273 18.4771431,9.34392213 18.5412463,9.21713447 C18.5881515,9.12437917 18.6983917,8.96975851 18.8027613,8.88888889 C18.8593786,9.29146269 18.8888889,9.70374171 18.8888889,10.1231393 C18.8888889,10.8488068 18.7999048,11.5521138 18.6351159,12.2222222 C18.4946365,12.1829097 18.3790774,12.0730313 18.266946,11.9670436 Z" id="形状" fill="#FFFFFF" fill-rule="nonzero"></path>
    </g>
</svg>