<?xml version="1.0" encoding="UTF-8"?>
<svg width="20px" height="20px" viewBox="0 0 20 20" version="1.1" xmlns="http://www.w3.org/2000/svg" xmlns:xlink="http://www.w3.org/1999/xlink">
    <!-- Generator: Sketch 52.4 (67378) - http://www.bohemiancoding.com/sketch -->
    <title>画板</title>
    <desc>Created with Sketch.</desc>
    <g id="画板" stroke="none" stroke-width="1" fill="none" fill-rule="evenodd">
        <g id="dibiao" transform="translate(1.000000, 1.000000)" fill="#FFFFFF">
            <path d="M7.94186034,0 L10.0530741,0 C11.702707,0.269101909 13.2040805,1.24791273 14.0857297,2.60858294 C15.0197638,4.01663025 15.2520369,5.8254878 14.7183031,7.41072546 C14.5107399,8.05505397 14.1460218,8.63589718 13.7763617,9.20347479 C12.3787698,11.3363917 10.9880967,13.4721512 9.59544679,15.6069632 C9.47189729,15.8106847 9.28212526,16.0380948 9.00537439,15.9945078 C8.7355423,16.0361997 8.53094433,15.8334257 8.41431361,15.6268616 C6.90404457,13.2892756 5.36412366,10.9687454 3.85879661,8.62831684 C2.76266548,6.9236889 2.71324568,4.66569648 3.72536315,2.91653407 C4.57637208,1.40141452 6.17065477,0.290895373 7.94186034,0 Z M6.27838993,5.50142846 C6.18943429,6.56836068 6.86945071,7.64192569 7.89639412,8.06073922 C9.08938805,8.59704796 10.6401813,8.1393852 11.3103138,7.05350215 C11.9418988,6.12396351 11.8489896,4.8040376 11.0859479,3.96830561 C10.6223902,3.42536409 9.92161745,3.09182933 9.19514642,3.03592435 C9.06566655,3.06435061 8.93618668,3.06435061 8.80670681,3.03876698 C7.47929103,3.10509491 6.31990256,4.22508948 6.27838993,5.50142846 Z" id="形状" fill-rule="nonzero"></path>
            <path d="M3.26517469,14.1555182 C3.51284477,14.0977598 3.78107614,14.0138297 4.03248463,14.1013697 C4.50352508,14.3062314 4.47361775,15.0832617 3.97360458,15.2366823 C3.23059434,15.4162747 2.47356505,15.58233 1.79036948,15.9279776 C1.57634515,16.0398844 1.33334809,16.1554011 1.2436261,16.3909469 C1.77635042,16.8638434 2.47449965,17.106609 3.15769523,17.2997385 C4.3474462,17.6327515 5.58392738,17.772635 6.81667015,17.8583701 C8.94569821,17.9621546 11.1008952,17.9107136 13.1916045,17.475721 C13.9878871,17.2979335 14.7972543,17.0822422 15.4897959,16.6481521 C15.5944715,16.547075 15.8000844,16.4604374 15.7645695,16.2907723 C15.6150328,16.1030576 15.3954009,15.983931 15.1813765,15.8774391 C14.4850965,15.5660854 13.7411517,15.3576139 12.9878608,15.2240477 C12.7476675,15.1834364 12.5084089,15.0453578 12.4233599,14.8143244 C12.2859731,14.4984584 12.5102781,14.1257365 12.8345857,14.0237569 C13.0934711,13.9461441 13.3570294,14.0806128 13.6140455,14.1149068 C14.6692135,14.3757219 15.8141035,14.6491716 16.5954325,15.4334217 C17.0047891,15.8124609 17.1375028,16.459535 16.8346911,16.9360414 C16.4645879,17.5479189 15.7795231,17.8872492 15.1253003,18.1498692 C13.7776012,18.6642796 12.3298995,18.859214 10.8962169,19 L6.11010947,19 C4.50259048,18.8375546 2.85768732,18.6236682 1.38755512,17.9359828 C0.804362187,17.6480936 0.187523503,17.228443 0.0286408122,16.5768566 C-0.118092026,15.968589 0.323041093,15.4262019 0.803427583,15.0904815 C1.53989559,14.6058528 2.40720816,14.3540625 3.26517469,14.1555182 Z" id="路径"></path>
        </g>
    </g>
</svg>