<?xml version="1.0" encoding="UTF-8"?>
<svg width="20px" height="20px" viewBox="0 0 20 20" version="1.1" xmlns="http://www.w3.org/2000/svg" xmlns:xlink="http://www.w3.org/1999/xlink">
    <!-- Generator: Sketch 52.4 (67378) - http://www.bohemiancoding.com/sketch -->
    <title>俯视</title>
    <desc>Created with Sketch.</desc>
    <g id="俯视" stroke="none" stroke-width="1" fill="none" fill-rule="evenodd">
        <g id="liulan" transform="translate(2.000000, 5.000000)" fill="#FFFFFF" fill-rule="nonzero">
            <path d="M8.5,0 C4.89746094,0 1.74316406,2.00345423 0,5.00863558 C1.74316406,8.01381693 4.89746094,10 8.5,10 C12.1025391,10 15.2568359,7.99654577 17,5.00863558 C15.2568359,2.00345423 12.1025391,0 8.5,0 Z M8.53320312,8.46286701 C6.69042969,8.46286701 5.21289062,6.90846287 5.21289062,5.00863558 C5.21289062,3.10880829 6.70703125,1.55440415 8.53320312,1.55440415 C10.359375,1.55440415 11.8535156,3.10880829 11.8535156,5.00863558 C11.8535156,6.90846287 10.3759766,8.46286701 8.53320312,8.46286701 Z M8.53320312,7.30569948 C9.76171875,7.30569948 10.7578125,6.28670121 10.7578125,5.00863558 C10.7578125,3.73056995 9.76171875,2.69430052 8.53320312,2.69430052 C7.3046875,2.69430052 6.30859375,3.73056995 6.30859375,5.00863558 C6.32519531,6.28670121 7.3046875,7.30569948 8.53320312,7.30569948 Z" id="形状"></path>
        </g>
    </g>
</svg>