<?xml version="1.0" encoding="UTF-8"?>
<svg width="20px" height="20px" viewBox="0 0 20 20" version="1.1" xmlns="http://www.w3.org/2000/svg" xmlns:xlink="http://www.w3.org/1999/xlink">
    <!-- Generator: Sketch 52.4 (67378) - http://www.bohemiancoding.com/sketch -->
    <title>图层</title>
    <desc>Created with Sketch.</desc>
    <g id="图层" stroke="none" stroke-width="1" fill="none" fill-rule="evenodd">
        <g id="tuceng" transform="translate(2.000000, 3.000000)" fill="#FFFFFF" fill-rule="nonzero">
            <path d="M15.5367021,7.69300408 L8.29323751,10.6909833 C8.29223684,10.6909833 8.29128307,10.6909833 8.29028239,10.6919691 L8.28637349,10.6929549 C8.19574602,10.73118 8.09837121,10.7508036 8.00002345,10.7506622 C7.90166408,10.7508189 7.80427604,10.7311947 7.71364214,10.6929549 L7.7126571,10.6929549 L7.70973325,10.6919691 C7.70873257,10.6909833 7.70776316,10.6909833 7.70677812,10.6909833 L0.46328228,7.69301973 C0.191567145,7.58051551 0,7.31250824 0,7.00046942 C0,6.58575289 0.335258139,6.25024309 0.749663591,6.25024309 C0.847916,6.25023739 0.945216502,6.26950796 1.03606054,6.30696462 L1.03702994,6.30696462 L1.03996943,6.3079504 C1.04095447,6.30893618 1.04192388,6.30893618 1.04290892,6.30990632 L8.00000782,9.18855913 L14.9561373,6.30992196 C14.9571223,6.30893618 14.9580918,6.30893618 14.9590612,6.30796605 L14.9629857,6.30698027 C15.0538193,6.26952529 15.1511092,6.2502547 15.2493514,6.25025874 C15.6637568,6.25025874 16,6.58575289 16,7.00048507 C15.9999844,7.3124926 15.8084172,7.58053116 15.5366864,7.69300408 L15.5367021,7.69300408 Z M15.5367021,4.44268052 L8.29323751,7.44062849 C8.29223684,7.44062849 8.29128307,7.44162991 8.29028239,7.44162991 L8.28637349,7.44358583 L8.28637349,7.44260005 C8.19574602,7.4808251 8.09837121,7.50044877 8.00002345,7.50030736 C7.90166408,7.50046402 7.80427604,7.48083983 7.71364214,7.44260005 L7.7126571,7.44358583 L7.70973325,7.44162991 C7.70873257,7.44162991 7.70776316,7.44062849 7.70677812,7.44062849 L0.46328228,4.44268052 C0.191567145,4.33019195 0,4.06218468 0,3.7501615 C0,3.43715255 0.191567145,3.17011541 0.46328228,3.05764249 L0.46328228,3.0566567 L7.70580872,0.0596788723 C7.70776316,0.0596788723 7.70874821,0.0586930913 7.70971761,0.0586930913 L7.7126571,0.0567371765 C7.80162356,0.020544929 7.89834527,0 8.00002345,0 C8.09826567,1.06361591e-05 8.19555379,0.0192861778 8.28638913,0.0567371765 L8.29029802,0.0586930913 C8.29128307,0.0586930913 8.29223684,0.0596788723 8.29323751,0.0596788723 L15.5367177,3.05667235 L15.5367177,3.05765813 C15.8084329,3.17013106 16,3.43716819 16,3.75017715 C16,4.06218468 15.8084329,4.33019195 15.5367021,4.44268052 Z M0.749663591,9.50059795 C0.847915247,9.50059994 0.945214271,9.51987022 1.03606054,9.55731948 L1.03702994,9.55731948 L1.03996943,9.55832091 C1.04095447,9.55929104 1.04192388,9.55929104 1.04290892,9.56027682 L8.00000782,12.438914 L14.9561373,9.56027682 C14.9571223,9.5592754 14.9580918,9.5592754 14.9600462,9.55832091 L14.9629857,9.55731948 C15.0538216,9.51987229 15.15111,9.50060201 15.2493514,9.50059795 C15.6637568,9.50059795 16,9.8360921 16,10.2498385 C16,10.5628475 15.8084172,10.8308547 15.5367021,10.9433276 L8.29320624,13.9403211 C8.2922212,13.9413069 8.29126743,13.9413069 8.29026675,13.942277 L8.28635786,13.9432628 C8.19552692,13.9807103 8.09824461,13.9999857 8.00000782,14 C7.90176018,13.999993 7.80446624,13.9807174 7.71362651,13.9432628 L7.71264147,13.9432628 L7.70971761,13.942277 C7.70871693,13.9412913 7.70774753,13.9412913 7.70676249,13.9403211 L0.46328228,10.9433276 C0.191567145,10.8308547 0,10.5628318 0,10.2498385 C0,9.8360921 0.336227545,9.50059795 0.749663591,9.50059795 Z" id="形状"></path>
        </g>
    </g>
</svg>