<?xml version="1.0" encoding="UTF-8"?>
<svg width="20px" height="20px" viewBox="0 0 20 20" version="1.1" xmlns="http://www.w3.org/2000/svg" xmlns:xlink="http://www.w3.org/1999/xlink">
    <!-- Generator: Sketch 52.4 (67378) - http://www.bohemiancoding.com/sketch -->
    <title>地下</title>
    <desc>Created with Sketch.</desc>
    <g id="地下" stroke="none" stroke-width="1" fill="none" fill-rule="evenodd">
        <g id="dixiatongdao" transform="translate(2.000000, 1.000000)" fill="#FFFFFF">
            <path d="M0.204153976,10.7869977 C-0.0758029394,10.5097374 -0.066703667,10.0698822 0.224504574,9.80325794 L10.7589838,0.193694387 C11.0512163,-0.0719192562 11.5148239,-0.0632861848 11.795846,0.213002322 C12.0758029,0.490262586 12.0667037,0.930117765 11.7754954,1.19674206 L1.24101619,10.8063056 C0.948783727,11.0719193 0.485176133,11.0632862 0.204153976,10.7869977 Z" id="路径"></path>
            <path d="M0.765978305,11.1731876 C0.343388661,11.1721598 0.00108080308,10.846667 0,10.444836 L0,4.72835155 C0,4.32817894 0.344149433,4 0.765978305,4 C1.1868239,4 1.53195661,4.32724396 1.53195661,4.72835155 L1.53195661,10.444836 C1.53033936,10.8464548 1.18834474,11.1716497 0.765978305,11.1731876 Z M15.6155347,5.42210874 L10.9449352,5.42210874 L10.9449352,8.31588032 L7.17502402,8.31588032 L7.17502402,11.2105869 L3.45427701,11.2105869 L3.45427701,14.1052934 L0.535889823,14.1052934 C0.295541755,14.1058076 0.100835683,14.2909492 0.100294969,14.5194908 L0.100294969,16.5858026 C0.100294969,16.8139384 0.295968493,17 0.535889823,17 L15.5644039,17 C15.804752,16.9994858 15.999458,16.8143442 15.9999987,16.5858026 L15.9999987,5.78768699 C16.0002607,5.69065345 15.9598389,5.59752238 15.8876811,5.52890908 C15.8155232,5.46029578 15.717581,5.42185961 15.6155347,5.42210874 Z" id="形状" fill-rule="nonzero"></path>
        </g>
    </g>
</svg>