<?xml version="1.0" encoding="UTF-8"?>
<svg width="20px" height="20px" viewBox="0 0 20 20" version="1.1" xmlns="http://www.w3.org/2000/svg" xmlns:xlink="http://www.w3.org/1999/xlink">
    <!-- Generator: Sketch 52.4 (67378) - http://www.bohemiancoding.com/sketch -->
    <title>工程</title>
    <desc>Created with Sketch.</desc>
    <g id="工程" stroke="none" stroke-width="1" fill="none" fill-rule="evenodd">
        <g id="iconfontgongcheng1" transform="translate(2.000000, 2.000000)" fill="#FFFFFF">
            <path d="M13.2719843,5.16243336 C13.469961,5.36044603 13.7908824,5.36044603 13.988931,5.16243336 L16.7955959,2.95235831 C17.2627714,4.42079346 16.9328102,6.08830158 15.7678459,7.25296038 C14.6564554,8.36460252 13.0872168,8.71515933 11.6697136,8.3407001 L8.34071791,11.6696959 C8.71517714,13.0874507 8.36465628,14.6564557 7.25299619,15.7678462 C6.08801394,16.9327566 4.42084731,17.2628077 2.95237624,16.7955783 L5.16243326,13.9888953 C5.36046389,13.7908647 5.36046389,13.4699972 5.16243326,13.2719486 L3.72832417,11.8375699 C3.53005991,11.6395213 3.20913851,11.6395213 3.01112586,11.8375699 L0.204424939,14.0476449 C-0.262804424,12.5791918 0.0672286505,10.9119533 1.23215699,9.74704286 C2.34352952,8.63565232 3.91278612,8.28484391 5.33030729,8.65930313 L8.65926702,5.33030739 C8.28484375,3.9127862 8.63536461,2.34352957 9.74700673,1.23215701 C10.911989,0.0672286518 12.5791556,-0.262804429 14.0475907,0.204424943 L11.8375876,3.01110794 C11.639557,3.2091206 11.639557,3.530042 11.8375876,3.72803669 L13.2719843,5.16243336 Z" id="路径"></path>
        </g>
    </g>
</svg>