<?xml version="1.0" encoding="UTF-8"?>
<svg width="20px" height="20px" viewBox="0 0 20 20" version="1.1" xmlns="http://www.w3.org/2000/svg" xmlns:xlink="http://www.w3.org/1999/xlink">
    <!-- Generator: Sketch 52.4 (67378) - http://www.bohemiancoding.com/sketch -->
    <title>碰撞</title>
    <desc>Created with Sketch.</desc>
    <g id="碰撞" stroke="none" stroke-width="1" fill="none" fill-rule="evenodd">
        <g id="i-collision-comparis" transform="translate(2.000000, 3.000000)" fill="#FFFFFF">
            <path d="M12.0042531,9.00000449 C11.1952904,8.99829573 10.4649646,9.48409281 10.1538624,10.2308449 C9.84276018,10.9775969 10.0121559,11.8382241 10.5830522,12.4113741 C11.1539484,12.984524 12.0139018,13.1573094 12.7618741,12.8491521 C13.5098464,12.5409947 13.9985175,11.812589 13.9999962,11.0036262 C14.002121,9.89925324 13.1086262,9.00223116 12.0042531,9.00000449 Z" id="路径"></path>
            <path d="M2,4 C2,5.1045695 2.8954305,6 4,6 C5.1045695,6 6,5.1045695 6,4 C6,2.8954305 5.1045695,2 4,2 C2.8954305,2 2,2.8954305 2,4 Z" id="路径"></path>
            <path d="M12.2701022,0 C10.2100248,0 8.54002551,1.60751207 8.54002551,3.59148863 C8.54002551,5.57546519 10.2100248,7.18314956 12.2701022,7.18314956 C14.3301796,7.18314956 16,5.57512061 16,3.59148863 C16,1.60785665 14.3301796,0 12.2701022,0 Z M3.73007672,7.81685046 C1.66999933,7.81685046 0,9.4248794 0,11.4085114 C0,13.3921433 1.66999933,15 3.73007672,15 C5.79015412,15 7.45997451,13.3924879 7.45997451,11.4085114 C7.45997451,9.42453481 5.78997518,7.81685044 3.73007672,7.81685046 Z" id="形状" fill-rule="nonzero"></path>
        </g>
    </g>
</svg>