<?xml version="1.0" encoding="UTF-8"?>
<svg width="20px" height="20px" viewBox="0 0 20 20" version="1.1" xmlns="http://www.w3.org/2000/svg" xmlns:xlink="http://www.w3.org/1999/xlink">
    <!-- Generator: Sketch 52.4 (67378) - http://www.bohemiancoding.com/sketch -->
    <title>系统</title>
    <desc>Created with Sketch.</desc>
    <g id="系统" stroke="none" stroke-width="1" fill="none" fill-rule="evenodd">
        <g id="xitong" transform="translate(2.000000, 2.000000)" fill="#FFFFFF" fill-rule="nonzero">
            <path d="M15.9582231,10.1745436 C15.9801945,10.3125781 15.975201,10.4776194 15.9402465,10.6726682 C15.9062907,10.8667167 15.8483661,11.0657664 15.7684702,11.2658165 C15.6885742,11.4658665 15.5907016,11.6469117 15.4768498,11.8069517 C15.3629981,11.9669917 15.2371619,12.0820205 15.0993413,12.1510378 C14.9615208,12.220055 14.8416768,12.2540635 14.7398094,12.2540635 C14.6359447,12.2540635 14.5220929,12.232058 14.3962567,12.1860465 C14.2814063,12.152038 14.1385922,12.1210303 13.9668158,12.092023 C13.7950395,12.0630158 13.620267,12.0570143 13.4434972,12.0740185 C13.2667273,12.0910228 13.0899575,12.128032 12.9121889,12.1850463 C12.7344204,12.2420605 12.582618,12.340085 12.4567818,12.4771193 C12.1831381,12.764191 12.0223474,13.0902726 11.977406,13.4563641 C11.9324645,13.8224556 11.9833982,14.1725431 12.1312057,14.5046262 C12.2450575,14.7336834 12.2290783,14.9637409 12.080272,15.1927982 C12.0113617,15.2848212 11.9015048,15.379845 11.7536972,15.475869 C11.6058897,15.5738935 11.4411042,15.6629157 11.265333,15.7429357 C11.0875645,15.8229557 10.9018063,15.8869717 10.7070599,15.931983 C10.5123134,15.9779945 10.3405371,16 10.1917308,16 C10.0888648,16 9.99199088,15.95999 9.9001105,15.87997 C9.80823013,15.79995 9.74730944,15.7139285 9.71235495,15.6219055 L9.69537706,15.6219055 C9.56954089,15.2668167 9.35482044,14.9607402 9.05121572,14.7026757 C8.747611,14.4446112 8.3960687,14.3155789 7.9955901,14.3155789 C7.6060972,14.3155789 7.2545549,14.4446112 6.93996448,14.7026757 C6.62537406,14.9607402 6.40466142,15.2608152 6.27882525,15.603901 C6.22189937,15.7419355 6.13601119,15.8419605 6.02116072,15.9049762 C5.90730895,15.967992 5.78147278,16 5.64365222,16 C5.48386026,16 5.30309561,15.971993 5.10335566,15.9139785 C4.90261701,15.855964 4.70287707,15.7849462 4.50213842,15.6989247 C4.30239847,15.6129032 4.12163382,15.5128782 3.96084316,15.3978495 C3.8010512,15.283821 3.68120723,15.1687922 3.60131125,15.0537634 C3.54338667,14.9737434 3.51242698,14.8797199 3.50643478,14.7706927 C3.50044258,14.6626657 3.54338667,14.5096274 3.63526705,14.3155789 C3.76110321,14.0515129 3.8100395,13.7514379 3.78107721,13.4133533 C3.75211492,13.0752688 3.60630475,12.764191 3.34364672,12.476119 C3.18285606,12.304076 2.98910832,12.1930483 2.76040608,12.1410353 C2.53170384,12.0900225 2.31398729,12.0700175 2.10825515,12.0810203 C1.86856721,12.092023 1.62188837,12.1380345 1.37121474,12.2190548 C1.21042408,12.264066 1.05063212,12.252063 0.890840166,12.184046 C0.765003999,12.1380345 0.64715743,12.0330083 0.539297858,11.8669667 C0.430439587,11.7009252 0.333565712,11.5168792 0.247677535,11.3168292 C0.161789358,11.1167792 0.0958751748,10.9097274 0.0499349869,10.6976744 C0.00399479895,10.4856214 -0.0079895979,10.3115779 0.0159791958,10.1745436 C0.0519323864,9.92248062 0.165784156,9.76244061 0.360530605,9.69242311 C0.704083315,9.5543886 1.01268153,9.32933233 1.28732396,9.01325331 C1.56196639,8.69817454 1.69978695,8.34608652 1.69978695,7.955989 C1.69978695,7.55488872 1.56296509,7.20580145 1.28732396,6.90772693 C1.01268153,6.61065266 0.704083315,6.3935984 0.360530605,6.25556389 C0.257664532,6.22155539 0.171776355,6.13853463 0.102866073,6.00650163 C0.0349544908,5.87446862 0,5.73943486 0,5.60340085 C0,5.45436359 0.022970094,5.28832208 0.0689102819,5.10427607 C0.11485047,4.92023006 0.174772454,4.7431858 0.249674934,4.57114279 C0.323578715,4.39909977 0.409466893,4.24206052 0.506340767,4.09802451 C0.603214642,3.955989 0.709076814,3.84996249 0.823927284,3.78094524 C0.91480896,3.72393098 1.00369324,3.70092523 1.08958141,3.71292823 C1.17447089,3.72393098 1.26934737,3.74693673 1.37321214,3.78094524 C1.71576615,3.91797949 2.07330066,3.96099025 2.44581566,3.90997749 C2.81733196,3.85796449 3.14690287,3.69592398 3.432531,3.41985496 C3.57035156,3.28282071 3.67022154,3.11377844 3.73214092,2.91272818 C3.795059,2.71267817 3.83500699,2.51462866 3.85198489,2.31957989 C3.86896278,2.12553138 3.86896278,1.94748687 3.85198489,1.78744686 C3.83500699,1.6264066 3.8210252,1.51237809 3.8090408,1.44336084 C3.78607071,1.37434359 3.76609671,1.29432358 3.74911882,1.20230058 C3.73214092,1.11127782 3.74112922,1.03125781 3.77508501,0.96224056 C3.84299659,0.80220055 3.96583666,0.662165541 4.14360521,0.541135284 C4.32137377,0.421105276 4.51212542,0.32108027 4.71885626,0.241060265 C4.92558711,0.16104026 5.12532705,0.100025006 5.3200735,0.0600150038 C5.51382125,0.0200050013 5.66861971,0 5.78347018,0 C5.93227644,0 6.04912431,0.0490122531 6.13501249,0.146036509 C6.22090067,0.244061015 6.28082265,0.344086022 6.31477844,0.447111778 C6.44061461,0.756189047 6.64734546,1.02925731 6.93297358,1.26331583 C7.21960041,1.49737434 7.55716092,1.61540385 7.94565511,1.61540385 C8.34613371,1.61540385 8.70067212,1.50337584 9.00927034,1.28032008 C9.31886725,1.05726432 9.5355851,0.773193298 9.66042256,0.429107277 C9.70736145,0.338084521 9.77826913,0.244061015 9.87614171,0.146036509 C9.97201688,0.0490122531 10.0728856,0 10.1747529,0 C10.3345449,0 10.510316,0.0230057514 10.6980716,0.0680170043 C10.8858271,0.114028507 11.072584,0.177044261 11.2563447,0.257064266 C11.4391068,0.337084271 11.6088858,0.440110028 11.7626855,0.566141535 C11.9164853,0.692173043 12.0393253,0.830207552 12.1312057,0.979244811 C12.1891303,1.07026757 12.2061082,1.17029257 12.1831381,1.27931983 C12.1611667,1.38834709 12.1371979,1.46636659 12.1142278,1.51137784 C11.9664203,1.84346087 11.9204801,2.19354839 11.977406,2.55963991 C12.0343318,2.92673168 12.2011147,3.24781195 12.4747584,3.52188047 C12.7494009,3.79694924 13.0869614,3.94898725 13.48744,3.9779945 C13.8879186,4.00700175 14.2594349,3.94098525 14.6029876,3.77994499 C14.6938692,3.72293073 14.8057236,3.69992498 14.937552,3.71192798 C15.0693803,3.72293073 15.180236,3.77494374 15.2721164,3.86596649 C15.4438927,4.02700675 15.5946964,4.27006752 15.7265248,4.59614904 C15.8583531,4.92323081 15.9472374,5.25231308 15.9931776,5.5843961 C16.015149,5.77944486 15.9841893,5.93148287 15.8983011,6.04051013 C15.8124129,6.14953738 15.7235287,6.22055514 15.632647,6.25556389 C15.2781086,6.3815954 14.9745039,6.60165041 14.7228315,6.91672918 C14.4711592,7.23180795 14.345323,7.58989747 14.345323,7.99099775 C14.345323,8.38109527 14.4501865,8.7211803 14.6619109,9.01325331 C14.8736352,9.30532633 15.1512737,9.51437859 15.4948264,9.6404101 C15.5747224,9.68642161 15.642634,9.73243311 15.7005586,9.77844461 C15.8273934,9.88247062 15.9132816,10.0135034 15.9582231,10.1745436 Z M7.97961091,11.7209302 C8.49394127,11.7209302 8.98030804,11.6229057 9.43771252,11.4288572 C9.895117,11.2348087 10.2925995,10.9647412 10.63016,10.6206552 C10.9677205,10.2765691 11.2333747,9.87946987 11.4281211,9.42735684 C11.6218688,8.97424356 11.7197414,8.49012253 11.7197414,7.9739935 C11.7197414,7.45886472 11.6218688,6.97374344 11.4281211,6.52163041 C11.2333747,6.06851713 10.9677205,5.67341835 10.63016,5.33533383 C10.2925995,4.99724931 9.895117,4.7311828 9.43771252,4.53713428 C8.98030804,4.34208552 8.49394127,4.24506127 7.97961091,4.24506127 C7.46428184,4.24506127 6.98091117,4.34208552 6.52949889,4.53713428 C6.0770879,4.7311828 5.68260151,4.99824956 5.3460397,5.33633408 C5.00748049,5.6744186 4.74182636,6.06951738 4.54707991,6.52263066 C4.35333216,6.97474369 4.25545958,7.45886472 4.25545958,7.9739935 C4.25545958,8.49012253 4.35333216,8.97424356 4.54707991,9.42735684 C4.74182636,9.87946987 5.00748049,10.2775694 5.345041,10.6206552 C5.68260151,10.9647412 6.07608921,11.2338085 6.52850019,11.4288572 C6.98091117,11.623906 7.46428184,11.7209302 7.97961091,11.7209302 Z" id="形状"></path>
        </g>
    </g>
</svg>