<?xml version="1.0" encoding="UTF-8"?>
<svg width="20px" height="20px" viewBox="0 0 20 20" version="1.1" xmlns="http://www.w3.org/2000/svg" xmlns:xlink="http://www.w3.org/1999/xlink">
    <!-- Generator: Sketch 52.4 (67378) - http://www.bohemiancoding.com/sketch -->
    <title>透明</title>
    <desc>Created with Sketch.</desc>
    <g id="透明" stroke="none" stroke-width="1" fill="none" fill-rule="evenodd">
        <g id="touminghua" transform="translate(2.000000, 3.000000)">
            <path d="M1,13.9838549 C1,12.3225757 1,10.6613135 1,9 C2.66665524,9.00001713 4.33331047,9 5.99994858,9 C5.99996572,9.01074624 5.99998287,9.02150961 6,9.03229013 C5.99998287,10.6881877 5.99994858,12.3440853 5.99993145,14 C4.33867502,14 2.67740145,14 1.01612789,14 C1.01076334,13.9946183 1.00538167,13.9892195 1,13.9838549 Z" id="路径" fill="#FFFFFF"></path>
            <path d="M1.00154237,4.99991405 C1.00154237,3.35535848 1.00190217,1.71080292 1.00000032,0.0662473373 C0.999931789,0.0108638608 1.01082888,-6.84316104e-05 1.06603394,3.21248353e-07 C2.71065502,0.00190831806 4.35529323,0.00154735296 5.99991432,0.00154735296 C5.9999486,1.66769251 5.99996573,3.33383766 6,5 C4.333876,4.99994843 2.66770062,4.99994843 1.00154237,4.99991405 Z" id="路径" fill="#FFFFFF"></path>
            <path d="M15.9838199,14 C14.3225638,14 12.6613077,14 11.0000516,14 C11.0000344,13.9784904 11.0000172,13.9569636 11,13.9354712 C11.0000172,12.2903027 11.0000344,10.6451342 11.0000516,9 C12.6666896,9 14.3333448,9.00001713 16,9 C16,10.6613135 16,12.3225757 16,13.9838549 C15.9946181,13.9892366 15.9892018,13.9946354 15.9838199,14 Z" id="路径" fill="#FFFFFF"></path>
            <path d="M11,5 C11.0000344,3.3338548 11.0000516,1.6677096 11.000086,0.00154721319 C12.6446588,0.00154721319 14.2891972,0.0019081783 15.9337528,1.81436598e-07 C15.9891191,-5.13874083e-05 16.0000514,0.0108637381 15.9999998,0.0662471994 C15.9980918,1.71080281 15.9984528,3.35535842 15.9984528,4.99991405 C14.3322904,4.99996563 12.6661624,4.99998282 11,5 Z" id="路径" fill="#FFFFFF"></path>
            <path d="M0.95505432,13.95 C0.986736503,13.9815813 1.01831782,14.0133644 1.05,14.0449457 C0.968372909,14.0633092 0.936690726,14.031627 0.95505432,13.95 Z" id="路径" fill="#000000"></path>
            <path d="M14.95,14.0449457 C14.9815696,14.0133644 15.0133409,13.9815813 15.0449105,13.95 C15.0633682,14.031627 15.0315969,14.0633092 14.95,14.0449457 Z" id="路径" fill="#000000"></path>
            <path d="M10.999914,14 C10.9773721,13.9968225 10.9677088,13.9831229 10.9678635,13.9608112 C10.9680355,13.9363117 10.9676228,13.9118296 10.9676228,13.8873301 C10.9676056,12.3084576 10.9676228,10.7296199 10.9675884,9.15074748 C10.9675884,9.03285121 10.9674852,9.03272967 10.8523854,9.03272967 C9.23495225,9.03271231 7.6175363,9.03271231 6.00010317,9.03271231 C6.00008598,9.02179084 6.00006877,9.01088674 6.00005158,9 L6,9.00005209 C7.66666094,9.00005209 9.33333906,9.00005209 11,9.00005209 L11,9 C10.9999484,10.6666435 10.9999312,12.3333044 10.999914,14 Z" id="路径" fill="#000000"></path>
            <path d="M11,9 C9.3333276,9 7.6666724,9 6,9 C6,7.33332187 6,5.66666094 6,4 C7.6666724,4 9.3333276,4 11,4 C11,5.66666094 11,7.33332187 11,9 Z" id="路径" fill="#FFFFFF"></path>
        </g>
    </g>
</svg>