<?xml version="1.0" encoding="UTF-8"?>
<svg width="20px" height="20px" viewBox="0 0 20 20" version="1.1" xmlns="http://www.w3.org/2000/svg" xmlns:xlink="http://www.w3.org/1999/xlink">
    <!-- Generator: Sketch 52.4 (67378) - http://www.bohemiancoding.com/sketch -->
    <title>隧道</title>
    <desc>Created with Sketch.</desc>
    <g id="隧道" stroke="none" stroke-width="1" fill="none" fill-rule="evenodd">
        <g id="suidao" transform="translate(3.000000, 1.000000)" fill="#FFFFFF">
            <path d="M7.11263391,0 C1.02987398,0 0,5.7962009 0,5.7962009 L0,17 L1.39769557,17 L1.39769557,6.38575651 C1.39769557,6.38575651 2.20300062,1.85350263 6.9593513,1.85350263 C11.7156831,1.85350263 12.3448312,6.38575651 12.3448312,6.38575651 L12.3448312,16.999981 L14,17 L14,5.7962009 C14,5.7962009 13.1953938,0 7.11263391,0 Z" id="路径"></path>
            <path d="M7.08048553,2 C2.73562227,2 2,6.20965751 2,6.20965751 L2,17 L2.48785702,16.9999609 L5.20873172,11.6099254 L5.21986016,11.6099254 L5.21986016,6.64720991 C5.21986016,6.64720991 5.50375943,5.02264017 7.18054604,5.02264017 C8.85723721,5.02264017 9.07898519,6.64720991 9.07898519,6.64720991 L9.07898519,11.6099254 L11.7980656,17 L12,17 L12,6.20965751 C12,6.20965751 11.4253297,2 7.08048553,2 Z" id="路径"></path>
            <polygon id="路径" points="6.34036609 11 4 17 11 17 8.6603235 11"></polygon>
        </g>
    </g>
</svg>